<?xml version="1.0" encoding="utf-8"?>
<!-- Generator: Adobe Illustrator 23.0.0, SVG Export Plug-In . SVG Version: 6.00 Build 0)  -->
<svg version="1.1" id="Layer_1" xmlns="http://www.w3.org/2000/svg" xmlns:xlink="http://www.w3.org/1999/xlink" x="0px" y="0px"
	 viewBox="0 0 65.1 34.5" style="enable-background:new 0 0 65.1 34.5;" xml:space="preserve">
<style type="text/css">
	.st0{fill:#FFFFFF;}
	.st1{fill:#81509F;}
	.st2{fill:#8A8EC5;}
	.st3{fill:#5C52A1;}
	.st4{stroke:#000000;stroke-width:0.25;stroke-miterlimit:10;}
</style>
<path class="st0" d="M29.9,14.5c-0.4,0-0.7-0.1-1-0.4c-0.3-0.3-0.5-0.6-0.5-1V6.9c0-0.8,0.6-1.4,1.4-1.4h3.4c0.6,0,1.2,0.4,1.4,1
	L35,7.8c0.1,0.4,0,0.9-0.2,1.2c-0.1,0.1-0.2,0.2-0.3,0.3c0,0,0,0.1,0,0.1v1.4c0,0.8-0.6,1.4-1.4,1.4h-0.2v0.6c0,0.7-0.6,1.3-1.3,1.4
	L30,14.5C30,14.5,29.9,14.5,29.9,14.5z"/>
<path class="st0" d="M36.9,14.5c-0.6,0-1.2-0.1-1.7-0.4c-0.6-0.3-1.2-0.7-1.5-1.3c-0.4-0.6-0.6-1.2-0.6-2c0,0,0-0.1,0-0.1
	c0-0.6,0.2-1.3,0.5-1.8c0.3-0.6,0.8-1.1,1.4-1.4c0.6-0.4,1.2-0.6,1.9-0.6c0,0,0.1,0,0.1,0c0.7,0,1.4,0.2,1.9,0.5
	c0.6,0.3,1.1,0.8,1.5,1.4c0.3,0.6,0.5,1.3,0.5,2c0,0.7-0.2,1.3-0.5,1.9c-0.3,0.6-0.8,1-1.3,1.4c-0.5,0.3-1.1,0.5-1.8,0.6
	C37.1,14.5,37,14.5,36.9,14.5z"/>
<path class="st0" d="M40.2,14.5c-0.4,0-0.7-0.1-1-0.4c-0.3-0.3-0.5-0.6-0.5-1V8.5c0-0.7,0.5-1.3,1.2-1.4l1.4-0.2c0.1,0,0.1,0,0.2,0
	c0.2,0,0.4,0,0.6,0.1c0.2-0.1,0.5-0.1,0.7-0.1c0.1,0,0.2,0,0.3,0c0,0,0.1,0,0.1,0l0.2,0c0.4,0.1,0.7,0.3,0.9,0.7
	c0.2,0.3,0.3,0.8,0.1,1.1l-0.5,1.4c-0.1,0.4-0.4,0.7-0.8,0.9c-0.1,0-0.1,0.1-0.2,0.1v1.8c0,0.7-0.6,1.3-1.3,1.4l-1.5,0.1
	C40.3,14.5,40.3,14.5,40.2,14.5z"/>
<path class="st0" d="M46.3,14.5c-0.6,0-1.2-0.1-1.7-0.4c-0.6-0.3-1.1-0.7-1.5-1.3c-0.4-0.6-0.6-1.2-0.6-2c0,0,0-0.1,0-0.1
	c0-0.6,0.2-1.3,0.5-1.8c0.3-0.6,0.8-1.1,1.4-1.4c0.6-0.4,1.2-0.6,1.9-0.6c0,0,0.1,0,0.1,0c0.7,0,1.4,0.2,1.9,0.5
	c0.6,0.3,1.1,0.8,1.5,1.4c0.3,0.6,0.5,1.3,0.5,2c0,0.7-0.2,1.3-0.5,1.9c-0.3,0.6-0.8,1-1.3,1.4c-0.5,0.3-1.1,0.5-1.8,0.6
	C46.5,14.5,46.4,14.5,46.3,14.5z"/>
<path class="st0" d="M21.8,32.5c-0.4,0-0.7-0.1-1-0.4c-0.3-0.3-0.5-0.6-0.5-1v-6.2c0-0.7,0.6-1.3,1.3-1.4l1.5-0.2c0,0,0.1,0,0.1,0
	c0.3,0,0.7,0.1,0.9,0.4c0.3,0.3,0.5,0.7,0.5,1.1v6.2c0,0.7-0.6,1.4-1.3,1.4l-1.5,0.1C21.9,32.5,21.9,32.5,21.8,32.5z"/>
<path class="st0" d="M26.6,32.6c-0.7,0-1.3-0.2-1.8-0.5c-0.6-0.3-1-0.8-1.4-1.4c-0.3-0.6-0.5-1.2-0.5-1.9c0-0.7,0.2-1.3,0.5-1.9
	c0.3-0.6,0.8-1.1,1.3-1.4c0.5-0.4,1.1-0.5,1.8-0.6c0-0.7,0.5-1.3,1.2-1.4l1.4-0.2c0.1,0,0.1,0,0.2,0c0.3,0,0.7,0.1,0.9,0.4
	c0.3,0.3,0.5,0.7,0.5,1.1V31c0,0.7-0.6,1.3-1.3,1.4L28,32.5c0,0-0.1,0-0.1,0c-0.1,0-0.3,0-0.4-0.1c-0.2,0.1-0.5,0.1-0.8,0.1
	C26.7,32.6,26.6,32.6,26.6,32.6L26.6,32.6z"/>
<path class="st0" d="M30.7,32.4c-0.4,0-0.7-0.1-1-0.4c-0.3-0.3-0.5-0.6-0.5-1v-4.5c0-0.1,0-0.2,0-0.3c-0.1-0.2-0.2-0.5-0.3-0.7
	c0-0.4,0.1-0.8,0.4-1.1l0.9-0.9c0.3-0.3,0.6-0.4,1-0.4c0.3,0,0.6,0.1,0.8,0.3l1,0.7c0.3,0.2,0.6,0.6,0.6,1c0,0.3-0.1,0.7-0.3,1
	c0,0.1,0,0.1,0,0.2v4.6c0,0.7-0.6,1.4-1.3,1.4l-1.4,0.1C30.8,32.4,30.8,32.4,30.7,32.4z"/>
<path class="st0" d="M35.9,32.5c-0.6,0-1.2-0.1-1.7-0.4c-0.6-0.3-1.1-0.7-1.5-1.3c-0.4-0.6-0.6-1.2-0.6-2c0,0,0-0.1,0-0.1
	c0-0.6,0.2-1.3,0.5-1.8c0.3-0.6,0.8-1.1,1.4-1.4c0.6-0.4,1.2-0.6,1.9-0.6c0,0,0.1,0,0.1,0c0.7,0,1.4,0.2,1.9,0.5
	c0.6,0.3,1.1,0.8,1.5,1.4c0.3,0.6,0.5,1.3,0.5,2c0,0.7-0.2,1.3-0.5,1.9c-0.3,0.6-0.8,1-1.3,1.4c-0.5,0.3-1.1,0.5-1.8,0.6
	C36.1,32.5,36,32.5,35.9,32.5z"/>
<path class="st0" d="M41.4,32.5c-0.2,0-0.4,0-0.6-0.1c-0.1,0-0.2,0-0.2,0l-1.4,0.1c0,0-0.1,0-0.1,0c-0.4,0-0.7-0.1-1-0.4
	c-0.3-0.3-0.5-0.6-0.5-1v-4.6c0-0.7,0.5-1.3,1.3-1.4l1.3-0.2c0.1,0,0.1,0,0.2,0c0.1,0,0.2,0,0.3,0c0.2,0,0.3-0.1,0.5-0.1
	c0,0,0.1,0,0.2,0c0.3,0,0.6,0,0.8,0.1c0.1,0,0.1,0,0.2,0.1c0.3-0.1,0.7-0.2,1.1-0.2c0,0,0,0,0,0c0.6,0,1,0.1,1.4,0.3
	c0.5,0.2,0.9,0.6,1.1,1.1c0.3,0.5,0.4,1,0.4,1.5v3.2c0,0.7-0.6,1.4-1.3,1.4c0,0-1.4,0.1-1.5,0.1c-0.2,0-0.4,0-0.6-0.1
	c-0.1,0-0.2,0-0.3,0l-1.4,0.1C41.5,32.5,41.5,32.5,41.4,32.5z"/>
<path class="st0" d="M47.6,32.5c-0.5,0-1-0.1-1.4-0.3c-0.5-0.2-0.9-0.6-1.2-1.1c-0.3-0.4-0.4-1-0.4-1.6c0-0.6,0.2-1.1,0.5-1.6
	c0,0,0.1-0.1,0.1-0.1c0-0.1,0-0.2,0-0.3l0.3-1.3c0.1-0.3,0.2-0.6,0.5-0.8c0.3-0.2,0.6-0.3,0.9-0.4c0.2,0,0.4-0.1,0.6-0.1
	c0.3,0,0.5-0.1,0.7-0.1c0,0,0.1,0,0.1,0c0.5,0,0.9,0.1,1.3,0.2c0.6,0.2,1,0.5,1.3,1c0.4,0.5,0.6,1.1,0.6,1.7v3.1
	c0,0.7-0.5,1.3-1.3,1.4l-1.3,0.2c-0.1,0-0.1,0-0.2,0c-0.1,0-0.2,0-0.3,0C48.1,32.5,47.9,32.5,47.6,32.5
	C47.6,32.5,47.6,32.5,47.6,32.5L47.6,32.5z"/>
<path class="st0" d="M52.5,32.6c-0.7,0-1.3-0.2-1.8-0.5c-0.5-0.3-0.8-0.4-1-0.6c-0.5-0.5-0.5-1.3-0.1-1.9l0.3-0.4
	c-0.3-0.4-0.4-0.9-0.4-1.4c0-0.6,0.2-1.1,0.5-1.6c0.3-0.4,0.7-0.8,1.2-1c0.4-0.2,0.9-0.3,1.4-0.4h0.2c0.6,0,1.2,0.1,1.8,0.4
	c0.6,0.3,1,0.6,1.2,1.1c0.2,0.5,0.1,1.1-0.2,1.5c0.3,0.4,0.5,0.9,0.5,1.7c0,0.6-0.2,1.2-0.6,1.7c-0.3,0.4-0.8,0.8-1.3,1
	C53.6,32.5,53.1,32.6,52.5,32.6L52.5,32.6z"/>
<path class="st0" d="M4.9,23.5c-0.4,0-0.7-0.1-1-0.4c-0.3-0.3-0.5-0.6-0.5-1v-6.2c0-0.7,0.6-1.3,1.3-1.4l1.5-0.2c0,0,0.1,0,0.1,0
	c0.3,0,0.7,0.1,1,0.4c0.3,0.3,0.5,0.7,0.5,1.1v6.2c0,0.7-0.6,1.4-1.3,1.4L5,23.5C5,23.5,4.9,23.5,4.9,23.5z"/>
<path class="st0" d="M7.5,23.5c-0.4,0-0.7-0.1-1-0.4c-0.3-0.3-0.5-0.6-0.5-1v-4.6c0-0.7,0.5-1.3,1.2-1.4l1.3-0.2c0.1,0,0.1,0,0.2,0
	c0.1,0,0.3,0,0.4,0.1c0.2,0,0.4-0.1,0.6-0.1c0,0,0.1,0,0.2,0c0.8,0,1.4,0.3,2,0.8c0.5,0.6,0.8,1.3,0.8,2.1v3.2
	c0,0.7-0.6,1.3-1.3,1.4l-1.4,0.1c0,0-0.1,0-0.1,0c-0.2,0-0.5-0.1-0.7-0.2c-0.1,0-0.2,0-0.3,0.1l-1.4,0.1C7.6,23.5,7.6,23.5,7.5,23.5
	z"/>
<path class="st0" d="M14.2,23.8c-0.5,0-1-0.3-1.3-0.8l-2.3-4.8c-0.2-0.4-0.2-0.9,0-1.3c0.2-0.4,0.6-0.7,1-0.8l1.4-0.3
	c0.1,0,0.2,0,0.3,0c0.3,0,0.7,0.1,0.9,0.3c0.3-0.2,0.6-0.3,0.9-0.3c0.1,0,0.2,0,0.3,0l1.4,0.3c0.4,0.1,0.8,0.4,1,0.8
	c0.2,0.4,0.2,0.9,0,1.3L15.5,23C15.2,23.5,14.8,23.8,14.2,23.8C14.2,23.8,14.2,23.8,14.2,23.8z"/>
<path class="st0" d="M19.6,23.5c-0.7,0-1.3-0.2-1.9-0.5c-0.6-0.3-1.1-0.8-1.5-1.4c-0.4-0.6-0.5-1.2-0.6-2c0-0.7,0.1-1.3,0.4-1.8
	c0.3-0.6,0.7-1,1.2-1.4c0.5-0.4,1.1-0.6,1.8-0.7c0.2,0,0.3,0,0.5,0c0.4,0,0.9,0.1,1.3,0.2c0.5,0.2,0.9,0.5,1.3,0.8
	c0.3,0.3,0.5,0.5,0.7,0.8c0.1,0.2,0.2,0.4,0.3,0.5c0.3,0.6,0,1.4-0.6,1.8L22.3,20l0.4,0.6c0.4,0.6,0.3,1.5-0.3,1.9
	c-0.1,0.1-0.2,0.2-0.5,0.3c-0.2,0.1-0.5,0.3-0.9,0.4C20.6,23.4,20.1,23.5,19.6,23.5C19.6,23.5,19.6,23.5,19.6,23.5L19.6,23.5z"/>
<path class="st0" d="M24.2,23.6c-0.7,0-1.3-0.2-1.8-0.5c-0.5-0.3-0.8-0.4-1-0.6c-0.5-0.5-0.5-1.3-0.1-1.9l0.3-0.4
	c-0.3-0.4-0.4-0.9-0.4-1.4c0-0.6,0.2-1.1,0.5-1.6c0.3-0.4,0.7-0.8,1.2-1c0.4-0.2,0.9-0.3,1.4-0.4l0.2,0c0.6,0,1.2,0.2,1.8,0.4
	c0.6,0.3,1,0.6,1.2,1.1c0.2,0.5,0.2,1.1-0.2,1.6c0.3,0.4,0.5,0.9,0.5,1.7c0,0.6-0.2,1.2-0.6,1.7c-0.3,0.4-0.8,0.8-1.3,1
	C25.3,23.5,24.8,23.6,24.2,23.6L24.2,23.6z"/>
<path class="st0" d="M29.7,23.5c-0.7,0-1.4-0.2-1.9-0.5c-0.9-0.5-1.5-1.5-1.5-2.6V20c-0.2-0.1-0.3-0.2-0.5-0.4
	c-0.3-0.4-0.4-0.8-0.2-1.2l0.4-1.3c0.1-0.3,0.2-0.5,0.4-0.6c0.1-0.5,0.4-1,0.9-1.2l1.4-0.6c0.2-0.1,0.4-0.1,0.5-0.1
	c0.3,0,0.6,0.1,0.8,0.2c0.4,0.3,0.6,0.7,0.6,1.2v0.1c0.5,0.2,0.9,0.7,0.9,1.3v1.3c0,0.3-0.1,0.6-0.2,0.8c0.1,0.1,0.1,0.1,0.2,0.2
	c0.3,0.4,0.5,0.9,0.3,1.3l-0.4,1.4c-0.2,0.6-0.7,1-1.4,1C30,23.5,29.7,23.5,29.7,23.5z"/>
<path class="st0" d="M31.5,23.4c-0.4,0-0.7-0.1-1-0.4c-0.3-0.3-0.5-0.6-0.5-1v-4.5c0-0.1,0-0.2,0-0.3c-0.1-0.2-0.2-0.5-0.3-0.7
	c0-0.4,0.1-0.8,0.4-1.1l0.9-0.9c0.3-0.3,0.6-0.4,1-0.4c0.3,0,0.6,0.1,0.8,0.3l1,0.7c0.3,0.2,0.6,0.6,0.6,1c0,0.3-0.1,0.7-0.3,1
	c0,0.1,0,0.1,0,0.2v4.6c0,0.7-0.6,1.4-1.3,1.4l-1.4,0.1C31.5,23.4,31.5,23.4,31.5,23.4z"/>
<path class="st0" d="M36.2,25c-1,0-1.7-0.2-2.3-0.6c-0.5-0.3-0.8-0.6-1.1-1c-0.3-0.5-0.3-1.2,0.2-1.7l0.5-0.5c0,0,0,0,0,0
	c-0.3-0.3-0.8-1-0.8-2c0-0.7,0.2-1.3,0.5-1.8c0.3-0.5,0.7-0.9,1.3-1.1c0.5-0.3,1-0.4,1.6-0.4l0.1,0c0.3,0,0.5,0,0.7,0
	c0.1,0,0.2,0,0.3,0c0.4,0,0.8-0.1,1.1-0.2c0.1,0,0.2,0,0.4,0c0.4,0,0.7,0.1,1,0.4c0.4,0.4,0.5,0.9,0.4,1.4l-0.3,1.1
	c0,0.1-0.1,0.2-0.1,0.3c0,0.1,0,0.2,0,0.3c0,0,0,0.1,0,0.1c0,0.4-0.1,0.8-0.3,1.1c0.2,0.4,0.3,0.9,0.3,1.4c0,1-0.5,1.9-1.3,2.5
	C37.9,24.8,37.1,25,36.2,25z"/>
<path class="st0" d="M41.1,23.5c-0.5,0-1-0.1-1.4-0.3c-0.5-0.2-0.9-0.6-1.2-1.1c-0.3-0.4-0.4-1-0.4-1.6c0-0.6,0.2-1.1,0.5-1.6
	c0,0,0.1-0.1,0.1-0.1c0-0.1,0-0.2,0-0.3l0.3-1.3c0.1-0.3,0.2-0.6,0.4-0.8c0.3-0.3,0.6-0.3,0.9-0.4c0.2,0,0.4-0.1,0.6-0.1
	c0.3,0,0.5-0.1,0.7-0.1c0,0,0.1,0,0.1,0c0.5,0,0.9,0.1,1.3,0.2c0.6,0.2,1,0.5,1.3,1c0.4,0.5,0.6,1.1,0.6,1.7v3.1
	c0,0.7-0.5,1.3-1.3,1.4l-1.3,0.2c-0.1,0-0.1,0-0.2,0c-0.1,0-0.2,0-0.3,0C41.6,23.5,41.4,23.5,41.1,23.5
	C41.1,23.5,41.1,23.5,41.1,23.5L41.1,23.5z"/>
<path class="st0" d="M46.7,23.5c-0.7,0-1.4-0.2-2-0.5c-0.6-0.3-1.1-0.8-1.5-1.4c-0.3-0.6-0.5-1.2-0.5-1.9c0-0.7,0.2-1.3,0.5-1.9
	c0.3-0.6,0.8-1.1,1.4-1.4c0.6-0.4,1.2-0.5,2-0.5c0.7,0,1.3,0.1,1.8,0.4c0.4,0.2,0.7,0.4,0.9,0.7c0.5,0.5,0.5,1.3,0.1,1.8l-0.7,1
	l0.8,1c0.5,0.6,0.4,1.4-0.2,1.9c-0.2,0.2-0.5,0.3-0.8,0.5C48,23.4,47.4,23.5,46.7,23.5C46.8,23.5,46.8,23.5,46.7,23.5L46.7,23.5z"/>
<path class="st0" d="M49.6,23.4c-0.4,0-0.7-0.1-1-0.4c-0.3-0.3-0.5-0.6-0.5-1v-4.5c0-0.1,0-0.2,0-0.3C48.1,17,48,16.7,48,16.5
	c0-0.4,0.1-0.8,0.4-1.1l0.9-0.9c0.3-0.3,0.6-0.4,1-0.4c0.3,0,0.6,0.1,0.8,0.3l1,0.7c0.3,0.2,0.6,0.6,0.6,1c0,0.3-0.1,0.7-0.3,1
	c0,0.1,0,0.1,0,0.2v4.6c0,0.7-0.6,1.4-1.3,1.4l-1.4,0.1C49.7,23.4,49.7,23.4,49.6,23.4z"/>
<path class="st0" d="M54.7,23.5c-0.6,0-1.2-0.1-1.7-0.4c-0.6-0.3-1.1-0.7-1.5-1.3c-0.4-0.6-0.6-1.2-0.6-2c0,0,0-0.1,0-0.1
	c0-0.6,0.2-1.3,0.5-1.8c0.3-0.6,0.8-1.1,1.4-1.4c0.6-0.4,1.2-0.6,1.9-0.6c0,0,0.1,0,0.1,0c0.7,0,1.4,0.2,1.9,0.5
	c0.6,0.3,1.1,0.8,1.5,1.4c0.3,0.6,0.5,1.3,0.5,2c0,0.7-0.2,1.3-0.5,1.9c-0.3,0.6-0.8,1-1.3,1.4c-0.5,0.3-1.1,0.5-1.8,0.6
	C54.9,23.5,54.8,23.5,54.7,23.5z"/>
<path class="st0" d="M57.9,23.5c-0.4,0-0.7-0.1-1-0.4c-0.3-0.3-0.5-0.6-0.5-1v-4.6c0-0.7,0.5-1.3,1.2-1.4l1.3-0.2c0.1,0,0.1,0,0.2,0
	c0.1,0,0.3,0,0.4,0.1c0.2,0,0.4-0.1,0.6-0.1c0,0,0.1,0,0.2,0c0.8,0,1.4,0.3,2,0.8c0.5,0.6,0.8,1.3,0.8,2.1v3.2
	c0,0.7-0.6,1.3-1.3,1.4l-1.4,0.1c0,0-0.1,0-0.1,0c-0.2,0-0.5-0.1-0.7-0.2c-0.1,0-0.2,0-0.3,0.1l-1.4,0.1C58,23.5,58,23.5,57.9,23.5z
	"/>
<path class="st0" d="M54.4,18.5c-0.4,0-0.8-0.2-1-0.5c-0.5-0.5-0.5-1.3-0.1-1.8l1.3-1.6c0.3-0.3,0.7-0.5,1.1-0.5c0.1,0,0.2,0,0.3,0
	l1,0.2c0.6,0.1,1,0.5,1.1,1.1c0.1,0.6-0.1,1.2-0.6,1.5l-2.3,1.5C55,18.4,54.7,18.5,54.4,18.5z"/>
<path class="st0" d="M52,15.3c-0.3,0-0.6-0.1-0.8-0.2c-0.3,0.1-0.6,0.2-0.9,0.2c-1.2,0-2.1-1-2.1-2.3c0-1.6,1.1-4.5,3.2-4.5l0.1-0.4
	C51.8,7.4,52.4,7,53,7c0.5,0,1,0.3,1.3,0.7c0.3,0.4,0.4,1,0.2,1.5c0,0-0.4,1.2-0.5,1.4c0,0,0.1,0,0.1,0c0.1,0,0.1,0,0.2,0.1
	c0.6,0.3,0.9,0.8,0.9,1.4c0,0.2,0,0.4-0.1,0.5c0,0,0,0.1-0.1,0.1C54.7,13.5,53.9,15.3,52,15.3z"/>
<path class="st0" d="M54.4,15.3c-0.7,0-1.4-0.3-1.8-0.7c-0.5-0.5-0.7-1.2-0.7-1.9c0.1-1.6,1.3-4.3,3.4-4.3c1.2,0,2.1,0.9,2.1,2.1
	c0,0.1,0,0.2,0,0.3c0.3,0.3,0.6,0.7,0.6,1.2c0,0.2,0,0.4-0.1,0.5c0,0,0,0.1,0,0.1C57,14.4,55.9,15.3,54.4,15.3z"/>
<path class="st0" d="M14.6,30.2c-0.7,0-1.4-0.3-1.8-0.7c-0.5-0.5-0.7-1.2-0.7-1.9c0.1-1.5,1.3-4.3,3.4-4.3c1.2,0,2.1,0.9,2.1,2.1
	c0,0.1,0,0.2,0,0.3c0.3,0.3,0.6,0.7,0.6,1.2c0,0.2,0,0.4-0.1,0.5c0,0,0,0.1-0.1,0.1C17.2,29.3,16.1,30.2,14.6,30.2z"/>
<path class="st0" d="M18.5,30.2c-0.6,0-1-0.2-1.4-0.5c-0.3,0.3-0.7,0.5-1.2,0.5c-0.1,0-0.3,0-0.4-0.1c0,0-0.1,0-0.1,0
	c-0.8-0.3-1.2-1.2-1-2c0.2-0.6,1.2-3.3,1.3-3.7c0.2-0.6,0.8-1.1,1.5-1.1c0.1,0,0.3,0,0.4,0c0.2,0,0.3-0.1,0.5-0.1
	c1.3,0,2.2,0.8,2.2,2.1c0,0,0.1,0,0.1,0c0.1,0,0.1,0,0.2,0.1c0.6,0.3,0.9,0.8,0.9,1.4c0,0.1,0,0.4-0.1,0.5c0,0.1,0,0.1-0.1,0.2
	C21,28.6,20.2,30.2,18.5,30.2z"/>
<path class="st0" d="M11.4,16.8c-1.7,0-2.9-1.2-3.8-2.1c-0.4,0.2-0.9,0.2-1.3,0.2c-2,0-3.2-1.5-3.2-3.7c0-0.6,0.1-1.2,0.2-1.9
	C1.9,9,1.1,7.9,1.1,6.5c0-1.2,0.6-1.9,1-2.3c0.3-0.3,0.7-0.5,1.2-0.5c0.4,0,0.9,0.2,1.2,0.5c0.3,0.3,0.5,0.7,0.5,1.2
	c0,0.1,0,0.2,0,0.4c0.7-0.9,1.3-1.3,2-1.6c0.3-0.4,0.8-0.9,2-0.9c1.5,0,3.1,1,3.1,3.6c0,1.8-0.8,4-1.8,5.6c0.4,0.5,1,1,1.3,1
	c0,0,0.1,0,0.1,0c0.3-0.5,0.8-0.7,1.4-0.7c0.9,0,1.6,0.7,1.6,1.6c0,0.3-0.1,0.5-0.1,0.6c0,0,0,0.1-0.1,0.1
	C13.9,16.1,12.7,16.8,11.4,16.8z M6.7,10.5c0.3,0,0.5,0,0.8,0.1c0.4-0.7,0.8-1.5,1-2.3C7.9,8.6,7.3,8.9,6.8,9.1
	C6.6,9.6,6.5,10,6.4,10.5C6.5,10.5,6.6,10.5,6.7,10.5C6.7,10.5,6.7,10.5,6.7,10.5z"/>
<path class="st0" d="M13.3,14.5c-0.4,0-0.7-0.1-1-0.2c-0.4,0.2-0.7,0.2-1.1,0.2c-1.5,0-2.5-1-2.5-2.6c0-0.8,0.2-1.4,1.2-4l0.2-0.5
	c0.2-0.6,0.9-1.1,1.5-1.1c0.5,0,0.9,0.2,1.2,0.5c0.3-0.3,0.7-0.5,1.2-0.5c0.6,0,1.1,0.3,1.4,0.7c0.3,0.4,0.4,1,0.2,1.5
	c-0.1,0.1-0.1,0.3-0.1,0.4c0.1,0,0.2,0,0.2,0.1c0.1,0,0.2,0.1,0.3,0.1c0.5,0.3,0.8,0.9,0.8,1.4c0,0.1,0,0.4-0.1,0.5
	c0,0,0,0.1-0.1,0.1C16,12.8,15.1,14.5,13.3,14.5z"/>
<path class="st0" d="M15.4,14.5c-0.6,0-1.2-0.2-1.6-0.7c-0.4-0.5-0.7-1.1-0.6-1.7c0-1,0.6-2.7,1.4-4.5c0.1-0.2,0.1-0.3,0.2-0.4
	c0-0.1,0-0.1,0-0.2c0-1,0.8-1.8,1.8-1.8c1,0,1.8,0.8,1.8,1.8c0,0.5-0.2,1-0.6,1.4c0,0.1,0,0.2-0.1,0.4L17.5,9c0.1,0,0.2,0,0.2,0.1
	c0.7,0.3,1.1,0.9,1.1,1.6c0,0.1,0,0.4-0.1,0.5c0,0,0,0.1-0.1,0.1C18.2,12.5,17.3,14.5,15.4,14.5z"/>
<path class="st0" d="M19.8,14.5c-0.8,0-1.5-0.4-1.9-1c-0.2,0.6-0.9,1-1.5,1c-0.1,0-0.3,0-0.4-0.1c0,0-0.1,0-0.1,0
	c-0.8-0.3-1.3-1.2-1-2.1c0.3-0.8,0.6-1.7,0.9-2.5c0.3-0.9,0.6-1.7,0.8-2.3c0.2-0.6,0.8-1.1,1.6-1.1c0.2,0,0.3,0,0.5,0.1
	c0.2-0.1,0.4-0.1,0.7-0.1c1.5,0,2.5,1,2.5,2.5c0,0,0,0.1,0,0.1c0.2,0,0.3,0.1,0.4,0.1c0.1,0,0.1,0,0.2,0.1c0.6,0.3,0.9,0.9,0.9,1.5
	c0,0.3-0.1,0.5-0.1,0.6c0,0,0,0.1-0.1,0.1C22.5,12.6,21.7,14.5,19.8,14.5z"/>
<path class="st0" d="M21.8,14.5c-1.3,0-2.2-1-2.2-2.3c0-0.9,0.6-2.4,0.7-2.8l0-0.1c-0.3-0.3-0.5-0.7-0.5-1.2c0-0.9,0.7-1.6,1.5-1.6
	c0.1-0.3,0.2-0.6,0.2-0.7c0.2-0.7,0.9-1.2,1.6-1.2c0.5,0,1.1,0.3,1.4,0.7c0.2,0.2,0.3,0.5,0.3,0.8c0,0.1,0,0.1,0,0.2
	c0,0.2,0,0.4-0.1,0.6C25,7.1,25.3,7.6,25.3,8c0,0.5-0.2,0.9-0.5,1.2c0.5,0.3,0.8,0.8,0.8,1.4c0,0.3-0.1,0.5-0.1,0.6
	c0,0,0,0.1-0.1,0.1C24.9,12.4,23.9,14.5,21.8,14.5z"/>
<path class="st0" d="M24.4,14.5c-1.4,0-2.4-1-2.4-2.5c0-1.2,0.4-2.4,1.1-3.7c1-1.6,2.1-1.8,2.8-1.8c1.5,0,2.5,1.1,2.5,2.6
	c0.5,0.1,0.9,0.3,1.1,0.7c0.3,0.5,0.4,1,0.1,1.6c-0.3,0.6-1.1,2.5-3,2.5c-0.2,0-0.3,0-0.5,0C25.7,14.2,25.1,14.5,24.4,14.5z"/>
<g>
	<g>
		<path class="st1" d="M29.9,13.1V6.9h3.4l0.4,1.3h-2.2v1.3h1.6v1.4h-1.6v2.1L29.9,13.1z"/>
		<path class="st1" d="M36.8,8.2C36.8,8.2,36.8,8.2,36.8,8.2c0.5,0,1,0.1,1.3,0.3C38.5,8.7,38.8,9,39,9.4c0.2,0.4,0.3,0.8,0.3,1.2v0
			c0,0.4-0.1,0.8-0.3,1.2c-0.2,0.4-0.5,0.6-0.8,0.9c-0.4,0.2-0.7,0.3-1.1,0.4c-0.1,0-0.1,0-0.2,0c-0.4,0-0.8-0.1-1.1-0.3
			c-0.4-0.2-0.7-0.5-1-0.8c-0.3-0.4-0.4-0.8-0.4-1.2c0,0,0-0.1,0-0.1c0-0.4,0.1-0.8,0.3-1.1c0.2-0.4,0.5-0.7,0.9-0.9
			C36,8.3,36.4,8.2,36.8,8.2z M36.9,9.5c-0.2,0-0.4,0.1-0.5,0.2c-0.2,0.1-0.3,0.2-0.4,0.4c-0.1,0.2-0.1,0.3-0.1,0.5
			c0,0.3,0.1,0.5,0.3,0.8c0.2,0.2,0.5,0.3,0.8,0.3c0.3,0,0.6-0.1,0.8-0.3c0.2-0.2,0.3-0.5,0.3-0.8c0-0.3-0.1-0.6-0.3-0.8
			C37.4,9.6,37.2,9.5,36.9,9.5C36.9,9.5,36.9,9.5,36.9,9.5z"/>
		<path class="st1" d="M41.7,11v1.9l-1.5,0.1V8.5l1.4-0.2V9c0.1-0.2,0.3-0.4,0.5-0.5c0.2-0.1,0.5-0.2,0.7-0.2c0.1,0,0.2,0,0.2,0
			c0.1,0,0.1,0,0.1,0l-0.5,1.4c0,0,0,0-0.1,0c0,0-0.1,0-0.2,0c-0.1,0-0.2,0-0.3,0c-0.2,0.1-0.3,0.2-0.4,0.3
			c-0.1,0.2-0.1,0.4-0.1,0.7C41.7,10.8,41.7,10.9,41.7,11z"/>
		<path class="st1" d="M46.2,8.2C46.2,8.2,46.2,8.2,46.2,8.2c0.5,0,1,0.1,1.3,0.3c0.4,0.2,0.7,0.5,0.9,0.9c0.2,0.4,0.3,0.8,0.3,1.2
			v0c0,0.4-0.1,0.8-0.3,1.2c-0.2,0.4-0.5,0.6-0.8,0.9c-0.4,0.2-0.7,0.3-1.1,0.4c-0.1,0-0.1,0-0.2,0c-0.4,0-0.8-0.1-1.1-0.3
			c-0.4-0.2-0.7-0.5-1-0.8c-0.3-0.4-0.4-0.8-0.4-1.2c0,0,0-0.1,0-0.1c0-0.4,0.1-0.8,0.3-1.1c0.2-0.4,0.5-0.7,0.9-0.9
			C45.4,8.3,45.8,8.2,46.2,8.2z M46.3,9.5c-0.2,0-0.4,0.1-0.5,0.2c-0.2,0.1-0.3,0.2-0.4,0.4c-0.1,0.2-0.1,0.3-0.1,0.5
			c0,0.3,0.1,0.5,0.3,0.8c0.2,0.2,0.5,0.3,0.8,0.3c0.3,0,0.6-0.1,0.8-0.3c0.2-0.2,0.3-0.5,0.3-0.8c0-0.3-0.1-0.6-0.3-0.8
			C46.8,9.6,46.6,9.5,46.3,9.5C46.3,9.5,46.3,9.5,46.3,9.5z"/>
		<path class="st2" d="M21.8,31.1v-6.2l1.5-0.2v6.2L21.8,31.1z"/>
		<path class="st2" d="M26.6,31.1C26.6,31.1,26.6,31.1,26.6,31.1c-0.5,0-0.8-0.1-1.2-0.3c-0.4-0.2-0.7-0.5-0.9-0.9
			c-0.2-0.4-0.3-0.8-0.3-1.2c0,0,0,0,0,0c0-0.4,0.1-0.8,0.3-1.2c0.2-0.4,0.5-0.7,0.8-0.9c0.3-0.2,0.7-0.3,1.2-0.3
			c0.5,0,1,0.2,1.3,0.5v-1.9l1.4-0.2V31l-1.4,0.1v-0.4c-0.1,0.1-0.2,0.2-0.4,0.3C27.2,31.1,26.9,31.1,26.6,31.1z M25.6,28.6
			c0,0,0,0.1,0,0.1c0,0.3,0.1,0.5,0.3,0.7c0.2,0.2,0.4,0.4,0.7,0.4c0,0,0.1,0,0.1,0c0.3,0,0.5-0.1,0.7-0.3c0.2-0.2,0.4-0.4,0.4-0.7
			c0,0,0-0.1,0-0.1c0-0.2,0-0.3-0.1-0.5c-0.1-0.2-0.2-0.4-0.4-0.5c-0.2-0.1-0.4-0.2-0.6-0.2c0,0,0,0,0,0c-0.3,0-0.5,0.1-0.8,0.3
			C25.8,28.1,25.7,28.3,25.6,28.6z"/>
		<path class="st2" d="M31.5,26.2l-1-0.8l0.9-0.9l1,0.7L31.5,26.2z M30.7,26.5l1.4-0.2v4.6L30.7,31V26.5z"/>
		<path class="st2" d="M35.8,26.2C35.8,26.2,35.8,26.2,35.8,26.2c0.5,0,1,0.1,1.3,0.3c0.4,0.2,0.7,0.5,0.9,0.9
			c0.2,0.4,0.3,0.8,0.3,1.2v0c0,0.4-0.1,0.8-0.3,1.2c-0.2,0.4-0.5,0.6-0.8,0.9c-0.4,0.2-0.7,0.3-1.1,0.4c-0.1,0-0.1,0-0.2,0
			c-0.4,0-0.8-0.1-1.1-0.3c-0.4-0.2-0.7-0.5-1-0.8c-0.3-0.4-0.4-0.8-0.4-1.2c0,0,0-0.1,0-0.1c0-0.4,0.1-0.8,0.3-1.1
			c0.2-0.4,0.5-0.7,0.9-0.9C34.9,26.4,35.3,26.2,35.8,26.2z M35.8,27.6c-0.2,0-0.4,0.1-0.5,0.2c-0.2,0.1-0.3,0.2-0.4,0.4
			c-0.1,0.2-0.1,0.3-0.1,0.5c0,0.3,0.1,0.5,0.3,0.8c0.2,0.2,0.5,0.3,0.8,0.3c0.3,0,0.6-0.1,0.8-0.3c0.2-0.2,0.3-0.5,0.3-0.8
			c0-0.3-0.1-0.6-0.3-0.8C36.4,27.7,36.2,27.6,35.8,27.6C35.8,27.6,35.8,27.6,35.8,27.6z"/>
		<path class="st2" d="M45.2,30.9L43.8,31v-2.8c0-0.2,0-0.4-0.1-0.5c-0.1-0.1-0.2-0.2-0.3-0.2c0,0-0.1,0-0.1,0
			c-0.2,0-0.3,0.1-0.4,0.2c-0.1,0.1-0.1,0.3-0.1,0.5c0,0.1,0,0.1,0,0.2v2.4L41.4,31v-2.7c0-0.5-0.1-0.8-0.4-0.8c0,0-0.1,0-0.1,0
			c-0.2,0-0.3,0.1-0.4,0.2c-0.1,0.1-0.1,0.4-0.1,0.7v2.5L39,31v-4.6l1.3-0.2v0.5c0,0,0-0.1,0.1-0.1c0.1-0.1,0.2-0.1,0.3-0.2
			c0.1-0.1,0.3-0.1,0.5-0.1c0,0,0.1,0,0.1,0c0.1,0,0.2,0,0.4,0.1c0.1,0.1,0.3,0.1,0.3,0.2c0.1,0.1,0.1,0.1,0.2,0.2
			c0.1,0.1,0.1,0.1,0.1,0.1c0.2-0.2,0.3-0.3,0.5-0.4c0.2-0.1,0.4-0.1,0.7-0.1c0,0,0,0,0,0c0.3,0,0.5,0.1,0.8,0.2
			c0.2,0.1,0.4,0.3,0.6,0.5c0.1,0.2,0.2,0.5,0.2,0.8V30.9z"/>
		<path class="st2" d="M50,27.8v3.1l-1.3,0.2v-0.4c0,0,0,0.1-0.1,0.1c-0.1,0.1-0.2,0.1-0.4,0.2c-0.2,0.1-0.3,0.1-0.5,0.1
			c0,0,0,0,0,0c-0.3,0-0.6-0.1-0.8-0.2c-0.3-0.1-0.5-0.3-0.6-0.6c-0.2-0.2-0.2-0.5-0.2-0.8c0-0.3,0.1-0.6,0.2-0.8
			c0.2-0.2,0.4-0.4,0.6-0.6C47,28,47.3,28,47.6,28c0,0,0.1,0,0.1,0c0.2,0,0.3,0,0.5,0.1c0.1,0.1,0.3,0.1,0.3,0.2l0.1,0.1
			c0-0.2,0-0.3,0-0.4c0-0.2-0.1-0.3-0.3-0.4c-0.1-0.1-0.3-0.1-0.6-0.1c0,0,0,0,0,0c-0.2,0-0.5,0.1-0.8,0.2c-0.3,0.1-0.5,0.2-0.5,0.2
			l0.3-1.3c0,0,0.1,0,0.3-0.1c0.2,0,0.4-0.1,0.6-0.1c0.2,0,0.4,0,0.5-0.1c0,0,0.1,0,0.1,0c0.3,0,0.6,0,0.8,0.1
			c0.3,0.1,0.5,0.3,0.7,0.5C49.9,27.2,50,27.4,50,27.8z M48.6,29.5c0-0.2-0.1-0.3-0.2-0.4c-0.1-0.1-0.3-0.2-0.5-0.2c0,0,0,0,0,0
			c-0.2,0-0.3,0.1-0.5,0.2c-0.1,0.1-0.2,0.2-0.2,0.4c0,0,0,0,0,0c0,0.2,0.1,0.3,0.2,0.4c0.1,0.1,0.3,0.2,0.5,0.2
			c0.2,0,0.3,0,0.5-0.1C48.6,29.9,48.6,29.7,48.6,29.5z"/>
		<path class="st2" d="M54.4,27l-0.9,0.8c0,0,0,0-0.1-0.1c0,0-0.1-0.1-0.1-0.1c0,0-0.1-0.1-0.2-0.1c-0.1,0-0.2-0.1-0.3-0.1
			c-0.1,0-0.3,0-0.4,0.1c-0.1,0.1-0.2,0.1-0.2,0.3c0,0,0,0,0,0c0,0.1,0.1,0.1,0.2,0.2s0.2,0.1,0.4,0.1c0.2,0,0.3,0.1,0.5,0.1
			c0.3,0.1,0.6,0.2,0.8,0.4c0.2,0.2,0.4,0.6,0.4,1c0,0,0,0,0,0c0,0.3-0.1,0.5-0.3,0.8c-0.2,0.2-0.4,0.4-0.7,0.5
			c-0.3,0.1-0.6,0.2-0.9,0.2c0,0-0.1,0-0.1,0c-0.4,0-0.8-0.1-1.2-0.3c-0.4-0.2-0.6-0.3-0.6-0.4l0.7-1c0.1,0.1,0.2,0.2,0.4,0.3
			c0.2,0.1,0.4,0.2,0.6,0.2c0,0,0,0,0,0c0.2,0,0.3,0,0.4-0.1c0.1-0.1,0.2-0.1,0.2-0.2c0,0,0,0,0,0c0-0.1-0.1-0.2-0.2-0.2
			c-0.1,0-0.3-0.1-0.5-0.1c-0.3-0.1-0.5-0.1-0.7-0.2c-0.6-0.3-0.8-0.7-0.8-1.3c0-0.3,0.1-0.5,0.2-0.8c0.2-0.2,0.4-0.4,0.6-0.5
			c0.3-0.1,0.5-0.2,0.8-0.2c0,0,0.1,0,0.1,0c0.4,0,0.7,0.1,1.1,0.3C54.2,26.8,54.4,26.9,54.4,27z"/>
		<g>
			<path class="st3" d="M4.9,22v-6.2l1.5-0.2v6.2L4.9,22z"/>
			<path class="st3" d="M10,22v-2.7c0-0.6-0.2-0.8-0.5-0.8c-0.4,0-0.5,0.3-0.5,0.8v2.6l-1.4,0.1v-4.6l1.3-0.2v0.5c0,0,0-0.1,0.1-0.1
				c0.1-0.1,0.2-0.2,0.4-0.2c0.2-0.1,0.4-0.1,0.6-0.1c0,0,0.1,0,0.1,0c0.4,0,0.7,0.1,1,0.4c0.3,0.3,0.4,0.6,0.4,1.1v3.2L10,22z"/>
			<path class="st3" d="M14.2,22.4l-2.3-4.8l1.4-0.3l0.9,2.1l0.9-2.1l1.4,0.3L14.2,22.4z"/>
			<path class="st3" d="M21.7,18.7l-2.9,1.8c0,0.1,0.1,0.1,0.3,0.2c0.1,0.1,0.3,0.1,0.5,0.1c0,0,0.1,0,0.1,0c0.2,0,0.3-0.1,0.5-0.1
				c0.2-0.1,0.3-0.1,0.4-0.2c0.1-0.1,0.2-0.1,0.2-0.1l0.7,1.1c-0.1,0.1-0.2,0.1-0.3,0.2c-0.2,0.1-0.4,0.2-0.7,0.3
				c-0.3,0.1-0.6,0.2-0.9,0.2c0,0,0,0,0,0c-0.4,0-0.9-0.1-1.2-0.3c-0.4-0.2-0.7-0.5-0.9-0.9c-0.2-0.4-0.3-0.8-0.3-1.2c0,0,0,0,0,0
				c0-0.4,0.1-0.8,0.3-1.1c0.2-0.4,0.4-0.6,0.8-0.9c0.3-0.2,0.7-0.4,1.1-0.4c0.1,0,0.2,0,0.3,0c0.3,0,0.5,0,0.8,0.1
				c0.3,0.1,0.6,0.3,0.8,0.5c0.2,0.2,0.3,0.4,0.4,0.5C21.6,18.5,21.7,18.6,21.7,18.7z M18.4,19.7l1.6-1c0,0-0.1-0.1-0.2-0.1
				c-0.1,0-0.2-0.1-0.4-0.1c-0.3,0-0.6,0.1-0.8,0.4C18.5,19.1,18.4,19.4,18.4,19.7z"/>
			<path class="st3" d="M26.1,18l-0.9,0.8c0,0,0,0-0.1-0.1c0,0-0.1-0.1-0.1-0.1c0,0-0.1-0.1-0.2-0.1c-0.1,0-0.2-0.1-0.3-0.1
				c-0.1,0-0.3,0-0.4,0.1C24,18.6,24,18.7,24,18.8c0,0,0,0,0,0c0,0.1,0.1,0.1,0.2,0.2c0.1,0.1,0.2,0.1,0.4,0.1
				c0.2,0,0.3,0.1,0.5,0.1c0.3,0.1,0.6,0.2,0.8,0.4c0.2,0.2,0.4,0.6,0.4,1c0,0,0,0,0,0c0,0.3-0.1,0.5-0.3,0.8
				c-0.2,0.2-0.4,0.4-0.7,0.5c-0.3,0.1-0.6,0.2-0.9,0.2c0,0-0.1,0-0.1,0c-0.4,0-0.8-0.1-1.2-0.3c-0.4-0.2-0.6-0.3-0.6-0.4l0.7-1
				c0.1,0.1,0.2,0.2,0.4,0.3c0.2,0.1,0.4,0.2,0.6,0.2c0,0,0,0,0,0c0.2,0,0.3,0,0.4-0.1c0.1-0.1,0.2-0.1,0.2-0.2c0,0,0,0,0,0
				c0-0.1-0.1-0.2-0.2-0.2c-0.1,0-0.3-0.1-0.5-0.1c-0.3-0.1-0.5-0.1-0.7-0.2c-0.6-0.3-0.8-0.7-0.8-1.3c0-0.3,0.1-0.5,0.2-0.8
				c0.2-0.2,0.4-0.4,0.6-0.5c0.3-0.1,0.5-0.2,0.8-0.2c0,0,0.1,0,0.1,0c0.4,0,0.7,0.1,1.1,0.3C25.8,17.8,26,17.9,26.1,18z"/>
			<path class="st3" d="M29.1,18.8V20c0,0.2,0,0.3,0.1,0.4c0,0.1,0.1,0.2,0.2,0.2c0.1,0,0.2,0.1,0.4,0.1c0.1,0,0.2,0,0.3,0
				c0.1,0,0.2,0,0.2,0L30,22.1c0,0-0.1,0-0.1,0c-0.1,0-0.1,0-0.2,0c-0.5,0-0.9-0.1-1.2-0.3c-0.5-0.3-0.8-0.8-0.8-1.4v-1.6h-0.8
				l0.4-1.3h0.4v-0.9l1.4-0.6v1.4h0.9v1.3H29.1z"/>
			<path class="st3" d="M32.2,17.1l-1-0.8l0.9-0.9l1,0.7L32.2,17.1z M31.5,17.5l1.4-0.2v4.6L31.5,22V17.5z"/>
			<path class="st3" d="M38.8,17.1l-0.3,1.1l-0.5,0c0.1,0.1,0.1,0.2,0.2,0.4c0.1,0.2,0.1,0.4,0.1,0.5c0,0,0,0,0,0.1
				c0,0.3-0.1,0.5-0.2,0.7c-0.1,0.2-0.2,0.3-0.4,0.4c-0.1,0.1-0.2,0.1-0.2,0.2c0,0,0.1,0.1,0.2,0.2c0.1,0.1,0.3,0.2,0.4,0.4
				c0.1,0.2,0.2,0.4,0.2,0.7c0,0.5-0.2,1-0.7,1.3c-0.5,0.3-1,0.5-1.6,0.5c-0.7,0-1.2-0.1-1.5-0.3c-0.3-0.2-0.5-0.4-0.6-0.5l0.8-0.9
				c0,0,0.1,0.1,0.2,0.2c0.1,0.1,0.3,0.2,0.4,0.3c0.2,0.1,0.3,0.1,0.5,0.1c0,0,0,0,0,0c0.7,0,1-0.3,1-0.7c0-0.3-0.1-0.4-0.3-0.6
				C36.5,21,36.3,21,36,21c0,0-0.1,0-0.1,0c-0.2,0-0.3,0-0.4,0c-0.2,0-0.3,0.1-0.4,0.1l-0.2,0.1l0.2-0.4c-0.2-0.1-0.4-0.2-0.6-0.5
				c-0.2-0.2-0.4-0.6-0.4-1.1c0,0,0,0,0,0c0-0.4,0.1-0.7,0.3-1c0.2-0.3,0.4-0.5,0.7-0.7c0.3-0.2,0.6-0.2,1-0.2c0,0,0.1,0,0.1,0
				c0.2,0,0.4,0,0.6,0c0.2,0,0.4,0,0.5,0.1C37.9,17.3,38.3,17.2,38.8,17.1z M36.2,18.4c-0.2,0-0.4,0.1-0.5,0.2
				c-0.1,0.1-0.2,0.3-0.2,0.5c0,0,0,0,0,0.1c0,0.2,0.1,0.4,0.2,0.5c0.1,0.2,0.3,0.3,0.5,0.3c0.2,0,0.3,0,0.5-0.1
				c0.1-0.1,0.2-0.2,0.3-0.3c0.1-0.1,0.1-0.3,0.1-0.4c0,0,0,0,0,0c0-0.2-0.1-0.4-0.3-0.6C36.6,18.5,36.4,18.4,36.2,18.4z"/>
			<path class="st3" d="M43.5,18.8v3.1l-1.3,0.2v-0.4c0,0,0,0.1-0.1,0.1c-0.1,0.1-0.2,0.1-0.4,0.2c-0.2,0.1-0.3,0.1-0.5,0.1
				c0,0,0,0,0,0c-0.3,0-0.6-0.1-0.8-0.2c-0.3-0.1-0.5-0.3-0.6-0.6c-0.2-0.2-0.2-0.5-0.2-0.8c0-0.3,0.1-0.6,0.2-0.8
				c0.2-0.2,0.4-0.4,0.6-0.6c0.2-0.1,0.5-0.2,0.8-0.2c0,0,0.1,0,0.1,0c0.2,0,0.3,0,0.5,0.1c0.1,0.1,0.3,0.1,0.3,0.2l0.1,0.1
				c0-0.2,0-0.3,0-0.4c0-0.2-0.1-0.3-0.3-0.4c-0.1-0.1-0.3-0.1-0.6-0.1c0,0,0,0,0,0c-0.2,0-0.5,0.1-0.8,0.2
				c-0.3,0.1-0.5,0.2-0.5,0.2l0.3-1.3c0,0,0.1,0,0.3-0.1c0.2,0,0.4-0.1,0.6-0.1c0.2,0,0.4,0,0.5-0.1c0,0,0.1,0,0.1,0
				c0.3,0,0.6,0,0.8,0.1c0.3,0.1,0.5,0.3,0.7,0.5C43.4,18.1,43.5,18.4,43.5,18.8z M42.1,20.5c0-0.2-0.1-0.3-0.2-0.4
				c-0.1-0.1-0.3-0.2-0.5-0.2c0,0,0,0,0,0c-0.2,0-0.3,0.1-0.5,0.2c-0.1,0.1-0.2,0.2-0.2,0.4c0,0,0,0,0,0c0,0.2,0.1,0.3,0.2,0.4
				c0.1,0.1,0.3,0.2,0.5,0.2c0.2,0,0.3,0,0.5-0.1C42,20.8,42.1,20.7,42.1,20.5z"/>
			<path class="st3" d="M48.4,17.8l-0.8,1c0,0,0,0-0.1-0.1c0,0-0.1-0.1-0.2-0.1c-0.1,0-0.2-0.1-0.3-0.1c-0.1,0-0.2,0-0.3,0
				c0,0,0,0,0,0c-0.3,0-0.6,0.1-0.8,0.4c-0.2,0.2-0.3,0.5-0.3,0.8c0,0,0,0.1,0,0.1c0,0.3,0.1,0.6,0.3,0.8c0.2,0.2,0.4,0.3,0.7,0.3
				c0.2,0,0.3,0,0.5-0.1c0.1,0,0.2-0.1,0.3-0.2c0.1-0.1,0.1-0.1,0.1-0.1l0.8,1c-0.1,0.1-0.3,0.2-0.6,0.4c-0.3,0.1-0.6,0.2-1,0.2
				c0,0,0,0,0,0c-0.5,0-0.9-0.1-1.3-0.3c-0.4-0.2-0.7-0.5-0.9-0.9c-0.2-0.4-0.3-0.8-0.3-1.2c0-0.4,0.1-0.8,0.3-1.2
				c0.2-0.4,0.5-0.7,0.9-0.9c0.4-0.2,0.8-0.3,1.3-0.3c0.5,0,0.9,0.1,1.1,0.2C48.1,17.6,48.3,17.7,48.4,17.8z"/>
			<path class="st3" d="M50.4,17.1l-1-0.8l0.9-0.9l1,0.7L50.4,17.1z M49.6,17.5l1.4-0.2v4.6L49.6,22V17.5z"/>
			<path class="st3" d="M54.7,17.2C54.7,17.2,54.7,17.2,54.7,17.2c0.5,0,1,0.1,1.3,0.3c0.4,0.2,0.7,0.5,0.9,0.9
				c0.2,0.4,0.3,0.8,0.3,1.2v0c0,0.4-0.1,0.8-0.3,1.2c-0.2,0.4-0.5,0.6-0.8,0.9c-0.4,0.2-0.7,0.3-1.1,0.4c-0.1,0-0.1,0-0.2,0
				c-0.4,0-0.8-0.1-1.1-0.3c-0.4-0.2-0.7-0.5-1-0.8c-0.3-0.4-0.4-0.8-0.4-1.2c0,0,0-0.1,0-0.1c0-0.4,0.1-0.8,0.3-1.1
				c0.2-0.4,0.5-0.7,0.9-0.9C53.8,17.4,54.2,17.2,54.7,17.2z M54.7,18.5c-0.2,0-0.4,0.1-0.5,0.2c-0.2,0.1-0.3,0.2-0.4,0.4
				c-0.1,0.2-0.1,0.3-0.1,0.5c0,0.3,0.1,0.5,0.3,0.8c0.2,0.2,0.5,0.3,0.8,0.3c0.3,0,0.6-0.1,0.8-0.3c0.2-0.2,0.3-0.5,0.3-0.8
				c0-0.3-0.1-0.6-0.3-0.8C55.3,18.6,55,18.5,54.7,18.5C54.7,18.5,54.7,18.5,54.7,18.5z"/>
			<path class="st3" d="M60.4,22v-2.7c0-0.6-0.2-0.8-0.5-0.8c-0.4,0-0.5,0.3-0.5,0.8v2.6l-1.4,0.1v-4.6l1.3-0.2v0.5
				c0,0,0-0.1,0.1-0.1c0.1-0.1,0.2-0.2,0.4-0.2c0.2-0.1,0.4-0.1,0.6-0.1c0,0,0.1,0,0.1,0c0.4,0,0.7,0.1,1,0.4
				c0.3,0.3,0.4,0.6,0.4,1.1v3.2L60.4,22z"/>
			<polygon class="st3" points="54.4,17.1 55.7,15.4 56.7,15.6 			"/>
		</g>
	</g>
</g>
<g>
	<g>
		<g>
			<path class="st1" d="M29.9,13.1V6.9h3.4l0.4,1.3h-2.2v1.3h1.6v1.4h-1.6v2.1L29.9,13.1z"/>
			<path class="st1" d="M36.8,8.2C36.8,8.2,36.8,8.2,36.8,8.2c0.5,0,1,0.1,1.3,0.3C38.5,8.7,38.8,9,39,9.4c0.2,0.4,0.3,0.8,0.3,1.2
				v0c0,0.4-0.1,0.8-0.3,1.2c-0.2,0.4-0.5,0.6-0.8,0.9c-0.4,0.2-0.7,0.3-1.1,0.4c-0.1,0-0.1,0-0.2,0c-0.4,0-0.8-0.1-1.1-0.3
				c-0.4-0.2-0.7-0.5-1-0.8c-0.3-0.4-0.4-0.8-0.4-1.2c0,0,0-0.1,0-0.1c0-0.4,0.1-0.8,0.3-1.1c0.2-0.4,0.5-0.7,0.9-0.9
				C36,8.3,36.4,8.2,36.8,8.2z M36.9,9.5c-0.2,0-0.4,0.1-0.5,0.2c-0.2,0.1-0.3,0.2-0.4,0.4c-0.1,0.2-0.1,0.3-0.1,0.5
				c0,0.3,0.1,0.5,0.3,0.8c0.2,0.2,0.5,0.3,0.8,0.3c0.3,0,0.6-0.1,0.8-0.3c0.2-0.2,0.3-0.5,0.3-0.8c0-0.3-0.1-0.6-0.3-0.8
				C37.4,9.6,37.2,9.5,36.9,9.5C36.9,9.5,36.9,9.5,36.9,9.5z"/>
			<path class="st1" d="M41.7,11v1.9l-1.5,0.1V8.5l1.4-0.2V9c0.1-0.2,0.3-0.4,0.5-0.5c0.2-0.1,0.5-0.2,0.7-0.2c0.1,0,0.2,0,0.2,0
				c0.1,0,0.1,0,0.1,0l-0.5,1.4c0,0,0,0-0.1,0c0,0-0.1,0-0.2,0c-0.1,0-0.2,0-0.3,0c-0.2,0.1-0.3,0.2-0.4,0.3
				c-0.1,0.2-0.1,0.4-0.1,0.7C41.7,10.8,41.7,10.9,41.7,11z"/>
			<path class="st1" d="M46.2,8.2C46.2,8.2,46.2,8.2,46.2,8.2c0.5,0,1,0.1,1.3,0.3c0.4,0.2,0.7,0.5,0.9,0.9c0.2,0.4,0.3,0.8,0.3,1.2
				v0c0,0.4-0.1,0.8-0.3,1.2c-0.2,0.4-0.5,0.6-0.8,0.9c-0.4,0.2-0.7,0.3-1.1,0.4c-0.1,0-0.1,0-0.2,0c-0.4,0-0.8-0.1-1.1-0.3
				c-0.4-0.2-0.7-0.5-1-0.8c-0.3-0.4-0.4-0.8-0.4-1.2c0,0,0-0.1,0-0.1c0-0.4,0.1-0.8,0.3-1.1c0.2-0.4,0.5-0.7,0.9-0.9
				C45.4,8.3,45.8,8.2,46.2,8.2z M46.3,9.5c-0.2,0-0.4,0.1-0.5,0.2c-0.2,0.1-0.3,0.2-0.4,0.4c-0.1,0.2-0.1,0.3-0.1,0.5
				c0,0.3,0.1,0.5,0.3,0.8c0.2,0.2,0.5,0.3,0.8,0.3c0.3,0,0.6-0.1,0.8-0.3c0.2-0.2,0.3-0.5,0.3-0.8c0-0.3-0.1-0.6-0.3-0.8
				C46.8,9.6,46.6,9.5,46.3,9.5C46.3,9.5,46.3,9.5,46.3,9.5z"/>
			<path class="st2" d="M21.8,31.1v-6.2l1.5-0.2v6.2L21.8,31.1z"/>
			<path class="st2" d="M26.6,31.1C26.6,31.1,26.6,31.1,26.6,31.1c-0.5,0-0.8-0.1-1.2-0.3c-0.4-0.2-0.7-0.5-0.9-0.9
				c-0.2-0.4-0.3-0.8-0.3-1.2c0,0,0,0,0,0c0-0.4,0.1-0.8,0.3-1.2c0.2-0.4,0.5-0.7,0.8-0.9c0.3-0.2,0.7-0.3,1.2-0.3
				c0.5,0,1,0.2,1.3,0.5v-1.9l1.4-0.2V31l-1.4,0.1v-0.4c-0.1,0.1-0.2,0.2-0.4,0.3C27.2,31.1,26.9,31.1,26.6,31.1z M25.6,28.6
				c0,0,0,0.1,0,0.1c0,0.3,0.1,0.5,0.3,0.7c0.2,0.2,0.4,0.4,0.7,0.4c0,0,0.1,0,0.1,0c0.3,0,0.5-0.1,0.7-0.3c0.2-0.2,0.4-0.4,0.4-0.7
				c0,0,0-0.1,0-0.1c0-0.2,0-0.3-0.1-0.5c-0.1-0.2-0.2-0.4-0.4-0.5c-0.2-0.1-0.4-0.2-0.6-0.2c0,0,0,0,0,0c-0.3,0-0.5,0.1-0.8,0.3
				C25.8,28.1,25.7,28.3,25.6,28.6z"/>
			<path class="st2" d="M31.5,26.2l-1-0.8l0.9-0.9l1,0.7L31.5,26.2z M30.7,26.5l1.4-0.2v4.6L30.7,31V26.5z"/>
			<path class="st2" d="M35.8,26.2C35.8,26.2,35.8,26.2,35.8,26.2c0.5,0,1,0.1,1.3,0.3c0.4,0.2,0.7,0.5,0.9,0.9
				c0.2,0.4,0.3,0.8,0.3,1.2v0c0,0.4-0.1,0.8-0.3,1.2c-0.2,0.4-0.5,0.6-0.8,0.9c-0.4,0.2-0.7,0.3-1.1,0.4c-0.1,0-0.1,0-0.2,0
				c-0.4,0-0.8-0.1-1.1-0.3c-0.4-0.2-0.7-0.5-1-0.8c-0.3-0.4-0.4-0.8-0.4-1.2c0,0,0-0.1,0-0.1c0-0.4,0.1-0.8,0.3-1.1
				c0.2-0.4,0.5-0.7,0.9-0.9C34.9,26.4,35.3,26.2,35.8,26.2z M35.8,27.6c-0.2,0-0.4,0.1-0.5,0.2c-0.2,0.1-0.3,0.2-0.4,0.4
				c-0.1,0.2-0.1,0.3-0.1,0.5c0,0.3,0.1,0.5,0.3,0.8c0.2,0.2,0.5,0.3,0.8,0.3c0.3,0,0.6-0.1,0.8-0.3c0.2-0.2,0.3-0.5,0.3-0.8
				c0-0.3-0.1-0.6-0.3-0.8C36.4,27.7,36.2,27.6,35.8,27.6C35.8,27.6,35.8,27.6,35.8,27.6z"/>
			<path class="st2" d="M45.2,30.9L43.8,31v-2.8c0-0.2,0-0.4-0.1-0.5c-0.1-0.1-0.2-0.2-0.3-0.2c0,0-0.1,0-0.1,0
				c-0.2,0-0.3,0.1-0.4,0.2c-0.1,0.1-0.1,0.3-0.1,0.5c0,0.1,0,0.1,0,0.2v2.4L41.4,31v-2.7c0-0.5-0.1-0.8-0.4-0.8c0,0-0.1,0-0.1,0
				c-0.2,0-0.3,0.1-0.4,0.2c-0.1,0.1-0.1,0.4-0.1,0.7v2.5L39,31v-4.6l1.3-0.2v0.5c0,0,0-0.1,0.1-0.1c0.1-0.1,0.2-0.1,0.3-0.2
				c0.1-0.1,0.3-0.1,0.5-0.1c0,0,0.1,0,0.1,0c0.1,0,0.2,0,0.4,0.1c0.1,0.1,0.3,0.1,0.3,0.2c0.1,0.1,0.1,0.1,0.2,0.2
				c0.1,0.1,0.1,0.1,0.1,0.1c0.2-0.2,0.3-0.3,0.5-0.4c0.2-0.1,0.4-0.1,0.7-0.1c0,0,0,0,0,0c0.3,0,0.5,0.1,0.8,0.2
				c0.2,0.1,0.4,0.3,0.6,0.5c0.1,0.2,0.2,0.5,0.2,0.8V30.9z"/>
			<path class="st2" d="M50,27.8v3.1l-1.3,0.2v-0.4c0,0,0,0.1-0.1,0.1c-0.1,0.1-0.2,0.1-0.4,0.2c-0.2,0.1-0.3,0.1-0.5,0.1
				c0,0,0,0,0,0c-0.3,0-0.6-0.1-0.8-0.2c-0.3-0.1-0.5-0.3-0.6-0.6c-0.2-0.2-0.2-0.5-0.2-0.8c0-0.3,0.1-0.6,0.2-0.8
				c0.2-0.2,0.4-0.4,0.6-0.6C47,28,47.3,28,47.6,28c0,0,0.1,0,0.1,0c0.2,0,0.3,0,0.5,0.1c0.1,0.1,0.3,0.1,0.3,0.2l0.1,0.1
				c0-0.2,0-0.3,0-0.4c0-0.2-0.1-0.3-0.3-0.4c-0.1-0.1-0.3-0.1-0.6-0.1c0,0,0,0,0,0c-0.2,0-0.5,0.1-0.8,0.2
				c-0.3,0.1-0.5,0.2-0.5,0.2l0.3-1.3c0,0,0.1,0,0.3-0.1c0.2,0,0.4-0.1,0.6-0.1c0.2,0,0.4,0,0.5-0.1c0,0,0.1,0,0.1,0
				c0.3,0,0.6,0,0.8,0.1c0.3,0.1,0.5,0.3,0.7,0.5C49.9,27.2,50,27.4,50,27.8z M48.6,29.5c0-0.2-0.1-0.3-0.2-0.4
				c-0.1-0.1-0.3-0.2-0.5-0.2c0,0,0,0,0,0c-0.2,0-0.3,0.1-0.5,0.2c-0.1,0.1-0.2,0.2-0.2,0.4c0,0,0,0,0,0c0,0.2,0.1,0.3,0.2,0.4
				c0.1,0.1,0.3,0.2,0.5,0.2c0.2,0,0.3,0,0.5-0.1C48.6,29.9,48.6,29.7,48.6,29.5z"/>
			<path class="st2" d="M54.4,27l-0.9,0.8c0,0,0,0-0.1-0.1c0,0-0.1-0.1-0.1-0.1c0,0-0.1-0.1-0.2-0.1c-0.1,0-0.2-0.1-0.3-0.1
				c-0.1,0-0.3,0-0.4,0.1c-0.1,0.1-0.2,0.1-0.2,0.3c0,0,0,0,0,0c0,0.1,0.1,0.1,0.2,0.2s0.2,0.1,0.4,0.1c0.2,0,0.3,0.1,0.5,0.1
				c0.3,0.1,0.6,0.2,0.8,0.4c0.2,0.2,0.4,0.6,0.4,1c0,0,0,0,0,0c0,0.3-0.1,0.5-0.3,0.8c-0.2,0.2-0.4,0.4-0.7,0.5
				c-0.3,0.1-0.6,0.2-0.9,0.2c0,0-0.1,0-0.1,0c-0.4,0-0.8-0.1-1.2-0.3c-0.4-0.2-0.6-0.3-0.6-0.4l0.7-1c0.1,0.1,0.2,0.2,0.4,0.3
				c0.2,0.1,0.4,0.2,0.6,0.2c0,0,0,0,0,0c0.2,0,0.3,0,0.4-0.1c0.1-0.1,0.2-0.1,0.2-0.2c0,0,0,0,0,0c0-0.1-0.1-0.2-0.2-0.2
				c-0.1,0-0.3-0.1-0.5-0.1c-0.3-0.1-0.5-0.1-0.7-0.2c-0.6-0.3-0.8-0.7-0.8-1.3c0-0.3,0.1-0.5,0.2-0.8c0.2-0.2,0.4-0.4,0.6-0.5
				c0.3-0.1,0.5-0.2,0.8-0.2c0,0,0.1,0,0.1,0c0.4,0,0.7,0.1,1.1,0.3C54.2,26.8,54.4,26.9,54.4,27z"/>
			<g>
				<path class="st3" d="M4.9,22v-6.2l1.5-0.2v6.2L4.9,22z"/>
				<path class="st3" d="M10,22v-2.7c0-0.6-0.2-0.8-0.5-0.8c-0.4,0-0.5,0.3-0.5,0.8v2.6l-1.4,0.1v-4.6l1.3-0.2v0.5
					c0,0,0-0.1,0.1-0.1c0.1-0.1,0.2-0.2,0.4-0.2c0.2-0.1,0.4-0.1,0.6-0.1c0,0,0.1,0,0.1,0c0.4,0,0.7,0.1,1,0.4
					c0.3,0.3,0.4,0.6,0.4,1.1v3.2L10,22z"/>
				<path class="st3" d="M14.2,22.4l-2.3-4.8l1.4-0.3l0.9,2.1l0.9-2.1l1.4,0.3L14.2,22.4z"/>
				<path class="st3" d="M21.7,18.7l-2.9,1.8c0,0.1,0.1,0.1,0.3,0.2c0.1,0.1,0.3,0.1,0.5,0.1c0,0,0.1,0,0.1,0c0.2,0,0.3-0.1,0.5-0.1
					c0.2-0.1,0.3-0.1,0.4-0.2c0.1-0.1,0.2-0.1,0.2-0.1l0.7,1.1c-0.1,0.1-0.2,0.1-0.3,0.2c-0.2,0.1-0.4,0.2-0.7,0.3
					c-0.3,0.1-0.6,0.2-0.9,0.2c0,0,0,0,0,0c-0.4,0-0.9-0.1-1.2-0.3c-0.4-0.2-0.7-0.5-0.9-0.9c-0.2-0.4-0.3-0.8-0.3-1.2c0,0,0,0,0,0
					c0-0.4,0.1-0.8,0.3-1.1c0.2-0.4,0.4-0.6,0.8-0.9c0.3-0.2,0.7-0.4,1.1-0.4c0.1,0,0.2,0,0.3,0c0.3,0,0.5,0,0.8,0.1
					c0.3,0.1,0.6,0.3,0.8,0.5c0.2,0.2,0.3,0.4,0.4,0.5C21.6,18.5,21.7,18.6,21.7,18.7z M18.4,19.7l1.6-1c0,0-0.1-0.1-0.2-0.1
					c-0.1,0-0.2-0.1-0.4-0.1c-0.3,0-0.6,0.1-0.8,0.4C18.5,19.1,18.4,19.4,18.4,19.7z"/>
				<path class="st3" d="M26.1,18l-0.9,0.8c0,0,0,0-0.1-0.1c0,0-0.1-0.1-0.1-0.1c0,0-0.1-0.1-0.2-0.1c-0.1,0-0.2-0.1-0.3-0.1
					c-0.1,0-0.3,0-0.4,0.1C24,18.6,24,18.7,24,18.8c0,0,0,0,0,0c0,0.1,0.1,0.1,0.2,0.2c0.1,0.1,0.2,0.1,0.4,0.1
					c0.2,0,0.3,0.1,0.5,0.1c0.3,0.1,0.6,0.2,0.8,0.4c0.2,0.2,0.4,0.6,0.4,1c0,0,0,0,0,0c0,0.3-0.1,0.5-0.3,0.8
					c-0.2,0.2-0.4,0.4-0.7,0.5c-0.3,0.1-0.6,0.2-0.9,0.2c0,0-0.1,0-0.1,0c-0.4,0-0.8-0.1-1.2-0.3c-0.4-0.2-0.6-0.3-0.6-0.4l0.7-1
					c0.1,0.1,0.2,0.2,0.4,0.3c0.2,0.1,0.4,0.2,0.6,0.2c0,0,0,0,0,0c0.2,0,0.3,0,0.4-0.1c0.1-0.1,0.2-0.1,0.2-0.2c0,0,0,0,0,0
					c0-0.1-0.1-0.2-0.2-0.2c-0.1,0-0.3-0.1-0.5-0.1c-0.3-0.1-0.5-0.1-0.7-0.2c-0.6-0.3-0.8-0.7-0.8-1.3c0-0.3,0.1-0.5,0.2-0.8
					c0.2-0.2,0.4-0.4,0.6-0.5c0.3-0.1,0.5-0.2,0.8-0.2c0,0,0.1,0,0.1,0c0.4,0,0.7,0.1,1.1,0.3C25.8,17.8,26,17.9,26.1,18z"/>
				<path class="st3" d="M29.1,18.8V20c0,0.2,0,0.3,0.1,0.4c0,0.1,0.1,0.2,0.2,0.2c0.1,0,0.2,0.1,0.4,0.1c0.1,0,0.2,0,0.3,0
					c0.1,0,0.2,0,0.2,0L30,22.1c0,0-0.1,0-0.1,0c-0.1,0-0.1,0-0.2,0c-0.5,0-0.9-0.1-1.2-0.3c-0.5-0.3-0.8-0.8-0.8-1.4v-1.6h-0.8
					l0.4-1.3h0.4v-0.9l1.4-0.6v1.4h0.9v1.3H29.1z"/>
				<path class="st3" d="M32.2,17.1l-1-0.8l0.9-0.9l1,0.7L32.2,17.1z M31.5,17.5l1.4-0.2v4.6L31.5,22V17.5z"/>
				<path class="st3" d="M38.8,17.1l-0.3,1.1l-0.5,0c0.1,0.1,0.1,0.2,0.2,0.4c0.1,0.2,0.1,0.4,0.1,0.5c0,0,0,0,0,0.1
					c0,0.3-0.1,0.5-0.2,0.7c-0.1,0.2-0.2,0.3-0.4,0.4c-0.1,0.1-0.2,0.1-0.2,0.2c0,0,0.1,0.1,0.2,0.2c0.1,0.1,0.3,0.2,0.4,0.4
					c0.1,0.2,0.2,0.4,0.2,0.7c0,0.5-0.2,1-0.7,1.3c-0.5,0.3-1,0.5-1.6,0.5c-0.7,0-1.2-0.1-1.5-0.3c-0.3-0.2-0.5-0.4-0.6-0.5l0.8-0.9
					c0,0,0.1,0.1,0.2,0.2c0.1,0.1,0.3,0.2,0.4,0.3c0.2,0.1,0.3,0.1,0.5,0.1c0,0,0,0,0,0c0.7,0,1-0.3,1-0.7c0-0.3-0.1-0.4-0.3-0.6
					C36.5,21,36.3,21,36,21c0,0-0.1,0-0.1,0c-0.2,0-0.3,0-0.4,0c-0.2,0-0.3,0.1-0.4,0.1l-0.2,0.1l0.2-0.4c-0.2-0.1-0.4-0.2-0.6-0.5
					c-0.2-0.2-0.4-0.6-0.4-1.1c0,0,0,0,0,0c0-0.4,0.1-0.7,0.3-1c0.2-0.3,0.4-0.5,0.7-0.7c0.3-0.2,0.6-0.2,1-0.2c0,0,0.1,0,0.1,0
					c0.2,0,0.4,0,0.6,0c0.2,0,0.4,0,0.5,0.1C37.9,17.3,38.3,17.2,38.8,17.1z M36.2,18.4c-0.2,0-0.4,0.1-0.5,0.2
					c-0.1,0.1-0.2,0.3-0.2,0.5c0,0,0,0,0,0.1c0,0.2,0.1,0.4,0.2,0.5c0.1,0.2,0.3,0.3,0.5,0.3c0.2,0,0.3,0,0.5-0.1
					c0.1-0.1,0.2-0.2,0.3-0.3c0.1-0.1,0.1-0.3,0.1-0.4c0,0,0,0,0,0c0-0.2-0.1-0.4-0.3-0.6C36.6,18.5,36.4,18.4,36.2,18.4z"/>
				<path class="st3" d="M43.5,18.8v3.1l-1.3,0.2v-0.4c0,0,0,0.1-0.1,0.1c-0.1,0.1-0.2,0.1-0.4,0.2c-0.2,0.1-0.3,0.1-0.5,0.1
					c0,0,0,0,0,0c-0.3,0-0.6-0.1-0.8-0.2c-0.3-0.1-0.5-0.3-0.6-0.6c-0.2-0.2-0.2-0.5-0.2-0.8c0-0.3,0.1-0.6,0.2-0.8
					c0.2-0.2,0.4-0.4,0.6-0.6c0.2-0.1,0.5-0.2,0.8-0.2c0,0,0.1,0,0.1,0c0.2,0,0.3,0,0.5,0.1c0.1,0.1,0.3,0.1,0.3,0.2l0.1,0.1
					c0-0.2,0-0.3,0-0.4c0-0.2-0.1-0.3-0.3-0.4c-0.1-0.1-0.3-0.1-0.6-0.1c0,0,0,0,0,0c-0.2,0-0.5,0.1-0.8,0.2
					c-0.3,0.1-0.5,0.2-0.5,0.2l0.3-1.3c0,0,0.1,0,0.3-0.1c0.2,0,0.4-0.1,0.6-0.1c0.2,0,0.4,0,0.5-0.1c0,0,0.1,0,0.1,0
					c0.3,0,0.6,0,0.8,0.1c0.3,0.1,0.5,0.3,0.7,0.5C43.4,18.1,43.5,18.4,43.5,18.8z M42.1,20.5c0-0.2-0.1-0.3-0.2-0.4
					c-0.1-0.1-0.3-0.2-0.5-0.2c0,0,0,0,0,0c-0.2,0-0.3,0.1-0.5,0.2c-0.1,0.1-0.2,0.2-0.2,0.4c0,0,0,0,0,0c0,0.2,0.1,0.3,0.2,0.4
					c0.1,0.1,0.3,0.2,0.5,0.2c0.2,0,0.3,0,0.5-0.1C42,20.8,42.1,20.7,42.1,20.5z"/>
				<path class="st3" d="M48.4,17.8l-0.8,1c0,0,0,0-0.1-0.1c0,0-0.1-0.1-0.2-0.1c-0.1,0-0.2-0.1-0.3-0.1c-0.1,0-0.2,0-0.3,0
					c0,0,0,0,0,0c-0.3,0-0.6,0.1-0.8,0.4c-0.2,0.2-0.3,0.5-0.3,0.8c0,0,0,0.1,0,0.1c0,0.3,0.1,0.6,0.3,0.8c0.2,0.2,0.4,0.3,0.7,0.3
					c0.2,0,0.3,0,0.5-0.1c0.1,0,0.2-0.1,0.3-0.2c0.1-0.1,0.1-0.1,0.1-0.1l0.8,1c-0.1,0.1-0.3,0.2-0.6,0.4c-0.3,0.1-0.6,0.2-1,0.2
					c0,0,0,0,0,0c-0.5,0-0.9-0.1-1.3-0.3c-0.4-0.2-0.7-0.5-0.9-0.9c-0.2-0.4-0.3-0.8-0.3-1.2c0-0.4,0.1-0.8,0.3-1.2
					c0.2-0.4,0.5-0.7,0.9-0.9c0.4-0.2,0.8-0.3,1.3-0.3c0.5,0,0.9,0.1,1.1,0.2C48.1,17.6,48.3,17.7,48.4,17.8z"/>
				<path class="st3" d="M50.4,17.1l-1-0.8l0.9-0.9l1,0.7L50.4,17.1z M49.6,17.5l1.4-0.2v4.6L49.6,22V17.5z"/>
				<path class="st3" d="M54.7,17.2C54.7,17.2,54.7,17.2,54.7,17.2c0.5,0,1,0.1,1.3,0.3c0.4,0.2,0.7,0.5,0.9,0.9
					c0.2,0.4,0.3,0.8,0.3,1.2v0c0,0.4-0.1,0.8-0.3,1.2c-0.2,0.4-0.5,0.6-0.8,0.9c-0.4,0.2-0.7,0.3-1.1,0.4c-0.1,0-0.1,0-0.2,0
					c-0.4,0-0.8-0.1-1.1-0.3c-0.4-0.2-0.7-0.5-1-0.8c-0.3-0.4-0.4-0.8-0.4-1.2c0,0,0-0.1,0-0.1c0-0.4,0.1-0.8,0.3-1.1
					c0.2-0.4,0.5-0.7,0.9-0.9C53.8,17.4,54.2,17.2,54.7,17.2z M54.7,18.5c-0.2,0-0.4,0.1-0.5,0.2c-0.2,0.1-0.3,0.2-0.4,0.4
					c-0.1,0.2-0.1,0.3-0.1,0.5c0,0.3,0.1,0.5,0.3,0.8c0.2,0.2,0.5,0.3,0.8,0.3c0.3,0,0.6-0.1,0.8-0.3c0.2-0.2,0.3-0.5,0.3-0.8
					c0-0.3-0.1-0.6-0.3-0.8C55.3,18.6,55,18.5,54.7,18.5C54.7,18.5,54.7,18.5,54.7,18.5z"/>
				<path class="st3" d="M60.4,22v-2.7c0-0.6-0.2-0.8-0.5-0.8c-0.4,0-0.5,0.3-0.5,0.8v2.6l-1.4,0.1v-4.6l1.3-0.2v0.5
					c0,0,0-0.1,0.1-0.1c0.1-0.1,0.2-0.2,0.4-0.2c0.2-0.1,0.4-0.1,0.6-0.1c0,0,0.1,0,0.1,0c0.4,0,0.7,0.1,1,0.4
					c0.3,0.3,0.4,0.6,0.4,1.1v3.2L60.4,22z"/>
				<polygon class="st3" points="54.4,17.1 55.7,15.4 56.7,15.6 				"/>
			</g>
		</g>
		<g>
			<path class="st4" d="M13.1,14.5c-0.3,0.6-1,0.9-1.7,0.9c-1.1,0-2-0.9-2.8-1.7c-0.3-0.3-0.5-0.5-0.7-0.7c-0.5,0.4-1,0.6-1.6,0.6
				c-1.3,0-1.8-0.9-1.8-2.3c0-1,0.3-2.2,0.7-3.1c-0.2,0-0.3,0-0.6,0c-1.2,0-2-0.6-2-1.6c0-0.6,0.2-0.9,0.6-1.3c0,0,0.1-0.1,0.2-0.1
				c0.1,0,0.1,0,0.2,0.1c0,0,0.1,0.1,0.1,0.2c0,0.1,0,0.1-0.1,0.2c-0.3,0.3-0.5,0.6-0.5,1c0,0.8,0.7,1.1,1.6,1.1
				c0.4,0,0.6,0,0.9-0.1C6,6.4,6.8,5.4,7.9,5.4c0.3,0,0.5,0.2,0.5,0.5c0,0.9-1.6,1.8-2.7,2.1C5.2,9,5,10.2,5,11.2
				C5,12.3,5.3,13,6.3,13c0.4,0,0.8-0.2,1.2-0.4c-0.3-0.2-0.6-0.3-0.8-0.3c-0.2,0-0.4,0.1-0.5,0.2c0,0-0.1,0.1-0.2,0.1
				c-0.1,0-0.2-0.1-0.2-0.2c0-0.1,0-0.1,0.1-0.2c0.2-0.2,0.5-0.3,0.8-0.3c0.4,0,0.8,0.2,1.2,0.4L8,12.2c1.2-1.2,2.1-3.6,2.1-5.3
				c0-1-0.3-1.7-1.2-1.7c-0.2,0-0.5,0.1-0.7,0.1C8.1,5.3,8,5.1,8,5.1c0-0.3,0.4-0.4,0.9-0.4c1.2,0,1.7,0.9,1.7,2.2
				c0,1.8-1,4.4-2.2,5.6l-0.1,0.1c0.2,0.2,0.5,0.5,0.7,0.7c0.7,0.8,1.5,1.6,2.4,1.6c0.5,0,1.1-0.2,1.2-0.6c0-0.1,0.1-0.1,0.2-0.1
				C13,14.2,13.1,14.3,13.1,14.5C13.1,14.4,13.1,14.5,13.1,14.5z M8,6c0-0.1-0.1-0.1-0.2-0.1C7.1,5.9,6.5,6.7,6,7.4
				C6.9,7.1,8,6.4,8,6z"/>
			<path class="st4" d="M15.4,10.6C15.4,10.7,15.4,10.7,15.4,10.6c-0.7,1.7-1.3,2.4-2,2.4c-0.5,0-0.7-0.3-0.8-0.8
				c-0.3,0.5-0.8,0.8-1.3,0.8h0c-0.7,0-1.1-0.4-1.1-1.2c0-0.6,0.3-1.2,1.3-4c0-0.1,0.1-0.1,0.2-0.1c0.2,0,0.3,0.2,0.2,0.3
				c-1.2,3.1-1.3,3.4-1.3,3.8c0,0.5,0.2,0.7,0.6,0.7c0.5,0,0.9-0.4,1.3-1.1c0.4-0.8,0.8-1.9,1.4-3.5c0-0.1,0.1-0.1,0.2-0.1
				c0.2,0,0.3,0.2,0.2,0.3c-0.2,0.6-0.5,1.2-0.6,1.7c-0.4,1.1-0.7,2-0.7,2.3c0,0.3,0.1,0.5,0.3,0.5c0.5,0,1-0.6,1.6-2
				c0-0.1,0.1-0.1,0.2-0.1c0,0,0.1,0,0.1,0C15.3,10.5,15.4,10.6,15.4,10.6z"/>
			<path class="st4" d="M17.4,10.6C17.4,10.7,17.4,10.7,17.4,10.6c-0.6,1.3-1.1,2.4-2.1,2.4c-0.5,0-0.8-0.4-0.8-0.9
				c0-0.9,0.8-2.9,1.3-4.1c0-0.1,0.1-0.2,0.2-0.2c0.1,0,0.3,0.1,0.2,0.3c-1.1,3-1.3,3.5-1.3,4c0,0.3,0.1,0.5,0.3,0.5
				c0.7,0,1.2-1.1,1.6-2c0-0.1,0.1-0.1,0.2-0.1c0,0,0.1,0,0.1,0C17.4,10.5,17.4,10.6,17.4,10.6z M16.2,6.9c0-0.2,0.2-0.4,0.4-0.4
				s0.4,0.2,0.4,0.4s-0.2,0.4-0.4,0.4S16.2,7.1,16.2,6.9z"/>
			<path class="st4" d="M21.8,10.6C21.8,10.7,21.8,10.7,21.8,10.6c-0.8,1.8-1.3,2.4-2,2.4c-0.5,0-0.8-0.4-0.8-0.9
				c0-1,0.9-2.3,0.9-3.3c0-0.3-0.1-0.6-0.6-0.6c-0.7,0-1.5,1.5-1.9,2.4l-0.8,2.2c0,0.1-0.2,0.2-0.3,0.2c-0.1,0-0.2-0.2-0.1-0.3
				c0.6-1.6,1.3-3.6,1.7-4.8c0-0.1,0.1-0.2,0.2-0.2c0.2,0,0.3,0.2,0.2,0.3l-0.1,0.2c0.3-0.3,0.7-0.5,1-0.5c0.8,0,1,0.5,1,1
				c0,1-0.9,2.4-0.9,3.3c0,0.3,0.1,0.5,0.3,0.5c0.5,0,0.9-0.6,1.6-2c0-0.1,0.1-0.1,0.2-0.1c0,0,0.1,0,0.1,0
				C21.8,10.5,21.8,10.6,21.8,10.6z"/>
			<path class="st4" d="M24.1,10.6C24.1,10.7,24.1,10.7,24.1,10.6c-0.7,1.5-1.3,2.4-2.3,2.4c-0.5,0-0.8-0.4-0.8-0.9
				c0-0.4,0.3-1.4,0.6-2.3l0.6-1.6h-0.7c-0.1,0-0.2-0.1-0.2-0.2c0-0.1,0.1-0.2,0.2-0.2h0.9c0,0,0.6-1.6,0.6-1.6
				C23,6.1,23.1,6,23.2,6c0.2,0,0.3,0.2,0.2,0.3c0-0.1-0.4,1.3-0.5,1.5h0.7c0.1,0,0.2,0.1,0.2,0.2c0,0.1-0.1,0.2-0.2,0.2h-0.9
				C22.6,8.5,22.4,9,22.1,10c-0.5,1.3-0.6,1.8-0.6,2.1c0,0.3,0.1,0.5,0.4,0.5c0.8,0,1.3-0.9,1.8-2.1c0-0.1,0.1-0.1,0.2-0.1
				c0,0,0.1,0,0.1,0C24.1,10.5,24.1,10.6,24.1,10.6z"/>
			<path class="st4" d="M26.8,12.4c-0.3,0-0.6-0.1-0.8-0.3c-0.4,0.6-1,1-1.5,1c-0.7,0-1-0.5-1-1.1c0-1.3,0.6-2.4,0.9-3
				c0.5-0.8,1-1.2,1.6-1.2c0.7,0,1.1,0.5,1.1,1.2c0,0.7-0.4,1.8-0.9,2.6c0.1,0.2,0.3,0.2,0.6,0.2c0.5,0,0.9-0.4,1.2-1.3
				c0-0.1,0.1-0.1,0.2-0.1c0.2,0,0.3,0.2,0.2,0.3C28,11.9,27.4,12.4,26.8,12.4z M26.1,10.7c0,0.1,0,0.2,0,0.3c0.3-0.7,0.6-1.4,0.6-2
				c0-0.5-0.3-0.7-0.7-0.7c-0.4,0-0.8,0.4-1.1,0.9c-0.3,0.5-0.9,1.5-0.9,2.7c0,0.4,0.1,0.7,0.5,0.7c0.4,0,0.9-0.4,1.2-1
				c-0.1-0.3-0.1-0.8,0-1.1c0-0.1,0.1-0.2,0.2-0.2C26,10.4,26.1,10.6,26.1,10.7z"/>
		</g>
	</g>
	<g>
		<path class="st4" d="M53.8,12C53.8,12,53.8,12.1,53.8,12c-0.5,1.1-1,1.9-1.8,1.9c-0.4,0-0.6-0.3-0.6-0.8c-0.3,0.4-0.7,0.8-1.1,0.8
			c-0.5,0-0.7-0.4-0.7-0.9c0-1.1,0.9-3.1,1.9-3.1c0.4,0,0.6,0.2,0.8,0.4l0.2-0.4l0.5-1.3c0-0.1,0.1-0.1,0.2-0.1
			c0.1,0,0.2,0.1,0.2,0.2c-0.1,0.2-1.1,3.2-1.2,3.4c-0.1,0.4-0.3,0.9-0.3,1.1c0,0.2,0.1,0.4,0.3,0.4c0.6,0,1-0.7,1.4-1.6
			c0-0.1,0.1-0.1,0.2-0.1c0,0,0,0,0.1,0C53.8,11.9,53.8,12,53.8,12z M51.8,11.4c0.1-0.2,0.1-0.4,0.2-0.5c0,0,0,0,0-0.1
			c0-0.4-0.2-0.6-0.5-0.6c-0.8,0-1.5,1.9-1.5,2.7c0,0.4,0.1,0.6,0.3,0.6C51,13.5,51.5,12.3,51.8,11.4z"/>
		<path class="st4" d="M56.5,12C56.5,12.1,56.5,12.1,56.5,12c-0.6,1.3-1.2,1.9-2.1,1.9c-0.7,0-1.1-0.5-1.1-1.2
			c0.1-1.1,0.9-2.9,2-2.9c0.4,0,0.7,0.2,0.7,0.6c0,0.9-1.3,1.5-2.2,1.7c-0.1,0.2-0.1,0.4-0.1,0.6c0,0.5,0.3,0.8,0.8,0.8
			c0.7,0,1.3-0.5,1.7-1.6c0-0.1,0.1-0.1,0.2-0.1C56.5,11.9,56.5,12,56.5,12z M55.6,10.5c0-0.2-0.2-0.3-0.4-0.3
			c-0.6,0-1.1,0.9-1.4,1.6C54.6,11.5,55.6,11.1,55.6,10.5z"/>
	</g>
	<g>
		<path class="st4" d="M16.7,26.9C16.7,27,16.7,27,16.7,26.9c-0.6,1.3-1.2,1.9-2.1,1.9c-0.7,0-1.1-0.5-1.1-1.2
			c0.1-1.1,0.9-2.9,2-2.9c0.4,0,0.7,0.2,0.7,0.6c0,0.9-1.3,1.5-2.2,1.7c-0.1,0.2-0.1,0.4-0.1,0.6c0,0.5,0.3,0.8,0.8,0.8
			c0.7,0,1.3-0.5,1.7-1.6c0-0.1,0.1-0.1,0.2-0.1C16.7,26.8,16.7,26.9,16.7,26.9z M15.8,25.4c0-0.2-0.2-0.3-0.4-0.3
			c-0.6,0-1.1,0.9-1.4,1.6C14.8,26.4,15.8,26,15.8,25.4z"/>
		<path class="st4" d="M20.1,26.9C20.1,26.9,20.1,27,20.1,26.9c-0.6,1.4-1,1.9-1.6,1.9c-0.4,0-0.6-0.3-0.6-0.7
			c0-0.8,0.7-1.8,0.7-2.5c0-0.2-0.1-0.4-0.4-0.4c-0.5,0-1.2,1.2-1.4,1.9l-0.6,1.7c0,0.1-0.1,0.1-0.2,0.1c-0.1,0-0.1-0.1-0.1-0.2
			c0.4-1.2,1-2.8,1.3-3.7c0-0.1,0.1-0.1,0.2-0.1c0.1,0,0.2,0.1,0.2,0.2l-0.1,0.2c0.2-0.3,0.5-0.4,0.8-0.4c0.6,0,0.8,0.4,0.8,0.8
			c0,0.8-0.7,1.9-0.7,2.5c0,0.2,0.1,0.4,0.3,0.4c0.4,0,0.7-0.5,1.2-1.6c0-0.1,0.1-0.1,0.2-0.1c0,0,0.1,0,0.1,0
			C20.1,26.8,20.1,26.9,20.1,26.9z"/>
	</g>
</g>
</svg>
