<?xml version="1.0" encoding="utf-8"?>
<!-- Generator: Adobe Illustrator 23.0.0, SVG Export Plug-In . SVG Version: 6.00 Build 0)  -->
<svg version="1.1" id="Layer_1" xmlns="http://www.w3.org/2000/svg" xmlns:xlink="http://www.w3.org/1999/xlink" x="0px" y="0px"
	 viewBox="0 0 65.1 45.3" style="enable-background:new 0 0 65.1 45.3;" xml:space="preserve">
<style type="text/css">
	.st0{fill:#FFFFFF;}
	.st1{fill:#81509F;}
	.st2{fill:#8A8EC5;}
	.st3{fill:#5C52A1;}
	.st4{stroke:#000000;stroke-width:0.25;stroke-miterlimit:10;}
	.st5{enable-background:new    ;}
</style>
<path class="st0" d="M29.9,25.3c-0.4,0-0.7-0.1-1-0.4s-0.5-0.6-0.5-1v-6.2c0-0.8,0.6-1.4,1.4-1.4h3.4c0.6,0,1.2,0.4,1.4,1l0.4,1.3
	c0.1,0.4,0,0.9-0.2,1.2c-0.1,0.1-0.2,0.2-0.3,0.3v0.1v1.4c0,0.8-0.6,1.4-1.4,1.4h-0.2v0.6c0,0.7-0.6,1.3-1.3,1.4L30,25.3H29.9z"/>
<path class="st0" d="M36.9,25.3c-0.6,0-1.2-0.1-1.7-0.4c-0.6-0.3-1.2-0.7-1.5-1.3c-0.4-0.6-0.6-1.2-0.6-2v-0.1
	c0-0.6,0.2-1.3,0.5-1.8c0.3-0.6,0.8-1.1,1.4-1.4c0.6-0.4,1.2-0.6,1.9-0.6H37c0.7,0,1.4,0.2,1.9,0.5c0.6,0.3,1.1,0.8,1.5,1.4
	c0.3,0.6,0.5,1.3,0.5,2s-0.2,1.3-0.5,1.9s-0.8,1-1.3,1.4c-0.5,0.3-1.1,0.5-1.8,0.6C37.1,25.3,37,25.3,36.9,25.3z"/>
<path class="st0" d="M40.2,25.3c-0.4,0-0.7-0.1-1-0.4s-0.5-0.6-0.5-1v-4.6c0-0.7,0.5-1.3,1.2-1.4l1.4-0.2c0.1,0,0.1,0,0.2,0
	c0.2,0,0.4,0,0.6,0.1c0.2-0.1,0.5-0.1,0.7-0.1c0.1,0,0.2,0,0.3,0h0.1h0.2c0.4,0.1,0.7,0.3,0.9,0.7c0.2,0.3,0.3,0.8,0.1,1.1l-0.5,1.4
	c-0.1,0.4-0.4,0.7-0.8,0.9c-0.1,0-0.1,0.1-0.2,0.1v1.8c0,0.7-0.6,1.3-1.3,1.4l-1.5,0.1C40.3,25.3,40.3,25.3,40.2,25.3z"/>
<path class="st0" d="M46.3,25.3c-0.6,0-1.2-0.1-1.7-0.4c-0.6-0.3-1.1-0.7-1.5-1.3s-0.6-1.2-0.6-2v-0.1c0-0.6,0.2-1.3,0.5-1.8
	c0.3-0.6,0.8-1.1,1.4-1.4c0.6-0.4,1.2-0.6,1.9-0.6h0.1c0.7,0,1.4,0.2,1.9,0.5c0.6,0.3,1.1,0.8,1.5,1.4c0.3,0.6,0.5,1.3,0.5,2
	s-0.2,1.3-0.5,1.9s-0.8,1-1.3,1.4c-0.5,0.3-1.1,0.5-1.8,0.6C46.5,25.3,46.4,25.3,46.3,25.3z"/>
<path class="st0" d="M21.8,43.3c-0.4,0-0.7-0.1-1-0.4c-0.3-0.3-0.5-0.6-0.5-1v-6.2c0-0.7,0.6-1.3,1.3-1.4l1.5-0.2h0.1
	c0.3,0,0.7,0.1,0.9,0.4c0.3,0.3,0.5,0.7,0.5,1.1v6.2c0,0.7-0.6,1.4-1.3,1.4L21.8,43.3C21.9,43.3,21.9,43.3,21.8,43.3z"/>
<path class="st0" d="M26.6,43.4c-0.7,0-1.3-0.2-1.8-0.5c-0.6-0.3-1-0.8-1.4-1.4c-0.3-0.6-0.5-1.2-0.5-1.9s0.2-1.3,0.5-1.9
	c0.3-0.6,0.8-1.1,1.3-1.4c0.5-0.4,1.1-0.5,1.8-0.6c0-0.7,0.5-1.3,1.2-1.4l1.4-0.2c0.1,0,0.1,0,0.2,0c0.3,0,0.7,0.1,0.9,0.4
	c0.3,0.3,0.5,0.7,0.5,1.1v6.2c0,0.7-0.6,1.3-1.3,1.4L28,43.3h-0.1c-0.1,0-0.3,0-0.4-0.1c-0.2,0.1-0.5,0.1-0.8,0.1
	C26.7,43.4,26.6,43.4,26.6,43.4L26.6,43.4z"/>
<path class="st0" d="M30.7,43.2c-0.4,0-0.7-0.1-1-0.4c-0.3-0.3-0.5-0.6-0.5-1v-4.5c0-0.1,0-0.2,0-0.3c-0.1-0.2-0.2-0.5-0.3-0.7
	c0-0.4,0.1-0.8,0.4-1.1l0.9-0.9c0.3-0.3,0.6-0.4,1-0.4c0.3,0,0.6,0.1,0.8,0.3l1,0.7c0.3,0.2,0.6,0.6,0.6,1c0,0.3-0.1,0.7-0.3,1
	c0,0.1,0,0.1,0,0.2v4.6c0,0.7-0.6,1.4-1.3,1.4l-1.4,0.1C30.8,43.2,30.8,43.2,30.7,43.2z"/>
<path class="st0" d="M35.9,43.3c-0.6,0-1.2-0.1-1.7-0.4c-0.6-0.3-1.1-0.7-1.5-1.3s-0.6-1.2-0.6-2v-0.1c0-0.6,0.2-1.3,0.5-1.8
	c0.3-0.6,0.8-1.1,1.4-1.4c0.6-0.4,1.2-0.6,1.9-0.6H36c0.7,0,1.4,0.2,1.9,0.5c0.6,0.3,1.1,0.8,1.5,1.4c0.3,0.6,0.5,1.3,0.5,2
	s-0.2,1.3-0.5,1.9c-0.3,0.6-0.8,1-1.3,1.4c-0.5,0.3-1.1,0.5-1.8,0.6C36.1,43.3,36,43.3,35.9,43.3z"/>
<path class="st0" d="M41.4,43.3c-0.2,0-0.4,0-0.6-0.1c-0.1,0-0.2,0-0.2,0l-1.4,0.1h-0.1c-0.4,0-0.7-0.1-1-0.4
	c-0.3-0.3-0.5-0.6-0.5-1v-4.6c0-0.7,0.5-1.3,1.3-1.4l1.3-0.2c0.1,0,0.1,0,0.2,0c0.1,0,0.2,0,0.3,0c0.2,0,0.3-0.1,0.5-0.1
	c0,0,0.1,0,0.2,0c0.3,0,0.6,0,0.8,0.1c0.1,0,0.1,0,0.2,0.1c0.3-0.1,0.7-0.2,1.1-0.2l0,0c0.6,0,1,0.1,1.4,0.3
	c0.5,0.2,0.9,0.6,1.1,1.1c0.3,0.5,0.4,1,0.4,1.5v3.2c0,0.7-0.6,1.4-1.3,1.4c0,0-1.4,0.1-1.5,0.1c-0.2,0-0.4,0-0.6-0.1
	c-0.1,0-0.2,0-0.3,0l-1.4,0.1C41.5,43.3,41.5,43.3,41.4,43.3z"/>
<path class="st0" d="M47.6,43.3c-0.5,0-1-0.1-1.4-0.3c-0.5-0.2-0.9-0.6-1.2-1.1c-0.3-0.4-0.4-1-0.4-1.6s0.2-1.1,0.5-1.6l0.1-0.1
	c0-0.1,0-0.2,0-0.3l0.3-1.3c0.1-0.3,0.2-0.6,0.5-0.8s0.6-0.3,0.9-0.4c0.2,0,0.4-0.1,0.6-0.1c0.3,0,0.5-0.1,0.7-0.1h0.1
	c0.5,0,0.9,0.1,1.3,0.2c0.6,0.2,1,0.5,1.3,1c0.4,0.5,0.6,1.1,0.6,1.7v3.1c0,0.7-0.5,1.3-1.3,1.4l-1.3,0.2c-0.1,0-0.1,0-0.2,0
	c-0.1,0-0.2,0-0.3,0C48.1,43.3,47.9,43.3,47.6,43.3L47.6,43.3L47.6,43.3z"/>
<path class="st0" d="M52.5,43.4c-0.7,0-1.3-0.2-1.8-0.5s-0.8-0.4-1-0.6c-0.5-0.5-0.5-1.3-0.1-1.9l0.3-0.4c-0.3-0.4-0.4-0.9-0.4-1.4
	c0-0.6,0.2-1.1,0.5-1.6c0.3-0.4,0.7-0.8,1.2-1c0.4-0.2,0.9-0.3,1.4-0.4h0.2c0.6,0,1.2,0.1,1.8,0.4s1,0.6,1.2,1.1s0.1,1.1-0.2,1.5
	c0.3,0.4,0.5,0.9,0.5,1.7c0,0.6-0.2,1.2-0.6,1.7c-0.3,0.4-0.8,0.8-1.3,1C53.6,43.3,53.1,43.4,52.5,43.4L52.5,43.4z"/>
<path class="st0" d="M4.9,34.3c-0.4,0-0.7-0.1-1-0.4s-0.5-0.6-0.5-1v-6.2c0-0.7,0.6-1.3,1.3-1.4l1.5-0.2h0.1c0.3,0,0.7,0.1,1,0.4
	s0.5,0.7,0.5,1.1v6.2c0,0.7-0.6,1.4-1.3,1.4L4.9,34.3L4.9,34.3z"/>
<path class="st0" d="M7.5,34.3c-0.4,0-0.7-0.1-1-0.4S6,33.3,6,32.9v-4.6c0-0.7,0.5-1.3,1.2-1.4l1.3-0.2c0.1,0,0.1,0,0.2,0
	c0.1,0,0.3,0,0.4,0.1c0.2,0,0.4-0.1,0.6-0.1c0,0,0.1,0,0.2,0c0.8,0,1.4,0.3,2,0.8c0.5,0.6,0.8,1.3,0.8,2.1v3.2
	c0,0.7-0.6,1.3-1.3,1.4L10,34.3H9.9c-0.2,0-0.5-0.1-0.7-0.2c-0.1,0-0.2,0-0.3,0.1L7.5,34.3C7.6,34.3,7.6,34.3,7.5,34.3z"/>
<path class="st0" d="M14.2,34.6c-0.5,0-1-0.3-1.3-0.8L10.6,29c-0.2-0.4-0.2-0.9,0-1.3s0.6-0.7,1-0.8l1.4-0.3c0.1,0,0.2,0,0.3,0
	c0.3,0,0.7,0.1,0.9,0.3c0.3-0.2,0.6-0.3,0.9-0.3c0.1,0,0.2,0,0.3,0l1.4,0.3c0.4,0.1,0.8,0.4,1,0.8s0.2,0.9,0,1.3l-2.3,4.8
	C15.2,34.3,14.8,34.6,14.2,34.6L14.2,34.6z"/>
<path class="st0" d="M19.6,34.3c-0.7,0-1.3-0.2-1.9-0.5s-1.1-0.8-1.5-1.4c-0.4-0.6-0.5-1.2-0.6-2c0-0.7,0.1-1.3,0.4-1.8
	c0.3-0.6,0.7-1,1.2-1.4s1.1-0.6,1.8-0.7c0.2,0,0.3,0,0.5,0c0.4,0,0.9,0.1,1.3,0.2c0.5,0.2,0.9,0.5,1.3,0.8c0.3,0.3,0.5,0.5,0.7,0.8
	c0.1,0.2,0.2,0.4,0.3,0.5c0.3,0.6,0,1.4-0.6,1.8l-0.2,0.2l0.4,0.6c0.4,0.6,0.3,1.5-0.3,1.9c-0.1,0.1-0.2,0.2-0.5,0.3
	c-0.2,0.1-0.5,0.3-0.9,0.4C20.6,34.2,20.1,34.3,19.6,34.3L19.6,34.3L19.6,34.3z"/>
<path class="st0" d="M24.2,34.4c-0.7,0-1.3-0.2-1.8-0.5s-0.8-0.4-1-0.6c-0.5-0.5-0.5-1.3-0.1-1.9l0.3-0.4c-0.3-0.4-0.4-0.9-0.4-1.4
	c0-0.6,0.2-1.1,0.5-1.6c0.3-0.4,0.7-0.8,1.2-1c0.4-0.2,0.9-0.3,1.4-0.4h0.2c0.6,0,1.2,0.2,1.8,0.4c0.6,0.3,1,0.6,1.2,1.1
	s0.2,1.1-0.2,1.6c0.3,0.4,0.5,0.9,0.5,1.7c0,0.6-0.2,1.2-0.6,1.7c-0.3,0.4-0.8,0.8-1.3,1C25.3,34.3,24.8,34.4,24.2,34.4L24.2,34.4z"
	/>
<path class="st0" d="M29.7,34.3c-0.7,0-1.4-0.2-1.9-0.5c-0.9-0.5-1.5-1.5-1.5-2.6v-0.4c-0.2-0.1-0.3-0.2-0.5-0.4
	c-0.3-0.4-0.4-0.8-0.2-1.2l0.4-1.3c0.1-0.3,0.2-0.5,0.4-0.6c0.1-0.5,0.4-1,0.9-1.2l1.4-0.6c0.2-0.1,0.4-0.1,0.5-0.1
	c0.3,0,0.6,0.1,0.8,0.2c0.4,0.3,0.6,0.7,0.6,1.2v0.1c0.5,0.2,0.9,0.7,0.9,1.3v1.3c0,0.3-0.1,0.6-0.2,0.8c0.1,0.1,0.1,0.1,0.2,0.2
	c0.3,0.4,0.5,0.9,0.3,1.3l-0.4,1.4c-0.2,0.6-0.7,1-1.4,1C30,34.3,29.7,34.3,29.7,34.3z"/>
<path class="st0" d="M31.5,34.2c-0.4,0-0.7-0.1-1-0.4s-0.5-0.6-0.5-1v-4.5c0-0.1,0-0.2,0-0.3c-0.1-0.2-0.2-0.5-0.3-0.7
	c0-0.4,0.1-0.8,0.4-1.1l0.9-0.9c0.3-0.3,0.6-0.4,1-0.4c0.3,0,0.6,0.1,0.8,0.3l1,0.7c0.3,0.2,0.6,0.6,0.6,1c0,0.3-0.1,0.7-0.3,1
	c0,0.1,0,0.1,0,0.2v4.6c0,0.7-0.6,1.4-1.3,1.4l-1.4,0.1C31.5,34.2,31.5,34.2,31.5,34.2z"/>
<path class="st0" d="M36.2,35.8c-1,0-1.7-0.2-2.3-0.6c-0.5-0.3-0.8-0.6-1.1-1c-0.3-0.5-0.3-1.2,0.2-1.7l0.5-0.5l0,0
	c-0.3-0.3-0.8-1-0.8-2c0-0.7,0.2-1.3,0.5-1.8s0.7-0.9,1.3-1.1c0.5-0.3,1-0.4,1.6-0.4h0.1c0.3,0,0.5,0,0.7,0c0.1,0,0.2,0,0.3,0
	c0.4,0,0.8-0.1,1.1-0.2c0.1,0,0.2,0,0.4,0c0.4,0,0.7,0.1,1,0.4c0.4,0.4,0.5,0.9,0.4,1.4l-0.3,1.1c0,0.1-0.1,0.2-0.1,0.3
	c0,0.1,0,0.2,0,0.3v0.1c0,0.4-0.1,0.8-0.3,1.1c0.2,0.4,0.3,0.9,0.3,1.4c0,1-0.5,1.9-1.3,2.5C37.9,35.6,37.1,35.8,36.2,35.8z"/>
<path class="st0" d="M41.1,34.3c-0.5,0-1-0.1-1.4-0.3c-0.5-0.2-0.9-0.6-1.2-1.1c-0.3-0.4-0.4-1-0.4-1.6s0.2-1.1,0.5-1.6l0.1-0.1
	c0-0.1,0-0.2,0-0.3L39,28c0.1-0.3,0.2-0.6,0.4-0.8c0.3-0.3,0.6-0.3,0.9-0.4c0.2,0,0.4-0.1,0.6-0.1c0.3,0,0.5-0.1,0.7-0.1h0.1
	c0.5,0,0.9,0.1,1.3,0.2c0.6,0.2,1,0.5,1.3,1c0.4,0.5,0.6,1.1,0.6,1.7v3.1c0,0.7-0.5,1.3-1.3,1.4l-1.3,0.2c-0.1,0-0.1,0-0.2,0
	c-0.1,0-0.2,0-0.3,0C41.6,34.3,41.4,34.3,41.1,34.3L41.1,34.3L41.1,34.3z"/>
<path class="st0" d="M46.7,34.3c-0.7,0-1.4-0.2-2-0.5s-1.1-0.8-1.5-1.4c-0.3-0.6-0.5-1.2-0.5-1.9c0-0.7,0.2-1.3,0.5-1.9
	s0.8-1.1,1.4-1.4c0.6-0.4,1.2-0.5,2-0.5c0.7,0,1.3,0.1,1.8,0.4c0.4,0.2,0.7,0.4,0.9,0.7c0.5,0.5,0.5,1.3,0.1,1.8l-0.7,1l0.8,1
	c0.5,0.6,0.4,1.4-0.2,1.9c-0.2,0.2-0.5,0.3-0.8,0.5C48,34.2,47.4,34.3,46.7,34.3C46.8,34.3,46.8,34.3,46.7,34.3L46.7,34.3z"/>
<path class="st0" d="M49.6,34.2c-0.4,0-0.7-0.1-1-0.4s-0.5-0.6-0.5-1v-4.5c0-0.1,0-0.2,0-0.3c0-0.2-0.1-0.5-0.1-0.7
	c0-0.4,0.1-0.8,0.4-1.1l0.9-0.9c0.3-0.3,0.6-0.4,1-0.4c0.3,0,0.6,0.1,0.8,0.3l1,0.7c0.3,0.2,0.6,0.6,0.6,1c0,0.3-0.1,0.7-0.3,1
	c0,0.1,0,0.1,0,0.2v4.6c0,0.7-0.6,1.4-1.3,1.4l-1.4,0.1C49.7,34.2,49.7,34.2,49.6,34.2z"/>
<path class="st0" d="M54.7,34.3c-0.6,0-1.2-0.1-1.7-0.4c-0.6-0.3-1.1-0.7-1.5-1.3c-0.4-0.6-0.6-1.2-0.6-2v-0.1
	c0-0.6,0.2-1.3,0.5-1.8c0.3-0.6,0.8-1.1,1.4-1.4c0.6-0.4,1.2-0.6,1.9-0.6h0.1c0.7,0,1.4,0.2,1.9,0.5c0.6,0.3,1.1,0.8,1.5,1.4
	c0.3,0.6,0.5,1.3,0.5,2s-0.2,1.3-0.5,1.9c-0.3,0.6-0.8,1-1.3,1.4c-0.5,0.3-1.1,0.5-1.8,0.6C54.9,34.3,54.8,34.3,54.7,34.3z"/>
<path class="st0" d="M57.9,34.3c-0.4,0-0.7-0.1-1-0.4s-0.5-0.6-0.5-1v-4.6c0-0.7,0.5-1.3,1.2-1.4l1.3-0.2c0.1,0,0.1,0,0.2,0
	c0.1,0,0.3,0,0.4,0.1c0.2,0,0.4-0.1,0.6-0.1c0,0,0.1,0,0.2,0c0.8,0,1.4,0.3,2,0.8c0.5,0.6,0.8,1.3,0.8,2.1v3.2
	c0,0.7-0.6,1.3-1.3,1.4l-1.4,0.1h-0.1c-0.2,0-0.5-0.1-0.7-0.2c-0.1,0-0.2,0-0.3,0.1L57.9,34.3C58,34.3,58,34.3,57.9,34.3z"/>
<path class="st0" d="M54.4,29.3c-0.4,0-0.8-0.2-1-0.5c-0.5-0.5-0.5-1.3-0.1-1.8l1.3-1.6c0.3-0.3,0.7-0.5,1.1-0.5c0.1,0,0.2,0,0.3,0
	l1,0.2c0.6,0.1,1,0.5,1.1,1.1s-0.1,1.2-0.6,1.5l-2.3,1.5C55,29.2,54.7,29.3,54.4,29.3z"/>
<path class="st0" d="M52,26.1c-0.3,0-0.6-0.1-0.8-0.2c-0.3,0.1-0.6,0.2-0.9,0.2c-1.2,0-2.1-1-2.1-2.3c0-1.6,1.1-4.5,3.2-4.5l0.1-0.4
	c0.3-0.7,0.9-1.1,1.5-1.1c0.5,0,1,0.3,1.3,0.7s0.4,1,0.2,1.5c0,0-0.4,1.2-0.5,1.4h0.1c0.1,0,0.1,0,0.2,0.1c0.6,0.3,0.9,0.8,0.9,1.4
	c0,0.2,0,0.4-0.1,0.5c0,0,0,0.1-0.1,0.1C54.7,24.3,53.9,26.1,52,26.1z"/>
<path class="st0" d="M54.4,26.1c-0.7,0-1.4-0.3-1.8-0.7c-0.5-0.5-0.7-1.2-0.7-1.9c0.1-1.6,1.3-4.3,3.4-4.3c1.2,0,2.1,0.9,2.1,2.1
	c0,0.1,0,0.2,0,0.3c0.3,0.3,0.6,0.7,0.6,1.2c0,0.2,0,0.4-0.1,0.5v0.1C57,25.2,55.9,26.1,54.4,26.1z"/>
<path class="st0" d="M14.6,41c-0.7,0-1.4-0.3-1.8-0.7c-0.5-0.5-0.7-1.2-0.7-1.9c0.1-1.5,1.3-4.3,3.4-4.3c1.2,0,2.1,0.9,2.1,2.1
	c0,0.1,0,0.2,0,0.3c0.3,0.3,0.6,0.7,0.6,1.2c0,0.2,0,0.4-0.1,0.5c0,0,0,0.1-0.1,0.1C17.2,40.1,16.1,41,14.6,41z"/>
<path class="st0" d="M18.5,41c-0.6,0-1-0.2-1.4-0.5c-0.3,0.3-0.7,0.5-1.2,0.5c-0.1,0-0.3,0-0.4-0.1h-0.1c-0.8-0.3-1.2-1.2-1-2
	c0.2-0.6,1.2-3.3,1.3-3.7c0.2-0.6,0.8-1.1,1.5-1.1c0.1,0,0.3,0,0.4,0c0.2,0,0.3-0.1,0.5-0.1c1.3,0,2.2,0.8,2.2,2.1h0.1
	c0.1,0,0.1,0,0.2,0.1c0.6,0.3,0.9,0.8,0.9,1.4c0,0.1,0,0.4-0.1,0.5c0,0.1,0,0.1-0.1,0.2C21,39.4,20.2,41,18.5,41z"/>
<path class="st0" d="M11.4,27.6c-1.7,0-2.9-1.2-3.8-2.1c-0.4,0.2-0.9,0.2-1.3,0.2c-2,0-3.2-1.5-3.2-3.7c0-0.6,0.1-1.2,0.2-1.9
	c-1.4-0.3-2.2-1.4-2.2-2.8c0-1.2,0.6-1.9,1-2.3c0.3-0.3,0.7-0.5,1.2-0.5c0.4,0,0.9,0.2,1.2,0.5C4.8,15.3,5,15.7,5,16.2
	c0,0.1,0,0.2,0,0.4c0.7-0.9,1.3-1.3,2-1.6c0.3-0.4,0.8-0.9,2-0.9c1.5,0,3.1,1,3.1,3.6c0,1.8-0.8,4-1.8,5.6c0.4,0.5,1,1,1.3,1h0.1
	c0.3-0.5,0.8-0.7,1.4-0.7c0.9,0,1.6,0.7,1.6,1.6c0,0.3-0.1,0.5-0.1,0.6c0,0,0,0.1-0.1,0.1C13.9,26.9,12.7,27.6,11.4,27.6z M6.7,21.3
	c0.3,0,0.5,0,0.8,0.1c0.4-0.7,0.8-1.5,1-2.3c-0.6,0.3-1.2,0.6-1.7,0.8c-0.2,0.5-0.3,0.9-0.4,1.4C6.5,21.3,6.6,21.3,6.7,21.3
	L6.7,21.3z"/>
<path class="st0" d="M13.3,25.3c-0.4,0-0.7-0.1-1-0.2c-0.4,0.2-0.7,0.2-1.1,0.2c-1.5,0-2.5-1-2.5-2.6c0-0.8,0.2-1.4,1.2-4l0.2-0.5
	c0.2-0.6,0.9-1.1,1.5-1.1c0.5,0,0.9,0.2,1.2,0.5c0.3-0.3,0.7-0.5,1.2-0.5c0.6,0,1.1,0.3,1.4,0.7c0.3,0.4,0.4,1,0.2,1.5
	c-0.1,0.1-0.1,0.3-0.1,0.4c0.1,0,0.2,0,0.2,0.1c0.1,0,0.2,0.1,0.3,0.1c0.5,0.3,0.8,0.9,0.8,1.4c0,0.1,0,0.4-0.1,0.5
	c0,0,0,0.1-0.1,0.1C16,23.6,15.1,25.3,13.3,25.3z"/>
<path class="st0" d="M15.4,25.3c-0.6,0-1.2-0.2-1.6-0.7c-0.4-0.5-0.7-1.1-0.6-1.7c0-1,0.6-2.7,1.4-4.5c0.1-0.2,0.1-0.3,0.2-0.4
	c0-0.1,0-0.1,0-0.2c0-1,0.8-1.8,1.8-1.8s1.8,0.8,1.8,1.8c0,0.5-0.2,1-0.6,1.4c0,0.1,0,0.2-0.1,0.4l-0.2,0.2c0.1,0,0.2,0,0.2,0.1
	c0.7,0.3,1.1,0.9,1.1,1.6c0,0.1,0,0.4-0.1,0.5c0,0,0,0.1-0.1,0.1C18.2,23.3,17.3,25.3,15.4,25.3z"/>
<path class="st0" d="M19.8,25.3c-0.8,0-1.5-0.4-1.9-1c-0.2,0.6-0.9,1-1.5,1c-0.1,0-0.3,0-0.4-0.1h-0.1c-0.8-0.3-1.3-1.2-1-2.1
	c0.3-0.8,0.6-1.7,0.9-2.5c0.3-0.9,0.6-1.7,0.8-2.3c0.2-0.6,0.8-1.1,1.6-1.1c0.2,0,0.3,0,0.5,0.1c0.2-0.1,0.4-0.1,0.7-0.1
	c1.5,0,2.5,1,2.5,2.5v0.1c0.2,0,0.3,0.1,0.4,0.1s0.1,0,0.2,0.1c0.6,0.3,0.9,0.9,0.9,1.5c0,0.3-0.1,0.5-0.1,0.6c0,0,0,0.1-0.1,0.1
	C22.5,23.4,21.7,25.3,19.8,25.3z"/>
<path class="st0" d="M21.8,25.3c-1.3,0-2.2-1-2.2-2.3c0-0.9,0.6-2.4,0.7-2.8v-0.1c-0.3-0.3-0.5-0.7-0.5-1.2c0-0.9,0.7-1.6,1.5-1.6
	c0.1-0.3,0.2-0.6,0.2-0.7c0.2-0.7,0.9-1.2,1.6-1.2c0.5,0,1.1,0.3,1.4,0.7c0.2,0.2,0.3,0.5,0.3,0.8c0,0.1,0,0.1,0,0.2
	c0,0.2,0,0.4-0.1,0.6c0.3,0.2,0.6,0.7,0.6,1.1c0,0.5-0.2,0.9-0.5,1.2c0.5,0.3,0.8,0.8,0.8,1.4c0,0.3-0.1,0.5-0.1,0.6
	c0,0,0,0.1-0.1,0.1C24.9,23.2,23.9,25.3,21.8,25.3z"/>
<path class="st0" d="M24.4,25.3c-1.4,0-2.4-1-2.4-2.5c0-1.2,0.4-2.4,1.1-3.7c1-1.6,2.1-1.8,2.8-1.8c1.5,0,2.5,1.1,2.5,2.6
	c0.5,0.1,0.9,0.3,1.1,0.7c0.3,0.5,0.4,1,0.1,1.6s-1.1,2.5-3,2.5c-0.2,0-0.3,0-0.5,0C25.7,25,25.1,25.3,24.4,25.3z"/>
<g>
	<g>
		<path class="st1" d="M29.9,23.9v-6.2h3.4l0.4,1.3h-2.2v1.3h1.6v1.4h-1.6v2.1L29.9,23.9z"/>
		<path class="st1" d="M36.8,19L36.8,19c0.5,0,1,0.1,1.3,0.3c0.4,0.2,0.7,0.5,0.9,0.9s0.3,0.8,0.3,1.2l0,0c0,0.4-0.1,0.8-0.3,1.2
			s-0.5,0.6-0.8,0.9c-0.4,0.2-0.7,0.3-1.1,0.4c-0.1,0-0.1,0-0.2,0c-0.4,0-0.8-0.1-1.1-0.3c-0.4-0.2-0.7-0.5-1-0.8
			c-0.3-0.4-0.4-0.8-0.4-1.2v-0.1c0-0.4,0.1-0.8,0.3-1.1c0.2-0.4,0.5-0.7,0.9-0.9C36,19.1,36.4,19,36.8,19z M36.9,20.3
			c-0.2,0-0.4,0.1-0.5,0.2c-0.2,0.1-0.3,0.2-0.4,0.4c-0.1,0.2-0.1,0.3-0.1,0.5c0,0.3,0.1,0.5,0.3,0.8c0.2,0.2,0.5,0.3,0.8,0.3
			s0.6-0.1,0.8-0.3c0.2-0.2,0.3-0.5,0.3-0.8s-0.1-0.6-0.3-0.8C37.4,20.4,37.2,20.3,36.9,20.3L36.9,20.3z"/>
		<path class="st1" d="M41.7,21.8v1.9l-1.5,0.1v-4.5l1.4-0.2v0.7c0.1-0.2,0.3-0.4,0.5-0.5s0.5-0.2,0.7-0.2c0.1,0,0.2,0,0.2,0
			c0.1,0,0.1,0,0.1,0l-0.5,1.4c0,0,0,0-0.1,0c0,0-0.1,0-0.2,0c-0.1,0-0.2,0-0.3,0c-0.2,0.1-0.3,0.2-0.4,0.3
			c-0.1,0.2-0.1,0.4-0.1,0.7C41.7,21.6,41.7,21.7,41.7,21.8z"/>
		<path class="st1" d="M46.2,19L46.2,19c0.5,0,1,0.1,1.3,0.3c0.4,0.2,0.7,0.5,0.9,0.9s0.3,0.8,0.3,1.2l0,0c0,0.4-0.1,0.8-0.3,1.2
			s-0.5,0.6-0.8,0.9c-0.4,0.2-0.7,0.3-1.1,0.4c-0.1,0-0.1,0-0.2,0c-0.4,0-0.8-0.1-1.1-0.3c-0.4-0.2-0.7-0.5-1-0.8
			c-0.3-0.4-0.4-0.8-0.4-1.2v-0.1c0-0.4,0.1-0.8,0.3-1.1c0.2-0.4,0.5-0.7,0.9-0.9C45.4,19.1,45.8,19,46.2,19z M46.3,20.3
			c-0.2,0-0.4,0.1-0.5,0.2c-0.2,0.1-0.3,0.2-0.4,0.4c-0.1,0.2-0.1,0.3-0.1,0.5c0,0.3,0.1,0.5,0.3,0.8c0.2,0.2,0.5,0.3,0.8,0.3
			s0.6-0.1,0.8-0.3c0.2-0.2,0.3-0.5,0.3-0.8s-0.1-0.6-0.3-0.8C46.8,20.4,46.6,20.3,46.3,20.3L46.3,20.3z"/>
		<path class="st2" d="M21.8,41.9v-6.2l1.5-0.2v6.2L21.8,41.9z"/>
		<path class="st2" d="M26.6,41.9L26.6,41.9c-0.5,0-0.8-0.1-1.2-0.3c-0.4-0.2-0.7-0.5-0.9-0.9c-0.2-0.4-0.3-0.8-0.3-1.2l0,0
			c0-0.4,0.1-0.8,0.3-1.2c0.2-0.4,0.5-0.7,0.8-0.9s0.7-0.3,1.2-0.3s1,0.2,1.3,0.5v-1.9l1.4-0.2v6.3l-1.4,0.1v-0.4
			c-0.1,0.1-0.2,0.2-0.4,0.3C27.2,41.9,26.9,41.9,26.6,41.9z M25.6,39.4L25.6,39.4c0,0.4,0.1,0.6,0.3,0.8c0.2,0.2,0.4,0.4,0.7,0.4
			h0.1c0.3,0,0.5-0.1,0.7-0.3s0.4-0.4,0.4-0.7v-0.1c0-0.2,0-0.3-0.1-0.5s-0.2-0.4-0.4-0.5c-0.2-0.1-0.4-0.2-0.6-0.2l0,0
			c-0.3,0-0.5,0.1-0.8,0.3C25.8,38.9,25.7,39.1,25.6,39.4z"/>
		<path class="st2" d="M31.5,37l-1-0.8l0.9-0.9l1,0.7L31.5,37z M30.7,37.3l1.4-0.2v4.6l-1.4,0.1C30.7,41.8,30.7,37.3,30.7,37.3z"/>
		<path class="st2" d="M35.8,37L35.8,37c0.5,0,1,0.1,1.3,0.3c0.4,0.2,0.7,0.5,0.9,0.9s0.3,0.8,0.3,1.2l0,0c0,0.4-0.1,0.8-0.3,1.2
			s-0.5,0.6-0.8,0.9c-0.4,0.2-0.7,0.3-1.1,0.4c-0.1,0-0.1,0-0.2,0c-0.4,0-0.8-0.1-1.1-0.3c-0.4-0.2-0.7-0.5-1-0.8
			c-0.3-0.4-0.4-0.8-0.4-1.2v-0.1c0-0.4,0.1-0.8,0.3-1.1c0.2-0.4,0.5-0.7,0.9-0.9C34.9,37.2,35.3,37,35.8,37z M35.8,38.4
			c-0.2,0-0.4,0.1-0.5,0.2c-0.2,0.1-0.3,0.2-0.4,0.4c-0.1,0.2-0.1,0.3-0.1,0.5c0,0.3,0.1,0.5,0.3,0.8c0.2,0.2,0.5,0.3,0.8,0.3
			s0.6-0.1,0.8-0.3s0.3-0.5,0.3-0.8s-0.1-0.6-0.3-0.8C36.4,38.5,36.2,38.4,35.8,38.4L35.8,38.4z"/>
		<path class="st2" d="M45.2,41.7l-1.4,0.1V39c0-0.2,0-0.4-0.1-0.5s-0.2-0.2-0.3-0.2h-0.1c-0.2,0-0.3,0.1-0.4,0.2
			c-0.1,0.1-0.1,0.3-0.1,0.5c0,0.1,0,0.1,0,0.2v2.4l-1.4,0.2v-2.7c0-0.5-0.1-0.8-0.4-0.8h-0.1c-0.2,0-0.3,0.1-0.4,0.2
			c-0.1,0.1-0.1,0.4-0.1,0.7v2.5L39,41.8v-4.6l1.3-0.2v0.5c0,0,0-0.1,0.1-0.1c0.1-0.1,0.2-0.1,0.3-0.2c0.1-0.1,0.3-0.1,0.5-0.1h0.1
			c0.1,0,0.2,0,0.4,0.1c0.1,0.1,0.3,0.1,0.3,0.2c0.1,0.1,0.1,0.1,0.2,0.2c0.1,0.1,0.1,0.1,0.1,0.1c0.2-0.2,0.3-0.3,0.5-0.4
			c0.2-0.1,0.4-0.1,0.7-0.1l0,0c0.3,0,0.5,0.1,0.8,0.2c0.2,0.1,0.4,0.3,0.6,0.5c0.1,0.2,0.2,0.5,0.2,0.8v3H45.2z"/>
		<path class="st2" d="M50,38.6v3.1l-1.3,0.2v-0.4c0,0,0,0.1-0.1,0.1c-0.1,0.1-0.2,0.1-0.4,0.2c-0.2,0.1-0.3,0.1-0.5,0.1l0,0
			c-0.3,0-0.6-0.1-0.8-0.2c-0.3-0.1-0.5-0.3-0.6-0.6c-0.2-0.2-0.2-0.5-0.2-0.8s0.1-0.6,0.2-0.8c0.2-0.2,0.4-0.4,0.6-0.6
			c0.1-0.1,0.4-0.1,0.7-0.1h0.1c0.2,0,0.3,0,0.5,0.1c0.1,0.1,0.3,0.1,0.3,0.2l0.1,0.1c0-0.2,0-0.3,0-0.4c0-0.2-0.1-0.3-0.3-0.4
			c-0.1-0.1-0.3-0.1-0.6-0.1l0,0c-0.2,0-0.5,0.1-0.8,0.2c-0.3,0.1-0.5,0.2-0.5,0.2l0.3-1.3c0,0,0.1,0,0.3-0.1c0.2,0,0.4-0.1,0.6-0.1
			c0.2,0,0.4,0,0.5-0.1h0.1c0.3,0,0.6,0,0.8,0.1c0.3,0.1,0.5,0.3,0.7,0.5C49.9,38,50,38.2,50,38.6z M48.6,40.3
			c0-0.2-0.1-0.3-0.2-0.4c-0.1-0.1-0.3-0.2-0.5-0.2l0,0c-0.2,0-0.3,0.1-0.5,0.2c-0.1,0.1-0.2,0.2-0.2,0.4l0,0c0,0.2,0.1,0.3,0.2,0.4
			c0.1,0.1,0.3,0.2,0.5,0.2s0.3,0,0.5-0.1C48.6,40.7,48.6,40.5,48.6,40.3z"/>
		<path class="st2" d="M54.4,37.8l-0.9,0.8c0,0,0,0-0.1-0.1l-0.1-0.1c0,0-0.1-0.1-0.2-0.1c-0.1,0-0.2-0.1-0.3-0.1s-0.3,0-0.4,0.1
			c-0.1,0.1-0.2,0.1-0.2,0.3l0,0c0,0.1,0.1,0.1,0.2,0.2c0.1,0.1,0.2,0.1,0.4,0.1s0.3,0.1,0.5,0.1c0.3,0.1,0.6,0.2,0.8,0.4
			s0.4,0.6,0.4,1l0,0c0,0.3-0.1,0.5-0.3,0.8c-0.2,0.2-0.4,0.4-0.7,0.5s-0.6,0.2-0.9,0.2h-0.1c-0.4,0-0.8-0.1-1.2-0.3
			s-0.6-0.3-0.6-0.4l0.7-1c0.1,0.1,0.2,0.2,0.4,0.3s0.4,0.2,0.6,0.2l0,0c0.2,0,0.3,0,0.4-0.1c0.1-0.1,0.2-0.1,0.2-0.2l0,0
			c0-0.1-0.1-0.2-0.2-0.2c-0.1,0-0.3-0.1-0.5-0.1C52,40,51.8,40,51.6,39.9c-0.6-0.3-0.8-0.7-0.8-1.3c0-0.3,0.1-0.5,0.2-0.8
			c0.2-0.2,0.4-0.4,0.6-0.5c0.3-0.1,0.5-0.2,0.8-0.2h0.1c0.4,0,0.7,0.1,1.1,0.3C54.2,37.6,54.4,37.7,54.4,37.8z"/>
		<g>
			<path class="st3" d="M4.9,32.8v-6.2l1.5-0.2v6.2L4.9,32.8z"/>
			<path class="st3" d="M10,32.8v-2.7c0-0.6-0.2-0.8-0.5-0.8c-0.4,0-0.5,0.3-0.5,0.8v2.6l-1.4,0.1v-4.6L8.9,28v0.5
				c0,0,0-0.1,0.1-0.1c0.1-0.1,0.2-0.2,0.4-0.2c0.2-0.1,0.4-0.1,0.6-0.1h0.1c0.4,0,0.7,0.1,1,0.4s0.4,0.6,0.4,1.1v3.2H10z"/>
			<path class="st3" d="M14.2,33.2l-2.3-4.8l1.4-0.3l0.9,2.1l0.9-2.1l1.4,0.3L14.2,33.2z"/>
			<path class="st3" d="M21.7,29.5l-2.9,1.8c0,0.1,0.1,0.1,0.3,0.2c0.1,0.1,0.3,0.1,0.5,0.1h0.1c0.2,0,0.3-0.1,0.5-0.1
				c0.2-0.1,0.3-0.1,0.4-0.2s0.2-0.1,0.2-0.1l0.7,1.1c-0.1,0.1-0.2,0.1-0.3,0.2c-0.2,0.1-0.4,0.2-0.7,0.3c-0.3,0.1-0.6,0.2-0.9,0.2
				l0,0c-0.4,0-0.9-0.1-1.2-0.3c-0.4-0.2-0.7-0.5-0.9-0.9c-0.2-0.4-0.3-0.8-0.3-1.2l0,0c0-0.4,0.1-0.8,0.3-1.1
				c0.2-0.4,0.4-0.6,0.8-0.9c0.3-0.2,0.7-0.4,1.1-0.4c0.1,0,0.2,0,0.3,0c0.3,0,0.5,0,0.8,0.1s0.6,0.3,0.8,0.5
				c0.2,0.2,0.3,0.4,0.4,0.5C21.6,29.3,21.7,29.4,21.7,29.5z M18.4,30.5l1.6-1c0,0-0.1-0.1-0.2-0.1s-0.2-0.1-0.4-0.1
				c-0.3,0-0.6,0.1-0.8,0.4C18.5,29.9,18.4,30.2,18.4,30.5z"/>
			<path class="st3" d="M26.1,28.8l-0.9,0.8c0,0,0,0-0.1-0.1L25,29.4c0,0-0.1-0.1-0.2-0.1s-0.2-0.1-0.3-0.1c-0.1,0-0.3,0-0.4,0.1
				S24,29.5,24,29.6l0,0c0,0.1,0.1,0.1,0.2,0.2s0.2,0.1,0.4,0.1c0.2,0,0.3,0.1,0.5,0.1c0.3,0.1,0.6,0.2,0.8,0.4
				c0.2,0.2,0.4,0.6,0.4,1l0,0c0,0.3-0.1,0.5-0.3,0.8c-0.2,0.2-0.4,0.4-0.7,0.5c-0.3,0.1-0.6,0.2-0.9,0.2h-0.1
				c-0.4,0-0.8-0.1-1.2-0.3c-0.4-0.2-0.6-0.3-0.6-0.4l0.7-1c0.1,0.1,0.2,0.2,0.4,0.3c0.2,0.1,0.4,0.2,0.6,0.2l0,0
				c0.2,0,0.3,0,0.4-0.1s0.2-0.1,0.2-0.2l0,0c0-0.1-0.1-0.2-0.2-0.2s-0.3-0.1-0.5-0.1c-0.3-0.1-0.5-0.1-0.7-0.2
				c-0.6-0.3-0.8-0.7-0.8-1.3c0-0.3,0.1-0.5,0.2-0.8c0.2-0.2,0.4-0.4,0.6-0.5c0.3-0.1,0.5-0.2,0.8-0.2h0.1c0.4,0,0.7,0.1,1.1,0.3
				C25.8,28.6,26,28.7,26.1,28.8z"/>
			<path class="st3" d="M29.1,29.6v1.2c0,0.2,0,0.3,0.1,0.4c0,0.1,0.1,0.2,0.2,0.2s0.2,0.1,0.4,0.1c0.1,0,0.2,0,0.3,0
				c0.1,0,0.2,0,0.2,0L30,32.9h-0.1c-0.1,0-0.1,0-0.2,0c-0.5,0-0.9-0.1-1.2-0.3c-0.5-0.3-0.8-0.8-0.8-1.4v-1.6h-0.8l0.4-1.3h0.4
				v-0.9l1.4-0.6v1.4H30v1.3L29.1,29.6L29.1,29.6z"/>
			<path class="st3" d="M32.2,27.9l-1-0.8l0.9-0.9l1,0.7L32.2,27.9z M31.5,28.3l1.4-0.2v4.6l-1.4,0.1C31.5,32.8,31.5,28.3,31.5,28.3
				z"/>
			<path class="st3" d="M38.8,27.9L38.5,29H38c0.1,0.1,0.1,0.2,0.2,0.4c0.1,0.2,0.1,0.4,0.1,0.5c0,0,0,0,0,0.1
				c0,0.3-0.1,0.5-0.2,0.7c-0.1,0.2-0.2,0.3-0.4,0.4c-0.1,0.1-0.2,0.1-0.2,0.2c0,0,0.1,0.1,0.2,0.2c0.1,0.1,0.3,0.2,0.4,0.4
				c0.1,0.2,0.2,0.4,0.2,0.7c0,0.5-0.2,1-0.7,1.3s-1,0.5-1.6,0.5c-0.7,0-1.2-0.1-1.5-0.3s-0.5-0.4-0.6-0.5l0.8-0.9
				c0,0,0.1,0.1,0.2,0.2c0.1,0.1,0.3,0.2,0.4,0.3c0.2,0.1,0.3,0.1,0.5,0.1l0,0c0.7,0,1-0.3,1-0.7c0-0.3-0.1-0.4-0.3-0.6
				c0-0.2-0.2-0.2-0.5-0.2h-0.1c-0.2,0-0.3,0-0.4,0c-0.2,0-0.3,0.1-0.4,0.1L34.9,32l0.2-0.4c-0.2-0.1-0.4-0.2-0.6-0.5
				c-0.2-0.2-0.4-0.6-0.4-1.1l0,0c0-0.4,0.1-0.7,0.3-1s0.4-0.5,0.7-0.7s0.6-0.2,1-0.2h0.1c0.2,0,0.4,0,0.6,0c0.2,0,0.4,0,0.5,0.1
				C37.9,28.1,38.3,28,38.8,27.9z M36.2,29.2c-0.2,0-0.4,0.1-0.5,0.2s-0.2,0.3-0.2,0.5c0,0,0,0,0,0.1c0,0.2,0.1,0.4,0.2,0.5
				c0.1,0.2,0.3,0.3,0.5,0.3s0.3,0,0.5-0.1c0.1-0.1,0.2-0.2,0.3-0.3c0.1-0.1,0.1-0.3,0.1-0.4l0,0c0-0.2-0.1-0.4-0.3-0.6
				C36.6,29.3,36.4,29.2,36.2,29.2z"/>
			<path class="st3" d="M43.5,29.6v3.1l-1.3,0.2v-0.4c0,0,0,0.1-0.1,0.1c-0.1,0.1-0.2,0.1-0.4,0.2c-0.2,0.1-0.3,0.1-0.5,0.1l0,0
				c-0.3,0-0.6-0.1-0.8-0.2c-0.3-0.1-0.5-0.3-0.6-0.6c-0.2-0.2-0.2-0.5-0.2-0.8s0.1-0.6,0.2-0.8c0.2-0.2,0.4-0.4,0.6-0.6
				c0.2-0.1,0.5-0.2,0.8-0.2h0.1c0.2,0,0.3,0,0.5,0.1c0.1,0.1,0.3,0.1,0.3,0.2l0.1,0.1c0-0.2,0-0.3,0-0.4c0-0.2-0.1-0.3-0.3-0.4
				c-0.1-0.1-0.3-0.1-0.6-0.1l0,0c-0.2,0-0.5,0.1-0.8,0.2S40,29.6,40,29.6l0.3-1.3c0,0,0.1,0,0.3-0.1c0.2,0,0.4-0.1,0.6-0.1
				c0.2,0,0.4,0,0.5-0.1h0.1c0.3,0,0.6,0,0.8,0.1c0.3,0.1,0.5,0.3,0.7,0.5C43.4,28.9,43.5,29.2,43.5,29.6z M42.1,31.3
				c0-0.2-0.1-0.3-0.2-0.4c-0.1-0.1-0.3-0.2-0.5-0.2l0,0c-0.2,0-0.3,0.1-0.5,0.2c-0.1,0.1-0.2,0.2-0.2,0.4l0,0
				c0,0.2,0.1,0.3,0.2,0.4c0.1,0.1,0.3,0.2,0.5,0.2s0.3,0,0.5-0.1C42,31.6,42.1,31.5,42.1,31.3z"/>
			<path class="st3" d="M48.4,28.6l-0.8,1c0,0,0,0-0.1-0.1c0,0-0.1-0.1-0.2-0.1c-0.1,0-0.2-0.1-0.3-0.1s-0.2,0-0.3,0l0,0
				c-0.3,0-0.6,0.1-0.8,0.4c-0.2,0.2-0.3,0.5-0.3,0.8v0.1c0,0.3,0.1,0.6,0.3,0.8c0.2,0.2,0.4,0.3,0.7,0.3c0.2,0,0.3,0,0.5-0.1
				c0.1,0,0.2-0.1,0.3-0.2s0.1-0.1,0.1-0.1l0.8,1c-0.1,0.1-0.3,0.2-0.6,0.4c-0.3,0.1-0.6,0.2-1,0.2l0,0c-0.5,0-0.9-0.1-1.3-0.3
				c-0.4-0.2-0.7-0.5-0.9-0.9s-0.3-0.8-0.3-1.2c0-0.4,0.1-0.8,0.3-1.2c0.2-0.4,0.5-0.7,0.9-0.9c0.4-0.2,0.8-0.3,1.3-0.3
				s0.9,0.1,1.1,0.2C48.1,28.4,48.3,28.5,48.4,28.6z"/>
			<path class="st3" d="M50.4,27.9l-1-0.8l0.9-0.9l1,0.7L50.4,27.9z M49.6,28.3l1.4-0.2v4.6l-1.4,0.1V28.3z"/>
			<path class="st3" d="M54.7,28L54.7,28c0.5,0,1,0.1,1.3,0.3c0.4,0.2,0.7,0.5,0.9,0.9s0.3,0.8,0.3,1.2l0,0c0,0.4-0.1,0.8-0.3,1.2
				c-0.2,0.4-0.5,0.6-0.8,0.9c-0.4,0.2-0.7,0.3-1.1,0.4c-0.1,0-0.1,0-0.2,0c-0.4,0-0.8-0.1-1.1-0.3c-0.4-0.2-0.7-0.5-1-0.8
				c-0.3-0.4-0.4-0.8-0.4-1.2v-0.1c0-0.4,0.1-0.8,0.3-1.1c0.2-0.4,0.5-0.7,0.9-0.9C53.8,28.2,54.2,28,54.7,28z M54.7,29.3
				c-0.2,0-0.4,0.1-0.5,0.2c-0.2,0.1-0.3,0.2-0.4,0.4c-0.1,0.2-0.1,0.3-0.1,0.5c0,0.3,0.1,0.5,0.3,0.8c0.2,0.2,0.5,0.3,0.8,0.3
				s0.6-0.1,0.8-0.3c0.2-0.2,0.3-0.5,0.3-0.8s-0.1-0.6-0.3-0.8C55.3,29.4,55,29.3,54.7,29.3L54.7,29.3z"/>
			<path class="st3" d="M60.4,32.8v-2.7c0-0.6-0.2-0.8-0.5-0.8c-0.4,0-0.5,0.3-0.5,0.8v2.6L58,32.8v-4.6l1.3-0.2v0.5
				c0,0,0-0.1,0.1-0.1c0.1-0.1,0.2-0.2,0.4-0.2c0.2-0.1,0.4-0.1,0.6-0.1h0.1c0.4,0,0.7,0.1,1,0.4s0.4,0.6,0.4,1.1v3.2
				C61.9,32.8,60.4,32.8,60.4,32.8z"/>
			<polygon class="st3" points="54.4,27.9 55.7,26.2 56.7,26.4 			"/>
		</g>
	</g>
</g>
<g>
	<g>
		<g>
			<path class="st1" d="M29.9,23.9v-6.2h3.4l0.4,1.3h-2.2v1.3h1.6v1.4h-1.6v2.1L29.9,23.9z"/>
			<path class="st1" d="M36.8,19L36.8,19c0.5,0,1,0.1,1.3,0.3c0.4,0.2,0.7,0.5,0.9,0.9s0.3,0.8,0.3,1.2l0,0c0,0.4-0.1,0.8-0.3,1.2
				s-0.5,0.6-0.8,0.9c-0.4,0.2-0.7,0.3-1.1,0.4c-0.1,0-0.1,0-0.2,0c-0.4,0-0.8-0.1-1.1-0.3c-0.4-0.2-0.7-0.5-1-0.8
				c-0.3-0.4-0.4-0.8-0.4-1.2v-0.1c0-0.4,0.1-0.8,0.3-1.1c0.2-0.4,0.5-0.7,0.9-0.9C36,19.1,36.4,19,36.8,19z M36.9,20.3
				c-0.2,0-0.4,0.1-0.5,0.2c-0.2,0.1-0.3,0.2-0.4,0.4c-0.1,0.2-0.1,0.3-0.1,0.5c0,0.3,0.1,0.5,0.3,0.8c0.2,0.2,0.5,0.3,0.8,0.3
				s0.6-0.1,0.8-0.3c0.2-0.2,0.3-0.5,0.3-0.8s-0.1-0.6-0.3-0.8C37.4,20.4,37.2,20.3,36.9,20.3L36.9,20.3z"/>
			<path class="st1" d="M41.7,21.8v1.9l-1.5,0.1v-4.5l1.4-0.2v0.7c0.1-0.2,0.3-0.4,0.5-0.5s0.5-0.2,0.7-0.2c0.1,0,0.2,0,0.2,0
				c0.1,0,0.1,0,0.1,0l-0.5,1.4c0,0,0,0-0.1,0c0,0-0.1,0-0.2,0c-0.1,0-0.2,0-0.3,0c-0.2,0.1-0.3,0.2-0.4,0.3
				c-0.1,0.2-0.1,0.4-0.1,0.7C41.7,21.6,41.7,21.7,41.7,21.8z"/>
			<path class="st1" d="M46.2,19L46.2,19c0.5,0,1,0.1,1.3,0.3c0.4,0.2,0.7,0.5,0.9,0.9s0.3,0.8,0.3,1.2l0,0c0,0.4-0.1,0.8-0.3,1.2
				s-0.5,0.6-0.8,0.9c-0.4,0.2-0.7,0.3-1.1,0.4c-0.1,0-0.1,0-0.2,0c-0.4,0-0.8-0.1-1.1-0.3c-0.4-0.2-0.7-0.5-1-0.8
				c-0.3-0.4-0.4-0.8-0.4-1.2v-0.1c0-0.4,0.1-0.8,0.3-1.1c0.2-0.4,0.5-0.7,0.9-0.9C45.4,19.1,45.8,19,46.2,19z M46.3,20.3
				c-0.2,0-0.4,0.1-0.5,0.2c-0.2,0.1-0.3,0.2-0.4,0.4c-0.1,0.2-0.1,0.3-0.1,0.5c0,0.3,0.1,0.5,0.3,0.8c0.2,0.2,0.5,0.3,0.8,0.3
				s0.6-0.1,0.8-0.3c0.2-0.2,0.3-0.5,0.3-0.8s-0.1-0.6-0.3-0.8C46.8,20.4,46.6,20.3,46.3,20.3L46.3,20.3z"/>
			<path class="st2" d="M21.8,41.9v-6.2l1.5-0.2v6.2L21.8,41.9z"/>
			<path class="st2" d="M26.6,41.9L26.6,41.9c-0.5,0-0.8-0.1-1.2-0.3c-0.4-0.2-0.7-0.5-0.9-0.9c-0.2-0.4-0.3-0.8-0.3-1.2l0,0
				c0-0.4,0.1-0.8,0.3-1.2c0.2-0.4,0.5-0.7,0.8-0.9s0.7-0.3,1.2-0.3s1,0.2,1.3,0.5v-1.9l1.4-0.2v6.3l-1.4,0.1v-0.4
				c-0.1,0.1-0.2,0.2-0.4,0.3C27.2,41.9,26.9,41.9,26.6,41.9z M25.6,39.4L25.6,39.4c0,0.4,0.1,0.6,0.3,0.8c0.2,0.2,0.4,0.4,0.7,0.4
				h0.1c0.3,0,0.5-0.1,0.7-0.3s0.4-0.4,0.4-0.7v-0.1c0-0.2,0-0.3-0.1-0.5s-0.2-0.4-0.4-0.5c-0.2-0.1-0.4-0.2-0.6-0.2l0,0
				c-0.3,0-0.5,0.1-0.8,0.3C25.8,38.9,25.7,39.1,25.6,39.4z"/>
			<path class="st2" d="M31.5,37l-1-0.8l0.9-0.9l1,0.7L31.5,37z M30.7,37.3l1.4-0.2v4.6l-1.4,0.1C30.7,41.8,30.7,37.3,30.7,37.3z"/>
			<path class="st2" d="M35.8,37L35.8,37c0.5,0,1,0.1,1.3,0.3c0.4,0.2,0.7,0.5,0.9,0.9s0.3,0.8,0.3,1.2l0,0c0,0.4-0.1,0.8-0.3,1.2
				s-0.5,0.6-0.8,0.9c-0.4,0.2-0.7,0.3-1.1,0.4c-0.1,0-0.1,0-0.2,0c-0.4,0-0.8-0.1-1.1-0.3c-0.4-0.2-0.7-0.5-1-0.8
				c-0.3-0.4-0.4-0.8-0.4-1.2v-0.1c0-0.4,0.1-0.8,0.3-1.1c0.2-0.4,0.5-0.7,0.9-0.9C34.9,37.2,35.3,37,35.8,37z M35.8,38.4
				c-0.2,0-0.4,0.1-0.5,0.2c-0.2,0.1-0.3,0.2-0.4,0.4c-0.1,0.2-0.1,0.3-0.1,0.5c0,0.3,0.1,0.5,0.3,0.8c0.2,0.2,0.5,0.3,0.8,0.3
				s0.6-0.1,0.8-0.3s0.3-0.5,0.3-0.8s-0.1-0.6-0.3-0.8C36.4,38.5,36.2,38.4,35.8,38.4L35.8,38.4z"/>
			<path class="st2" d="M45.2,41.7l-1.4,0.1V39c0-0.2,0-0.4-0.1-0.5s-0.2-0.2-0.3-0.2h-0.1c-0.2,0-0.3,0.1-0.4,0.2
				c-0.1,0.1-0.1,0.3-0.1,0.5c0,0.1,0,0.1,0,0.2v2.4l-1.4,0.2v-2.7c0-0.5-0.1-0.8-0.4-0.8h-0.1c-0.2,0-0.3,0.1-0.4,0.2
				c-0.1,0.1-0.1,0.4-0.1,0.7v2.5L39,41.8v-4.6l1.3-0.2v0.5c0,0,0-0.1,0.1-0.1c0.1-0.1,0.2-0.1,0.3-0.2c0.1-0.1,0.3-0.1,0.5-0.1h0.1
				c0.1,0,0.2,0,0.4,0.1c0.1,0.1,0.3,0.1,0.3,0.2c0.1,0.1,0.1,0.1,0.2,0.2c0.1,0.1,0.1,0.1,0.1,0.1c0.2-0.2,0.3-0.3,0.5-0.4
				c0.2-0.1,0.4-0.1,0.7-0.1l0,0c0.3,0,0.5,0.1,0.8,0.2c0.2,0.1,0.4,0.3,0.6,0.5c0.1,0.2,0.2,0.5,0.2,0.8v3H45.2z"/>
			<path class="st2" d="M50,38.6v3.1l-1.3,0.2v-0.4c0,0,0,0.1-0.1,0.1c-0.1,0.1-0.2,0.1-0.4,0.2c-0.2,0.1-0.3,0.1-0.5,0.1l0,0
				c-0.3,0-0.6-0.1-0.8-0.2c-0.3-0.1-0.5-0.3-0.6-0.6c-0.2-0.2-0.2-0.5-0.2-0.8s0.1-0.6,0.2-0.8c0.2-0.2,0.4-0.4,0.6-0.6
				c0.1-0.1,0.4-0.1,0.7-0.1h0.1c0.2,0,0.3,0,0.5,0.1c0.1,0.1,0.3,0.1,0.3,0.2l0.1,0.1c0-0.2,0-0.3,0-0.4c0-0.2-0.1-0.3-0.3-0.4
				c-0.1-0.1-0.3-0.1-0.6-0.1l0,0c-0.2,0-0.5,0.1-0.8,0.2c-0.3,0.1-0.5,0.2-0.5,0.2l0.3-1.3c0,0,0.1,0,0.3-0.1
				c0.2,0,0.4-0.1,0.6-0.1c0.2,0,0.4,0,0.5-0.1h0.1c0.3,0,0.6,0,0.8,0.1c0.3,0.1,0.5,0.3,0.7,0.5C49.9,38,50,38.2,50,38.6z
				 M48.6,40.3c0-0.2-0.1-0.3-0.2-0.4c-0.1-0.1-0.3-0.2-0.5-0.2l0,0c-0.2,0-0.3,0.1-0.5,0.2c-0.1,0.1-0.2,0.2-0.2,0.4l0,0
				c0,0.2,0.1,0.3,0.2,0.4c0.1,0.1,0.3,0.2,0.5,0.2s0.3,0,0.5-0.1C48.6,40.7,48.6,40.5,48.6,40.3z"/>
			<path class="st2" d="M54.4,37.8l-0.9,0.8c0,0,0,0-0.1-0.1l-0.1-0.1c0,0-0.1-0.1-0.2-0.1c-0.1,0-0.2-0.1-0.3-0.1s-0.3,0-0.4,0.1
				c-0.1,0.1-0.2,0.1-0.2,0.3l0,0c0,0.1,0.1,0.1,0.2,0.2c0.1,0.1,0.2,0.1,0.4,0.1s0.3,0.1,0.5,0.1c0.3,0.1,0.6,0.2,0.8,0.4
				s0.4,0.6,0.4,1l0,0c0,0.3-0.1,0.5-0.3,0.8c-0.2,0.2-0.4,0.4-0.7,0.5s-0.6,0.2-0.9,0.2h-0.1c-0.4,0-0.8-0.1-1.2-0.3
				s-0.6-0.3-0.6-0.4l0.7-1c0.1,0.1,0.2,0.2,0.4,0.3s0.4,0.2,0.6,0.2l0,0c0.2,0,0.3,0,0.4-0.1c0.1-0.1,0.2-0.1,0.2-0.2l0,0
				c0-0.1-0.1-0.2-0.2-0.2c-0.1,0-0.3-0.1-0.5-0.1C52,40,51.8,40,51.6,39.9c-0.6-0.3-0.8-0.7-0.8-1.3c0-0.3,0.1-0.5,0.2-0.8
				c0.2-0.2,0.4-0.4,0.6-0.5c0.3-0.1,0.5-0.2,0.8-0.2h0.1c0.4,0,0.7,0.1,1.1,0.3C54.2,37.6,54.4,37.7,54.4,37.8z"/>
			<g>
				<path class="st3" d="M4.9,32.8v-6.2l1.5-0.2v6.2L4.9,32.8z"/>
				<path class="st3" d="M10,32.8v-2.7c0-0.6-0.2-0.8-0.5-0.8c-0.4,0-0.5,0.3-0.5,0.8v2.6l-1.4,0.1v-4.6L8.9,28v0.5
					c0,0,0-0.1,0.1-0.1c0.1-0.1,0.2-0.2,0.4-0.2c0.2-0.1,0.4-0.1,0.6-0.1h0.1c0.4,0,0.7,0.1,1,0.4s0.4,0.6,0.4,1.1v3.2H10z"/>
				<path class="st3" d="M14.2,33.2l-2.3-4.8l1.4-0.3l0.9,2.1l0.9-2.1l1.4,0.3L14.2,33.2z"/>
				<path class="st3" d="M21.7,29.5l-2.9,1.8c0,0.1,0.1,0.1,0.3,0.2c0.1,0.1,0.3,0.1,0.5,0.1h0.1c0.2,0,0.3-0.1,0.5-0.1
					c0.2-0.1,0.3-0.1,0.4-0.2s0.2-0.1,0.2-0.1l0.7,1.1c-0.1,0.1-0.2,0.1-0.3,0.2c-0.2,0.1-0.4,0.2-0.7,0.3c-0.3,0.1-0.6,0.2-0.9,0.2
					l0,0c-0.4,0-0.9-0.1-1.2-0.3c-0.4-0.2-0.7-0.5-0.9-0.9c-0.2-0.4-0.3-0.8-0.3-1.2l0,0c0-0.4,0.1-0.8,0.3-1.1
					c0.2-0.4,0.4-0.6,0.8-0.9c0.3-0.2,0.7-0.4,1.1-0.4c0.1,0,0.2,0,0.3,0c0.3,0,0.5,0,0.8,0.1s0.6,0.3,0.8,0.5
					c0.2,0.2,0.3,0.4,0.4,0.5C21.6,29.3,21.7,29.4,21.7,29.5z M18.4,30.5l1.6-1c0,0-0.1-0.1-0.2-0.1s-0.2-0.1-0.4-0.1
					c-0.3,0-0.6,0.1-0.8,0.4C18.5,29.9,18.4,30.2,18.4,30.5z"/>
				<path class="st3" d="M26.1,28.8l-0.9,0.8c0,0,0,0-0.1-0.1L25,29.4c0,0-0.1-0.1-0.2-0.1s-0.2-0.1-0.3-0.1c-0.1,0-0.3,0-0.4,0.1
					S24,29.5,24,29.6l0,0c0,0.1,0.1,0.1,0.2,0.2s0.2,0.1,0.4,0.1c0.2,0,0.3,0.1,0.5,0.1c0.3,0.1,0.6,0.2,0.8,0.4
					c0.2,0.2,0.4,0.6,0.4,1l0,0c0,0.3-0.1,0.5-0.3,0.8c-0.2,0.2-0.4,0.4-0.7,0.5c-0.3,0.1-0.6,0.2-0.9,0.2h-0.1
					c-0.4,0-0.8-0.1-1.2-0.3c-0.4-0.2-0.6-0.3-0.6-0.4l0.7-1c0.1,0.1,0.2,0.2,0.4,0.3c0.2,0.1,0.4,0.2,0.6,0.2l0,0
					c0.2,0,0.3,0,0.4-0.1s0.2-0.1,0.2-0.2l0,0c0-0.1-0.1-0.2-0.2-0.2s-0.3-0.1-0.5-0.1c-0.3-0.1-0.5-0.1-0.7-0.2
					c-0.6-0.3-0.8-0.7-0.8-1.3c0-0.3,0.1-0.5,0.2-0.8c0.2-0.2,0.4-0.4,0.6-0.5c0.3-0.1,0.5-0.2,0.8-0.2h0.1c0.4,0,0.7,0.1,1.1,0.3
					C25.8,28.6,26,28.7,26.1,28.8z"/>
				<path class="st3" d="M29.1,29.6v1.2c0,0.2,0,0.3,0.1,0.4c0,0.1,0.1,0.2,0.2,0.2s0.2,0.1,0.4,0.1c0.1,0,0.2,0,0.3,0
					c0.1,0,0.2,0,0.2,0L30,32.9h-0.1c-0.1,0-0.1,0-0.2,0c-0.5,0-0.9-0.1-1.2-0.3c-0.5-0.3-0.8-0.8-0.8-1.4v-1.6h-0.8l0.4-1.3h0.4
					v-0.9l1.4-0.6v1.4H30v1.3L29.1,29.6L29.1,29.6z"/>
				<path class="st3" d="M32.2,27.9l-1-0.8l0.9-0.9l1,0.7L32.2,27.9z M31.5,28.3l1.4-0.2v4.6l-1.4,0.1
					C31.5,32.8,31.5,28.3,31.5,28.3z"/>
				<path class="st3" d="M38.8,27.9L38.5,29H38c0.1,0.1,0.1,0.2,0.2,0.4c0.1,0.2,0.1,0.4,0.1,0.5c0,0,0,0,0,0.1
					c0,0.3-0.1,0.5-0.2,0.7c-0.1,0.2-0.2,0.3-0.4,0.4c-0.1,0.1-0.2,0.1-0.2,0.2c0,0,0.1,0.1,0.2,0.2c0.1,0.1,0.3,0.2,0.4,0.4
					c0.1,0.2,0.2,0.4,0.2,0.7c0,0.5-0.2,1-0.7,1.3s-1,0.5-1.6,0.5c-0.7,0-1.2-0.1-1.5-0.3s-0.5-0.4-0.6-0.5l0.8-0.9
					c0,0,0.1,0.1,0.2,0.2c0.1,0.1,0.3,0.2,0.4,0.3c0.2,0.1,0.3,0.1,0.5,0.1l0,0c0.7,0,1-0.3,1-0.7c0-0.3-0.1-0.4-0.3-0.6
					c0-0.2-0.2-0.2-0.5-0.2h-0.1c-0.2,0-0.3,0-0.4,0c-0.2,0-0.3,0.1-0.4,0.1L34.9,32l0.2-0.4c-0.2-0.1-0.4-0.2-0.6-0.5
					c-0.2-0.2-0.4-0.6-0.4-1.1l0,0c0-0.4,0.1-0.7,0.3-1s0.4-0.5,0.7-0.7s0.6-0.2,1-0.2h0.1c0.2,0,0.4,0,0.6,0c0.2,0,0.4,0,0.5,0.1
					C37.9,28.1,38.3,28,38.8,27.9z M36.2,29.2c-0.2,0-0.4,0.1-0.5,0.2s-0.2,0.3-0.2,0.5c0,0,0,0,0,0.1c0,0.2,0.1,0.4,0.2,0.5
					c0.1,0.2,0.3,0.3,0.5,0.3s0.3,0,0.5-0.1c0.1-0.1,0.2-0.2,0.3-0.3c0.1-0.1,0.1-0.3,0.1-0.4l0,0c0-0.2-0.1-0.4-0.3-0.6
					C36.6,29.3,36.4,29.2,36.2,29.2z"/>
				<path class="st3" d="M43.5,29.6v3.1l-1.3,0.2v-0.4c0,0,0,0.1-0.1,0.1c-0.1,0.1-0.2,0.1-0.4,0.2c-0.2,0.1-0.3,0.1-0.5,0.1l0,0
					c-0.3,0-0.6-0.1-0.8-0.2c-0.3-0.1-0.5-0.3-0.6-0.6c-0.2-0.2-0.2-0.5-0.2-0.8s0.1-0.6,0.2-0.8c0.2-0.2,0.4-0.4,0.6-0.6
					c0.2-0.1,0.5-0.2,0.8-0.2h0.1c0.2,0,0.3,0,0.5,0.1c0.1,0.1,0.3,0.1,0.3,0.2l0.1,0.1c0-0.2,0-0.3,0-0.4c0-0.2-0.1-0.3-0.3-0.4
					c-0.1-0.1-0.3-0.1-0.6-0.1l0,0c-0.2,0-0.5,0.1-0.8,0.2S40,29.6,40,29.6l0.3-1.3c0,0,0.1,0,0.3-0.1c0.2,0,0.4-0.1,0.6-0.1
					c0.2,0,0.4,0,0.5-0.1h0.1c0.3,0,0.6,0,0.8,0.1c0.3,0.1,0.5,0.3,0.7,0.5C43.4,28.9,43.5,29.2,43.5,29.6z M42.1,31.3
					c0-0.2-0.1-0.3-0.2-0.4c-0.1-0.1-0.3-0.2-0.5-0.2l0,0c-0.2,0-0.3,0.1-0.5,0.2c-0.1,0.1-0.2,0.2-0.2,0.4l0,0
					c0,0.2,0.1,0.3,0.2,0.4c0.1,0.1,0.3,0.2,0.5,0.2s0.3,0,0.5-0.1C42,31.6,42.1,31.5,42.1,31.3z"/>
				<path class="st3" d="M48.4,28.6l-0.8,1c0,0,0,0-0.1-0.1c0,0-0.1-0.1-0.2-0.1c-0.1,0-0.2-0.1-0.3-0.1s-0.2,0-0.3,0l0,0
					c-0.3,0-0.6,0.1-0.8,0.4c-0.2,0.2-0.3,0.5-0.3,0.8v0.1c0,0.3,0.1,0.6,0.3,0.8c0.2,0.2,0.4,0.3,0.7,0.3c0.2,0,0.3,0,0.5-0.1
					c0.1,0,0.2-0.1,0.3-0.2s0.1-0.1,0.1-0.1l0.8,1c-0.1,0.1-0.3,0.2-0.6,0.4c-0.3,0.1-0.6,0.2-1,0.2l0,0c-0.5,0-0.9-0.1-1.3-0.3
					c-0.4-0.2-0.7-0.5-0.9-0.9s-0.3-0.8-0.3-1.2c0-0.4,0.1-0.8,0.3-1.2c0.2-0.4,0.5-0.7,0.9-0.9c0.4-0.2,0.8-0.3,1.3-0.3
					s0.9,0.1,1.1,0.2C48.1,28.4,48.3,28.5,48.4,28.6z"/>
				<path class="st3" d="M50.4,27.9l-1-0.8l0.9-0.9l1,0.7L50.4,27.9z M49.6,28.3l1.4-0.2v4.6l-1.4,0.1V28.3z"/>
				<path class="st3" d="M54.7,28L54.7,28c0.5,0,1,0.1,1.3,0.3c0.4,0.2,0.7,0.5,0.9,0.9s0.3,0.8,0.3,1.2l0,0c0,0.4-0.1,0.8-0.3,1.2
					c-0.2,0.4-0.5,0.6-0.8,0.9c-0.4,0.2-0.7,0.3-1.1,0.4c-0.1,0-0.1,0-0.2,0c-0.4,0-0.8-0.1-1.1-0.3c-0.4-0.2-0.7-0.5-1-0.8
					c-0.3-0.4-0.4-0.8-0.4-1.2v-0.1c0-0.4,0.1-0.8,0.3-1.1c0.2-0.4,0.5-0.7,0.9-0.9C53.8,28.2,54.2,28,54.7,28z M54.7,29.3
					c-0.2,0-0.4,0.1-0.5,0.2c-0.2,0.1-0.3,0.2-0.4,0.4c-0.1,0.2-0.1,0.3-0.1,0.5c0,0.3,0.1,0.5,0.3,0.8c0.2,0.2,0.5,0.3,0.8,0.3
					s0.6-0.1,0.8-0.3c0.2-0.2,0.3-0.5,0.3-0.8s-0.1-0.6-0.3-0.8C55.3,29.4,55,29.3,54.7,29.3L54.7,29.3z"/>
				<path class="st3" d="M60.4,32.8v-2.7c0-0.6-0.2-0.8-0.5-0.8c-0.4,0-0.5,0.3-0.5,0.8v2.6L58,32.8v-4.6l1.3-0.2v0.5
					c0,0,0-0.1,0.1-0.1c0.1-0.1,0.2-0.2,0.4-0.2c0.2-0.1,0.4-0.1,0.6-0.1h0.1c0.4,0,0.7,0.1,1,0.4s0.4,0.6,0.4,1.1v3.2
					C61.9,32.8,60.4,32.8,60.4,32.8z"/>
				<polygon class="st3" points="54.4,27.9 55.7,26.2 56.7,26.4 				"/>
			</g>
		</g>
		<g>
			<path class="st4" d="M13.1,25.3c-0.3,0.6-1,0.9-1.7,0.9c-1.1,0-2-0.9-2.8-1.7c-0.3-0.3-0.5-0.5-0.7-0.7c-0.5,0.4-1,0.6-1.6,0.6
				c-1.3,0-1.8-0.9-1.8-2.3c0-1,0.3-2.2,0.7-3.1c-0.2,0-0.3,0-0.6,0c-1.2,0-2-0.6-2-1.6c0-0.6,0.2-0.9,0.6-1.3c0,0,0.1-0.1,0.2-0.1
				c0.1,0,0.1,0,0.2,0.1c0,0,0.1,0.1,0.1,0.2s0,0.1-0.1,0.2c-0.3,0.3-0.5,0.6-0.5,1c0,0.8,0.7,1.1,1.6,1.1c0.4,0,0.6,0,0.9-0.1
				c0.4-1.3,1.2-2.3,2.3-2.3c0.3,0,0.5,0.2,0.5,0.5c0,0.9-1.6,1.8-2.7,2.1C5.2,19.8,5,21,5,22c0,1.1,0.3,1.8,1.3,1.8
				c0.4,0,0.8-0.2,1.2-0.4c-0.3-0.2-0.6-0.3-0.8-0.3c-0.2,0-0.4,0.1-0.5,0.2c0,0-0.1,0.1-0.2,0.1s-0.2-0.1-0.2-0.2s0-0.1,0.1-0.2
				c0.2-0.2,0.5-0.3,0.8-0.3c0.4,0,0.8,0.2,1.2,0.4L8,23c1.2-1.2,2.1-3.6,2.1-5.3c0-1-0.3-1.7-1.2-1.7c-0.2,0-0.5,0.1-0.7,0.1
				c-0.1,0-0.2-0.2-0.2-0.2c0-0.3,0.4-0.4,0.9-0.4c1.2,0,1.7,0.9,1.7,2.2c0,1.8-1,4.4-2.2,5.6l-0.1,0.1c0.2,0.2,0.5,0.5,0.7,0.7
				c0.7,0.8,1.5,1.6,2.4,1.6c0.5,0,1.1-0.2,1.2-0.6c0-0.1,0.1-0.1,0.2-0.1C13,25,13.1,25.1,13.1,25.3C13.1,25.2,13.1,25.3,13.1,25.3
				z M8,16.8c0-0.1-0.1-0.1-0.2-0.1c-0.7,0-1.3,0.8-1.8,1.5C6.9,17.9,8,17.2,8,16.8z"/>
			<path class="st4" d="M15.4,21.4C15.4,21.5,15.4,21.5,15.4,21.4c-0.7,1.7-1.3,2.4-2,2.4c-0.5,0-0.7-0.3-0.8-0.8
				c-0.3,0.5-0.8,0.8-1.3,0.8l0,0c-0.7,0-1.1-0.4-1.1-1.2c0-0.6,0.3-1.2,1.3-4c0-0.1,0.1-0.1,0.2-0.1c0.2,0,0.3,0.2,0.2,0.3
				c-1.2,3.1-1.3,3.4-1.3,3.8c0,0.5,0.2,0.7,0.6,0.7c0.5,0,0.9-0.4,1.3-1.1c0.4-0.8,0.8-1.9,1.4-3.5c0-0.1,0.1-0.1,0.2-0.1
				c0.2,0,0.3,0.2,0.2,0.3c-0.2,0.6-0.5,1.2-0.6,1.7c-0.4,1.1-0.7,2-0.7,2.3s0.1,0.5,0.3,0.5c0.5,0,1-0.6,1.6-2
				c0-0.1,0.1-0.1,0.2-0.1h0.1C15.3,21.3,15.4,21.4,15.4,21.4z"/>
			<path class="st4" d="M17.4,21.4C17.4,21.5,17.4,21.5,17.4,21.4c-0.6,1.3-1.1,2.4-2.1,2.4c-0.5,0-0.8-0.4-0.8-0.9
				c0-0.9,0.8-2.9,1.3-4.1c0-0.1,0.1-0.2,0.2-0.2s0.3,0.1,0.2,0.3c-1.1,3-1.3,3.5-1.3,4c0,0.3,0.1,0.5,0.3,0.5c0.7,0,1.2-1.1,1.6-2
				c0-0.1,0.1-0.1,0.2-0.1h0.1C17.4,21.3,17.4,21.4,17.4,21.4z M16.2,17.7c0-0.2,0.2-0.4,0.4-0.4s0.4,0.2,0.4,0.4s-0.2,0.4-0.4,0.4
				S16.2,17.9,16.2,17.7z"/>
			<path class="st4" d="M21.8,21.4C21.8,21.5,21.8,21.5,21.8,21.4c-0.8,1.8-1.3,2.4-2,2.4c-0.5,0-0.8-0.4-0.8-0.9
				c0-1,0.9-2.3,0.9-3.3c0-0.3-0.1-0.6-0.6-0.6c-0.7,0-1.5,1.5-1.9,2.4l-0.8,2.2c0,0.1-0.2,0.2-0.3,0.2c-0.1,0-0.2-0.2-0.1-0.3
				c0.6-1.6,1.3-3.6,1.7-4.8c0-0.1,0.1-0.2,0.2-0.2c0.2,0,0.3,0.2,0.2,0.3L18.2,19c0.3-0.3,0.7-0.5,1-0.5c0.8,0,1,0.5,1,1
				c0,1-0.9,2.4-0.9,3.3c0,0.3,0.1,0.5,0.3,0.5c0.5,0,0.9-0.6,1.6-2c0-0.1,0.1-0.1,0.2-0.1h0.1C21.8,21.3,21.8,21.4,21.8,21.4z"/>
			<path class="st4" d="M24.1,21.4C24.1,21.5,24.1,21.5,24.1,21.4c-0.7,1.5-1.3,2.4-2.3,2.4c-0.5,0-0.8-0.4-0.8-0.9
				c0-0.4,0.3-1.4,0.6-2.3l0.6-1.6h-0.7c-0.1,0-0.2-0.1-0.2-0.2s0.1-0.2,0.2-0.2h0.9L23,17c0-0.1,0.1-0.2,0.2-0.2
				c0.2,0,0.3,0.2,0.2,0.3c0-0.1-0.4,1.3-0.5,1.5h0.7c0.1,0,0.2,0.1,0.2,0.2S23.7,19,23.6,19h-0.9c-0.1,0.3-0.3,0.8-0.6,1.8
				c-0.5,1.3-0.6,1.8-0.6,2.1c0,0.3,0.1,0.5,0.4,0.5c0.8,0,1.3-0.9,1.8-2.1c0-0.1,0.1-0.1,0.2-0.1H24C24.1,21.3,24.1,21.4,24.1,21.4
				z"/>
			<path class="st4" d="M26.8,23.2c-0.3,0-0.6-0.1-0.8-0.3c-0.4,0.6-1,1-1.5,1c-0.7,0-1-0.5-1-1.1c0-1.3,0.6-2.4,0.9-3
				c0.5-0.8,1-1.2,1.6-1.2c0.7,0,1.1,0.5,1.1,1.2s-0.4,1.8-0.9,2.6c0.1,0.2,0.3,0.2,0.6,0.2c0.5,0,0.9-0.4,1.2-1.3
				c0-0.1,0.1-0.1,0.2-0.1c0.2,0,0.3,0.2,0.2,0.3C28,22.7,27.4,23.2,26.8,23.2z M26.1,21.5c0,0.1,0,0.2,0,0.3c0.3-0.7,0.6-1.4,0.6-2
				c0-0.5-0.3-0.7-0.7-0.7c-0.4,0-0.8,0.4-1.1,0.9c-0.3,0.5-0.9,1.5-0.9,2.7c0,0.4,0.1,0.7,0.5,0.7s0.9-0.4,1.2-1
				c-0.1-0.3-0.1-0.8,0-1.1c0-0.1,0.1-0.2,0.2-0.2C26,21.2,26.1,21.4,26.1,21.5z"/>
		</g>
	</g>
	<g>
		<path class="st4" d="M53.8,22.8C53.8,22.8,53.8,22.9,53.8,22.8c-0.5,1.1-1,1.9-1.8,1.9c-0.4,0-0.6-0.3-0.6-0.8
			c-0.3,0.4-0.7,0.8-1.1,0.8c-0.5,0-0.7-0.4-0.7-0.9c0-1.1,0.9-3.1,1.9-3.1c0.4,0,0.6,0.2,0.8,0.4l0.2-0.4l0.5-1.3
			c0-0.1,0.1-0.1,0.2-0.1c0.1,0,0.2,0.1,0.2,0.2c-0.1,0.2-1.1,3.2-1.2,3.4c-0.1,0.4-0.3,0.9-0.3,1.1s0.1,0.4,0.3,0.4
			c0.6,0,1-0.7,1.4-1.6c0-0.1,0.1-0.1,0.2-0.1c0,0,0,0,0.1,0C53.8,22.7,53.8,22.8,53.8,22.8z M51.8,22.2c0.1-0.2,0.1-0.4,0.2-0.5
			c0,0,0,0,0-0.1c0-0.4-0.2-0.6-0.5-0.6c-0.8,0-1.5,1.9-1.5,2.7c0,0.4,0.1,0.6,0.3,0.6C51,24.3,51.5,23.1,51.8,22.2z"/>
		<path class="st4" d="M56.5,22.8C56.5,22.9,56.5,22.9,56.5,22.8c-0.6,1.3-1.2,1.9-2.1,1.9c-0.7,0-1.1-0.5-1.1-1.2
			c0.1-1.1,0.9-2.9,2-2.9c0.4,0,0.7,0.2,0.7,0.6c0,0.9-1.3,1.5-2.2,1.7c-0.1,0.2-0.1,0.4-0.1,0.6c0,0.5,0.3,0.8,0.8,0.8
			c0.7,0,1.3-0.5,1.7-1.6c0-0.1,0.1-0.1,0.2-0.1C56.5,22.7,56.5,22.8,56.5,22.8z M55.6,21.3c0-0.2-0.2-0.3-0.4-0.3
			c-0.6,0-1.1,0.9-1.4,1.6C54.6,22.3,55.6,21.9,55.6,21.3z"/>
	</g>
	<g>
		<path class="st4" d="M16.7,37.7C16.7,37.8,16.7,37.8,16.7,37.7c-0.6,1.3-1.2,1.9-2.1,1.9c-0.7,0-1.1-0.5-1.1-1.2
			c0.1-1.1,0.9-2.9,2-2.9c0.4,0,0.7,0.2,0.7,0.6c0,0.9-1.3,1.5-2.2,1.7c-0.1,0.2-0.1,0.4-0.1,0.6c0,0.5,0.3,0.8,0.8,0.8
			c0.7,0,1.3-0.5,1.7-1.6c0-0.1,0.1-0.1,0.2-0.1C16.7,37.6,16.7,37.7,16.7,37.7z M15.8,36.2c0-0.2-0.2-0.3-0.4-0.3
			c-0.6,0-1.1,0.9-1.4,1.6C14.8,37.2,15.8,36.8,15.8,36.2z"/>
		<path class="st4" d="M20.1,37.7C20.1,37.7,20.1,37.8,20.1,37.7c-0.6,1.4-1,1.9-1.6,1.9c-0.4,0-0.6-0.3-0.6-0.7
			c0-0.8,0.7-1.8,0.7-2.5c0-0.2-0.1-0.4-0.4-0.4c-0.5,0-1.2,1.2-1.4,1.9l-0.6,1.7c0,0.1-0.1,0.1-0.2,0.1s-0.1-0.1-0.1-0.2
			c0.4-1.2,1-2.8,1.3-3.7c0-0.1,0.1-0.1,0.2-0.1s0.2,0.1,0.2,0.2l-0.1,0.2c0.2-0.3,0.5-0.4,0.8-0.4c0.6,0,0.8,0.4,0.8,0.8
			c0,0.8-0.7,1.9-0.7,2.5c0,0.2,0.1,0.4,0.3,0.4c0.4,0,0.7-0.5,1.2-1.6C19.9,37.7,20,37.7,20.1,37.7L20.1,37.7
			C20.1,37.6,20.1,37.7,20.1,37.7z"/>
	</g>
</g>
<g>
	<g class="st5">
		<g>
			<path class="st3" d="M7.4,10.4H5.5v2H4.3V5.7c1,0,2.1,0,3.1,0C10.7,5.7,10.7,10.4,7.4,10.4z M5.5,9.3h1.9c1.6,0,1.6-2.4,0-2.4
				H5.5V9.3z"/>
		</g>
		<g>
			<path class="st3" d="M16.7,12.4h-1.5l-1.9-2.2H12v2.2h-1.3V5.7c1.1,0,2.1,0,3.2,0c1.6,0,2.4,1.1,2.4,2.2c0,0.9-0.4,1.8-1.7,2.1
				L16.7,12.4L16.7,12.4z M12,6.9V9h1.9c0.8,0,1.1-0.5,1.1-1.1s-0.4-1.1-1.1-1.1H12z"/>
		</g>
		<g>
			<path class="st3" d="M23.7,9.1c0,1.7-1.1,3.5-3.4,3.5c-2.3,0-3.4-1.7-3.4-3.4s1.1-3.5,3.4-3.5C22.6,5.6,23.7,7.4,23.7,9.1z
				 M18.1,9.1c0,1.1,0.6,2.3,2.2,2.3c1.6,0,2.2-1.2,2.2-2.3c0-1.1-0.6-2.4-2.2-2.4C18.7,6.7,18.1,8,18.1,9.1z"/>
		</g>
		<g>
			<path class="st3" d="M29.6,7.4c-0.4-0.4-1.1-0.7-1.7-0.7c-1.4,0-2.3,1.1-2.3,2.5c0,1.1,0.6,2.2,2.3,2.2c0.5,0,1-0.1,1.5-0.5V9.7
				h-1.7V8.5h2.9v2.8c-0.7,0.8-1.5,1.2-2.7,1.2c-2.5,0-3.5-1.6-3.5-3.4c0-1.9,1.2-3.6,3.5-3.6c0.9,0,1.8,0.3,2.5,1L29.6,7.4z"/>
		</g>
		<g>
			<path class="st3" d="M37.4,12.4h-1.5L34,10.2h-1.2v2.2h-1.3V5.7c1.1,0,2.1,0,3.2,0c1.6,0,2.4,1.1,2.4,2.2c0,0.9-0.4,1.8-1.7,2.1
				L37.4,12.4L37.4,12.4z M32.8,6.9V9h1.9c0.8,0,1.1-0.5,1.1-1.1s-0.4-1.1-1.1-1.1H32.8z"/>
		</g>
		<g>
			<path class="st3" d="M42.7,11.1h-3.5l-0.6,1.3h-1.4l3-6.7h1.4l3,6.7h-1.4L42.7,11.1z M40.9,7.1L39.7,10h2.5L40.9,7.1z"/>
		</g>
		<g>
			<path class="st3" d="M50.9,7.6l-2.2,2.9h-0.2l-2.1-2.9v4.9h-1.3V5.7h1.4l2.1,2.9l2.1-2.9h1.4v6.7h-1.3V7.6z"/>
		</g>
		<g>
			<path class="st3" d="M58.1,11.1h-3.5L54,12.4h-1.4l3-6.7H57l3,6.7h-1.4L58.1,11.1z M56.3,7.1L55.1,10h2.5L56.3,7.1z"/>
		</g>
	</g>
	<g>
		<g class="st5">
			<g>
				<path class="st1" d="M6.4,13.3h-3V4.9l4,0c2.2,0,3.3,1.6,3.3,3.2c0,0.8-0.3,1.6-0.8,2.2c-0.4,0.5-1.2,1-2.5,1h-1V13.3z M6.4,8.4
					h1c0.1,0,0.2,0,0.3-0.1c0-0.1,0.1-0.1,0.1-0.2c0-0.3-0.2-0.3-0.3-0.3h-1V8.4z"/>
			</g>
			<g>
				<path class="st1" d="M16.7,13.3h-1.9l-1.9-2.2v2.2h-3V4.8l4,0c2.2,0,3.3,1.6,3.3,3.1c0,1-0.4,1.9-1.1,2.4l1.5,1.6v1.2L16.7,13.3
					z M12.9,8.2h1c0.3,0,0.3-0.1,0.3-0.2c0-0.1,0-0.2-0.3-0.2h-1V8.2z"/>
			</g>
			<g>
				<path class="st1" d="M20.3,13.4c-3,0-4.3-2.2-4.3-4.3c0-2.2,1.5-4.4,4.3-4.4c1.2,0,2.3,0.4,3.1,1.2c0.8,0.8,1.3,2,1.2,3.2v0
					C24.6,11.2,23.2,13.4,20.3,13.4z M20.3,7.6c-0.4,0-0.7,0.1-0.9,0.3C19.1,8.2,19,8.7,19,9.1v0c0,0.6,0.3,1.4,1.3,1.4
					c1.1,0,1.3-0.8,1.3-1.4c0-0.5-0.1-0.9-0.4-1.2C21,7.7,20.7,7.6,20.3,7.6z"/>
			</g>
			<g>
				<path class="st1" d="M27.9,13.4c-3.3,0-4.4-2.3-4.4-4.3c0-2.2,1.4-4.5,4.4-4.5c1.2,0,2.3,0.5,3.1,1.3l0.6,0.6l-1.1,1.1h0.9v4
					l-0.2,0.2C30.3,12.9,29.3,13.4,27.9,13.4z M26.8,8c-0.2,0.3-0.3,0.7-0.3,1.1c0,0.3,0.1,0.7,0.3,1V8z M27.3,7.7h1.1
					C28.1,7.5,27.6,7.6,27.3,7.7z"/>
			</g>
			<g>
				<path class="st1" d="M37.4,13.3h-1.9l-1.9-2.2v2.2h-3V4.8l4.1,0c2.2,0,3.3,1.6,3.3,3.1c0,1-0.4,1.9-1.1,2.4l1.5,1.6v1.2
					L37.4,13.3z M33.6,8.2h1C35,8.2,35,8.1,35,8c0-0.1,0-0.2-0.3-0.2h-1V8.2z"/>
			</g>
			<g>
				<polygon class="st1" points="46,13.3 42.7,13.3 42.1,12 39.7,12 39.2,13.3 35.9,13.3 39.7,4.9 42.2,4.9 				"/>
			</g>
			<g>
				<polygon class="st1" points="53,13.3 50,13.3 50,10.2 49.2,11.3 48,11.3 47.2,10.2 47.2,13.3 44.2,13.3 44.2,4.9 47,4.9 
					48.6,7.1 50.3,4.9 53,4.9 				"/>
			</g>
			<g>
				<polygon class="st1" points="61.4,13.3 58.1,13.3 57.5,12 55.1,12 54.6,13.3 51.3,13.3 55.1,4.9 57.6,4.9 				"/>
			</g>
		</g>
	</g>
	<g>
		<g class="st5">
			<g>
				<path class="st2" d="M6,12.9H3.8V5.2l3.6,0c1.9,0,3,1.4,3,2.9c0,0.7-0.3,1.4-0.7,2c-0.4,0.4-1.1,0.9-2.2,0.9H6V12.9z M4.8,11.9
					H5v-2h2.4c0.6,0,1.1-0.2,1.5-0.6C9.2,9,9.4,8.6,9.4,8.1c0-0.9-0.6-1.9-2-1.9l-2.6,0V11.9z M7.4,9.8H5V6.4h2.4
					c1.1,0,1.7,0.8,1.7,1.7c0,0.4-0.2,0.8-0.4,1.1C8.5,9.5,8.1,9.8,7.4,9.8z M6,8.8h1.4c0.2,0,0.4-0.1,0.5-0.2
					c0.1-0.1,0.2-0.3,0.2-0.5c0-0.3-0.2-0.7-0.7-0.7H6V8.8z"/>
			</g>
			<g>
				<path class="st2" d="M16.7,12.9h-1.7L13,10.7h-0.5v2.2h-2.3V5.2l3.7,0c2,0,2.9,1.4,2.9,2.7c0,1.1-0.5,1.9-1.3,2.3l1.7,1.9v0.7
					L16.7,12.9z M15.4,11.9h0.2l-1.9-2.2l0.9-0.2c0.9-0.2,1.3-0.7,1.3-1.6c0-0.8-0.6-1.7-1.9-1.7l-2.7,0v5.7h0.3V9.7h1.9L15.4,11.9z
					 M13.9,9.5h-2.4V6.4h2.4c1.1,0,1.6,0.8,1.6,1.6S15,9.5,13.9,9.5z M12.5,8.5h1.4c0.6,0,0.6-0.4,0.6-0.6c0-0.2-0.1-0.6-0.6-0.6
					h-1.4V8.5z"/>
			</g>
			<g>
				<path class="st2" d="M20.3,13.1c-2.7,0-3.9-2-3.9-3.9c0-1.9,1.2-4,3.9-4c1.1,0,2.1,0.4,2.8,1.1c0.7,0.7,1.1,1.8,1.1,2.9v0
					C24.2,11.1,23,13.1,20.3,13.1z M20.3,6.1c-2,0-2.9,1.5-2.9,3c0,1.4,0.8,2.9,2.9,2.9c2.1,0,2.9-1.6,2.9-3l0,0
					c0-0.9-0.3-1.7-0.8-2.2C21.9,6.4,21.1,6.1,20.3,6.1z M20.3,11.9c-1.9,0-2.7-1.5-2.7-2.8c0-0.8,0.3-1.6,0.8-2.2
					c0.5-0.5,1.1-0.8,1.9-0.8c0.8,0,1.4,0.3,1.9,0.7C22.7,7.5,23,8.3,23,9.1C23,10.4,22.2,11.9,20.3,11.9z M20.3,7.2
					c-0.5,0-0.9,0.2-1.2,0.5c-0.3,0.3-0.5,0.9-0.5,1.4v0c0,0.5,0.2,1.8,1.7,1.8c1.5,0,1.7-1.4,1.7-1.8c0-0.6-0.2-1.1-0.5-1.4
					C21.2,7.4,20.8,7.2,20.3,7.2z"/>
			</g>
			<g>
				<path class="st2" d="M27.9,13.1c-3,0-4-2.1-4-3.9c0-2,1.3-4.1,4-4.1C29,5,30,5.5,30.7,6.2l0.4,0.3L29.6,8h1.4v3.5l-0.1,0.1
					C30.1,12.6,29.1,13.1,27.9,13.1z M27.9,6c-2.2,0-3,1.7-3,3.1c0,0.7,0.2,2.9,3,2.9c0.9,0,1.6-0.3,2.2-0.9V9h-1.9v0.1h1.7v1.9
					l-0.2,0.1c-0.6,0.5-1.1,0.6-1.8,0.6c-1.9,0-2.8-1.4-2.8-2.7c0-1.7,1.2-3,2.8-3c0.6,0,1.2,0.2,1.7,0.5l0.1-0.1
					C29.1,6.2,28.5,6,27.9,6z M27.9,7.2c-1.2,0-1.8,1-1.8,2c0,0.4,0.1,1.7,1.8,1.7c0.3,0,0.6-0.1,1-0.3v-0.4h-1.7V8h2.4l-0.3-0.3
					C28.9,7.4,28.4,7.2,27.9,7.2z"/>
			</g>
			<g>
				<path class="st2" d="M37.4,12.9h-1.7l-1.9-2.2h-0.5v2.2H31V5.2l3.7,0c2,0,2.9,1.4,2.9,2.7c0,1.1-0.5,1.9-1.3,2.3l1.7,1.9v0.7
					L37.4,12.9z M36.2,11.9h0.2l-1.9-2.2l0.9-0.2c0.9-0.2,1.3-0.7,1.3-1.6c0-0.8-0.6-1.7-1.9-1.7l-2.7,0v5.7h0.3V9.7h1.9L36.2,11.9z
					 M34.7,9.5h-2.4V6.4h2.4c1.1,0,1.6,0.8,1.6,1.6S35.8,9.5,34.7,9.5z M33.3,8.5h1.4c0.6,0,0.6-0.4,0.6-0.6c0-0.2-0.1-0.6-0.6-0.6
					h-1.4V8.5z"/>
			</g>
			<g>
				<path class="st2" d="M45.4,12.9h-2.5l-0.6-1.3h-2.8l-0.6,1.3h-2.5l3.4-7.7h2L45.4,12.9z M43.6,11.9h0.3l-2.5-5.7h-0.2l1.9,4.2
					h-4l1.9-4.2h-0.2L38,11.9h0.3l0.6-1.3H43L43.6,11.9z M40.5,9.5h1l-0.5-1.1L40.5,9.5z"/>
			</g>
			<g>
				<path class="st2" d="M52.7,12.9h-2.3V9.1L49,11h-0.8l-1.4-1.9v3.8h-2.3V5.2h2.2l1.8,2.5l1.8-2.5h2.2V12.9z M51.4,11.9h0.3V6.2
					h-0.3V11.9z M45.6,11.9h0.3V6.2h-0.3V11.9z M46,6.2l2.6,3.6l2.7-3.6H51l-2.3,3.2l-2.3-3.2H46z"/>
			</g>
			<g>
				<path class="st2" d="M60.8,12.9h-2.5l-0.6-1.3h-2.8l-0.6,1.3h-2.5l3.4-7.7h2L60.8,12.9z M59,11.9h0.3l-2.5-5.7h-0.2l1.9,4.2h-4
					l1.9-4.2H56l-2.5,5.7h0.3l0.6-1.3h4.1L59,11.9z M55.8,9.5h1l-0.5-1.1L55.8,9.5z"/>
			</g>
		</g>
	</g>
	<g class="st5">
		<g>
			<path class="st0" d="M7.4,10.4H5.5v2H4.3V5.7c1,0,2.1,0,3.1,0C10.7,5.7,10.7,10.4,7.4,10.4z M5.5,9.3h1.9c1.6,0,1.6-2.4,0-2.4
				H5.5V9.3z"/>
		</g>
		<g>
			<path class="st0" d="M16.7,12.4h-1.5l-1.9-2.2H12v2.2h-1.3V5.7c1.1,0,2.1,0,3.2,0c1.6,0,2.4,1.1,2.4,2.2c0,0.9-0.4,1.8-1.7,2.1
				L16.7,12.4L16.7,12.4z M12,6.9V9h1.9c0.8,0,1.1-0.5,1.1-1.1s-0.4-1.1-1.1-1.1H12z"/>
		</g>
		<g>
			<path class="st0" d="M23.7,9.1c0,1.7-1.1,3.5-3.4,3.5c-2.3,0-3.4-1.7-3.4-3.4s1.1-3.5,3.4-3.5C22.6,5.6,23.7,7.4,23.7,9.1z
				 M18.1,9.1c0,1.1,0.6,2.3,2.2,2.3c1.6,0,2.2-1.2,2.2-2.3c0-1.1-0.6-2.4-2.2-2.4C18.7,6.7,18.1,8,18.1,9.1z"/>
		</g>
		<g>
			<path class="st0" d="M29.6,7.4c-0.4-0.4-1.1-0.7-1.7-0.7c-1.4,0-2.3,1.1-2.3,2.5c0,1.1,0.6,2.2,2.3,2.2c0.5,0,1-0.1,1.5-0.5V9.7
				h-1.7V8.5h2.9v2.8c-0.7,0.8-1.5,1.2-2.7,1.2c-2.5,0-3.5-1.6-3.5-3.4c0-1.9,1.2-3.6,3.5-3.6c0.9,0,1.8,0.3,2.5,1L29.6,7.4z"/>
		</g>
		<g>
			<path class="st0" d="M37.4,12.4h-1.5L34,10.2h-1.2v2.2h-1.3V5.7c1.1,0,2.1,0,3.2,0c1.6,0,2.4,1.1,2.4,2.2c0,0.9-0.4,1.8-1.7,2.1
				L37.4,12.4L37.4,12.4z M32.8,6.9V9h1.9c0.8,0,1.1-0.5,1.1-1.1s-0.4-1.1-1.1-1.1H32.8z"/>
		</g>
		<g>
			<path class="st0" d="M42.7,11.1h-3.5l-0.6,1.3h-1.4l3-6.7h1.4l3,6.7h-1.4L42.7,11.1z M40.9,7.1L39.7,10h2.5L40.9,7.1z"/>
		</g>
		<g>
			<path class="st0" d="M50.9,7.6l-2.2,2.9h-0.2l-2.1-2.9v4.9h-1.3V5.7h1.4l2.1,2.9l2.1-2.9h1.4v6.7h-1.3V7.6z"/>
		</g>
		<g>
			<path class="st0" d="M58.1,11.1h-3.5L54,12.4h-1.4l3-6.7H57l3,6.7h-1.4L58.1,11.1z M56.3,7.1L55.1,10h2.5L56.3,7.1z"/>
		</g>
	</g>
</g>
</svg>
