<?xml version="1.0" encoding="utf-8"?>
<!-- Generator: Adobe Illustrator 23.0.0, SVG Export Plug-In . SVG Version: 6.00 Build 0)  -->
<svg version="1.1" id="Layer_1" xmlns="http://www.w3.org/2000/svg" xmlns:xlink="http://www.w3.org/1999/xlink" x="0px" y="0px"
	 viewBox="0 0 778.7 202.8" style="enable-background:new 0 0 778.7 202.8;" xml:space="preserve">
<style type="text/css">
	.st0{fill:#FFFFFF;}
	.st1{fill:#81509F;}
	.st2{fill:#8A8EC5;}
	.st3{fill:#5C52A1;}
	.st4{stroke:#000000;stroke-width:0.25;stroke-miterlimit:10;}
	.st5{enable-background:new    ;}
</style>
<path class="st0" d="M520,75.4c-2.2,0-3.9-0.6-5.6-2.2c-1.7-1.7-2.8-3.4-2.8-5.6V32.7c0-4.5,3.4-7.9,7.9-7.9h19.1
	c3.4,0,6.7,2.2,7.9,5.6l2.2,7.3c0.6,2.2,0,5.1-1.1,6.7c-0.6,0.6-1.1,1.1-1.7,1.7v0.6v7.9c0,4.5-3.4,7.9-7.9,7.9h-1.1v3.4
	c0,3.9-3.4,7.3-7.3,7.9l-9,1.7H520z"/>
<path class="st0" d="M559.4,75.4c-3.4,0-6.7-0.6-9.6-2.2c-3.4-1.7-6.7-3.9-8.4-7.3c-2.2-3.4-3.4-6.7-3.4-11.2V54
	c0-3.4,1.1-7.3,2.8-10.1c1.7-3.4,4.5-6.2,7.9-7.9c3.4-2.2,6.7-3.4,10.7-3.4h0.6c3.9,0,7.9,1.1,10.7,2.8c3.4,1.7,6.2,4.5,8.4,7.9
	c1.7,3.4,2.8,7.3,2.8,11.2s-1.1,7.3-2.8,10.7c-1.7,3.4-4.5,5.6-7.3,7.9c-2.8,1.7-6.2,2.8-10.1,3.4C560.5,75.4,559.9,75.4,559.4,75.4
	z"/>
<path class="st0" d="M577.9,75.4c-2.2,0-3.9-0.6-5.6-2.2c-1.7-1.7-2.8-3.4-2.8-5.6V41.7c0-3.9,2.8-7.3,6.7-7.9l7.9-1.1
	c0.6,0,0.6,0,1.1,0c1.1,0,2.2,0,3.4,0.6c1.1-0.6,2.8-0.6,3.9-0.6c0.6,0,1.1,0,1.7,0h0.6h1.1c2.2,0.6,3.9,1.7,5.1,3.9
	c1.1,1.7,1.7,4.5,0.6,6.2l-2.8,7.9c-0.6,2.2-2.2,3.9-4.5,5.1c-0.6,0-0.6,0.6-1.1,0.6v10.1c0,3.9-3.4,7.3-7.3,7.9l-8.4,0.6
	C578.5,75.4,578.5,75.4,577.9,75.4z"/>
<path class="st0" d="M612.2,75.4c-3.4,0-6.7-0.6-9.6-2.2c-3.4-1.7-6.2-3.9-8.4-7.3c-2.2-3.4-3.4-6.7-3.4-11.2V54
	c0-3.4,1.1-7.3,2.8-10.1c1.7-3.4,4.5-6.2,7.9-7.9c3.4-2.2,6.7-3.4,10.7-3.4h0.6c3.9,0,7.9,1.1,10.7,2.8c3.4,1.7,6.2,4.5,8.4,7.9
	c1.7,3.4,2.8,7.3,2.8,11.2s-1.1,7.3-2.8,10.7c-1.7,3.4-4.5,5.6-7.3,7.9c-2.8,1.7-6.2,2.8-10.1,3.4C613.3,75.4,612.7,75.4,612.2,75.4
	z"/>
<path class="st0" d="M474.5,176.5c-2.2,0-3.9-0.6-5.6-2.2c-1.7-1.7-2.8-3.4-2.8-5.6v-34.8c0-3.9,3.4-7.3,7.3-7.9l8.4-1.1h0.6
	c1.7,0,3.9,0.6,5.1,2.2c1.7,1.7,2.8,3.9,2.8,6.2v34.8c0,3.9-3.4,7.9-7.3,7.9L474.5,176.5C475.1,176.5,475.1,176.5,474.5,176.5z"/>
<path class="st0" d="M501.5,177.1c-3.9,0-7.3-1.1-10.1-2.8c-3.4-1.7-5.6-4.5-7.9-7.9c-1.7-3.4-2.8-6.7-2.8-10.7s1.1-7.3,2.8-10.7
	c1.7-3.4,4.5-6.2,7.3-7.9c2.8-2.2,6.2-2.8,10.1-3.4c0-3.9,2.8-7.3,6.7-7.9l7.9-1.1c0.6,0,0.6,0,1.1,0c1.7,0,3.9,0.6,5.1,2.2
	c1.7,1.7,2.8,3.9,2.8,6.2v34.8c0,3.9-3.4,7.3-7.3,7.9l-7.9,0.6h-0.6c-0.6,0-1.7,0-2.2-0.6c-1.1,0.6-2.8,0.6-4.5,0.6
	C502,177.1,501.5,177.1,501.5,177.1L501.5,177.1z"/>
<path class="st0" d="M524.5,176c-2.2,0-3.9-0.6-5.6-2.2c-1.7-1.7-2.8-3.4-2.8-5.6v-25.3c0-0.6,0-1.1,0-1.7c-0.6-1.1-1.1-2.8-1.7-3.9
	c0-2.2,0.6-4.5,2.2-6.2l5.1-5.1c1.7-1.7,3.4-2.2,5.6-2.2c1.7,0,3.4,0.6,4.5,1.7l5.6,3.9c1.7,1.1,3.4,3.4,3.4,5.6
	c0,1.7-0.6,3.9-1.7,5.6c0,0.6,0,0.6,0,1.1v25.8c0,3.9-3.4,7.9-7.3,7.9L524,176C525.1,176,525.1,176,524.5,176z"/>
<path class="st0" d="M553.7,176.5c-3.4,0-6.7-0.6-9.6-2.2c-3.4-1.7-6.2-3.9-8.4-7.3c-2.2-3.4-3.4-6.7-3.4-11.2v-0.6
	c0-3.4,1.1-7.3,2.8-10.1c1.7-3.4,4.5-6.2,7.9-7.9c3.4-2.2,6.7-3.4,10.7-3.4h0.6c3.9,0,7.9,1.1,10.7,2.8c3.4,1.7,6.2,4.5,8.4,7.9
	c1.7,3.4,2.8,7.3,2.8,11.2s-1.1,7.3-2.8,10.7c-1.7,3.4-4.5,5.6-7.3,7.9c-2.8,1.7-6.2,2.8-10.1,3.4
	C554.9,176.5,554.3,176.5,553.7,176.5z"/>
<path class="st0" d="M584.6,176.5c-1.1,0-2.2,0-3.4-0.6c-0.6,0-1.1,0-1.1,0l-7.9,0.6h-0.6c-2.2,0-3.9-0.6-5.6-2.2
	c-1.7-1.7-2.8-3.4-2.8-5.6v-25.8c0-3.9,2.8-7.3,7.3-7.9l7.3-1.1c0.6,0,0.6,0,1.1,0c0.6,0,1.1,0,1.7,0c1.1,0,1.7-0.6,2.8-0.6
	c0,0,0.6,0,1.1,0c1.7,0,3.4,0,4.5,0.6c0.6,0,0.6,0,1.1,0.6c1.7-0.6,3.9-1.1,6.2-1.1l0,0c3.4,0,5.6,0.6,7.9,1.7
	c2.8,1.1,5.1,3.4,6.2,6.2c1.7,2.8,2.2,5.6,2.2,8.4v18c0,3.9-3.4,7.9-7.3,7.9c0,0-7.9,0.6-8.4,0.6c-1.1,0-2.2,0-3.4-0.6
	c-0.6,0-1.1,0-1.7,0l-7.9,0.6C585.2,176.5,585.2,176.5,584.6,176.5z"/>
<path class="st0" d="M619.5,176.5c-2.8,0-5.6-0.6-7.9-1.7c-2.8-1.1-5.1-3.4-6.7-6.2c-1.7-2.2-2.2-5.6-2.2-9c0-3.4,1.1-6.2,2.8-9
	l0.6-0.6c0-0.6,0-1.1,0-1.7l1.7-7.3c0.6-1.7,1.1-3.4,2.8-4.5c1.7-1.1,3.4-1.7,5.1-2.2c1.1,0,2.2-0.6,3.4-0.6c1.7,0,2.8-0.6,3.9-0.6
	h0.6c2.8,0,5.1,0.6,7.3,1.1c3.4,1.1,5.6,2.8,7.3,5.6c2.2,2.8,3.4,6.2,3.4,9.6V167c0,3.9-2.8,7.3-7.3,7.9l-7.3,1.1
	c-0.6,0-0.6,0-1.1,0s-1.1,0-1.7,0C622.3,176.5,621.2,176.5,619.5,176.5L619.5,176.5L619.5,176.5z"/>
<path class="st0" d="M647,177.1c-3.9,0-7.3-1.1-10.1-2.8c-2.8-1.7-4.5-2.2-5.6-3.4c-2.8-2.8-2.8-7.3-0.6-10.7l1.7-2.2
	c-1.7-2.2-2.2-5.1-2.2-7.9c0-3.4,1.1-6.2,2.8-9c1.7-2.2,3.9-4.5,6.7-5.6c2.2-1.1,5.1-1.7,7.9-2.2h1.1c3.4,0,6.7,0.6,10.1,2.2
	c3.4,1.7,5.6,3.4,6.7,6.2c1.1,2.8,0.6,6.2-1.1,8.4c1.7,2.2,2.8,5.1,2.8,9.6c0,3.4-1.1,6.7-3.4,9.6c-1.7,2.2-4.5,4.5-7.3,5.6
	C653.2,176.5,650.4,177.1,647,177.1L647,177.1z"/>
<path class="st0" d="M379.5,126c-2.2,0-3.9-0.6-5.6-2.2c-1.7-1.7-2.8-3.4-2.8-5.6V83.3c0-3.9,3.4-7.3,7.3-7.9l8.4-1.1h0.6
	c1.7,0,3.9,0.6,5.6,2.2c1.7,1.7,2.8,3.9,2.8,6.2v34.8c0,3.9-3.4,7.9-7.3,7.9L379.5,126L379.5,126z"/>
<path class="st0" d="M394.2,126c-2.2,0-3.9-0.6-5.6-2.2c-1.7-1.7-2.8-3.4-2.8-5.6V92.3c0-3.9,2.8-7.3,6.7-7.9l7.3-1.1
	c0.6,0,0.6,0,1.1,0c0.6,0,1.7,0,2.2,0.6c1.1,0,2.2-0.6,3.4-0.6c0,0,0.6,0,1.1,0c4.5,0,7.9,1.7,11.2,4.5c2.8,3.4,4.5,7.3,4.5,11.8v18
	c0,3.9-3.4,7.3-7.3,7.9l-7.9,0.6h-0.6c-1.1,0-2.8-0.6-3.9-1.1c-0.6,0-1.1,0-1.7,0.6L394.2,126C394.7,126,394.7,126,394.2,126z"/>
<path class="st0" d="M431.8,127.7c-2.8,0-5.6-1.7-7.3-4.5l-12.9-27c-1.1-2.2-1.1-5.1,0-7.3c1.1-2.2,3.4-3.9,5.6-4.5l7.9-1.7
	c0.6,0,1.1,0,1.7,0c1.7,0,3.9,0.6,5.1,1.7c1.7-1.1,3.4-1.7,5.1-1.7c0.6,0,1.1,0,1.7,0l7.9,1.7c2.2,0.6,4.5,2.2,5.6,4.5
	c1.1,2.2,1.1,5.1,0,7.3l-12.9,27C437.4,126,435.2,127.7,431.8,127.7L431.8,127.7z"/>
<path class="st0" d="M462.1,126c-3.9,0-7.3-1.1-10.7-2.8c-3.4-1.7-6.2-4.5-8.4-7.9c-2.2-3.4-2.8-6.7-3.4-11.2
	c0-3.9,0.6-7.3,2.2-10.1c1.7-3.4,3.9-5.6,6.7-7.9c2.8-2.2,6.2-3.4,10.1-3.9c1.1,0,1.7,0,2.8,0c2.2,0,5.1,0.6,7.3,1.1
	c2.8,1.1,5.1,2.8,7.3,4.5c1.7,1.7,2.8,2.8,3.9,4.5c0.6,1.1,1.1,2.2,1.7,2.8c1.7,3.4,0,7.9-3.4,10.1l-1.1,1.1l2.2,3.4
	c2.2,3.4,1.7,8.4-1.7,10.7c-0.6,0.6-1.1,1.1-2.8,1.7c-1.1,0.6-2.8,1.7-5.1,2.2C467.8,125.4,465,126,462.1,126L462.1,126L462.1,126z"
	/>
<path class="st0" d="M488,126.5c-3.9,0-7.3-1.1-10.1-2.8c-2.8-1.7-4.5-2.2-5.6-3.4c-2.8-2.8-2.8-7.3-0.6-10.7l1.7-2.2
	c-1.7-2.2-2.2-5.1-2.2-7.9c0-3.4,1.1-6.2,2.8-9c1.7-2.2,3.9-4.5,6.7-5.6c2.2-1.1,5.1-1.7,7.9-2.2h1.1c3.4,0,6.7,1.1,10.1,2.2
	c3.4,1.7,5.6,3.4,6.7,6.2s1.1,6.2-1.1,9c1.7,2.2,2.8,5.1,2.8,9.6c0,3.4-1.1,6.7-3.4,9.6c-1.7,2.2-4.5,4.5-7.3,5.6
	C494.2,126,491.4,126.5,488,126.5L488,126.5z"/>
<path class="st0" d="M518.9,126c-3.9,0-7.9-1.1-10.7-2.8c-5.1-2.8-8.4-8.4-8.4-14.6v-2.2c-1.1-0.6-1.7-1.1-2.8-2.2
	c-1.7-2.2-2.2-4.5-1.1-6.7l2.2-7.3c0.6-1.7,1.1-2.8,2.2-3.4c0.6-2.8,2.2-5.6,5.1-6.7l7.9-3.4c1.1-0.6,2.2-0.6,2.8-0.6
	c1.7,0,3.4,0.6,4.5,1.1c2.2,1.7,3.4,3.9,3.4,6.7v0.6c2.8,1.1,5.1,3.9,5.1,7.3V99c0,1.7-0.6,3.4-1.1,4.5c0.6,0.6,0.6,0.6,1.1,1.1
	c1.7,2.2,2.8,5.1,1.7,7.3l-2.2,7.9c-1.1,3.4-3.9,5.6-7.9,5.6C520.6,126,518.9,126,518.9,126z"/>
<path class="st0" d="M529,125.4c-2.2,0-3.9-0.6-5.6-2.2c-1.7-1.7-2.8-3.4-2.8-5.6V92.3c0-0.6,0-1.1,0-1.7c-0.6-1.1-1.1-2.8-1.7-3.9
	c0-2.2,0.6-4.5,2.2-6.2l5.1-5.1c1.7-1.7,3.4-2.2,5.6-2.2c1.7,0,3.4,0.6,4.5,1.7l5.6,3.9c1.7,1.1,3.4,3.4,3.4,5.6
	c0,1.7-0.6,3.9-1.7,5.6c0,0.6,0,0.6,0,1.1V117c0,3.9-3.4,7.9-7.3,7.9l-7.9,0.6C529,125.4,529,125.4,529,125.4z"/>
<path class="st0" d="M555.4,134.4c-5.6,0-9.6-1.1-12.9-3.4c-2.8-1.7-4.5-3.4-6.2-5.6c-1.7-2.8-1.7-6.7,1.1-9.6l2.8-2.8l0,0
	c-1.7-1.7-4.5-5.6-4.5-11.2c0-3.9,1.1-7.3,2.8-10.1s3.9-5.1,7.3-6.2c2.8-1.7,5.6-2.2,9-2.2h0.6c1.7,0,2.8,0,3.9,0c0.6,0,1.1,0,1.7,0
	c2.2,0,4.5-0.6,6.2-1.1c0.6,0,1.1,0,2.2,0c2.2,0,3.9,0.6,5.6,2.2c2.2,2.2,2.8,5.1,2.2,7.9l-1.7,6.2c0,0.6-0.6,1.1-0.6,1.7
	c0,0.6,0,1.1,0,1.7v0.6c0,2.2-0.6,4.5-1.7,6.2c1.1,2.2,1.7,5.1,1.7,7.9c0,5.6-2.8,10.7-7.3,14C565,133.3,560.5,134.4,555.4,134.4z"
	/>
<path class="st0" d="M583,126c-2.8,0-5.6-0.6-7.9-1.7c-2.8-1.1-5.1-3.4-6.7-6.2c-1.7-2.2-2.2-5.6-2.2-9c0-3.4,1.1-6.2,2.8-9l0.6-0.6
	c0-0.6,0-1.1,0-1.7l1.7-7.3c0.6-1.7,1.1-3.4,2.2-4.5c1.7-1.7,3.4-1.7,5.1-2.2c1.1,0,2.2-0.6,3.4-0.6c1.7,0,2.8-0.6,3.9-0.6h0.6
	c2.8,0,5.1,0.6,7.3,1.1c3.4,1.1,5.6,2.8,7.3,5.6c2.2,2.8,3.4,6.2,3.4,9.6v17.4c0,3.9-2.8,7.3-7.3,7.9l-7.3,1.1c-0.6,0-0.6,0-1.1,0
	c-0.6,0-1.1,0-1.7,0C585.8,126,584.6,126,583,126L583,126L583,126z"/>
<path class="st0" d="M614.4,126c-3.9,0-7.9-1.1-11.2-2.8c-3.4-1.7-6.2-4.5-8.4-7.9c-1.7-3.4-2.8-6.7-2.8-10.7
	c0-3.9,1.1-7.3,2.8-10.7c1.7-3.4,4.5-6.2,7.9-7.9c3.4-2.2,6.7-2.8,11.2-2.8c3.9,0,7.3,0.6,10.1,2.2c2.2,1.1,3.9,2.2,5.1,3.9
	c2.8,2.8,2.8,7.3,0.6,10.1l-3.9,5.6l4.5,5.6c2.8,3.4,2.2,7.9-1.1,10.7c-1.1,1.1-2.8,1.7-4.5,2.8C621.7,125.4,618.4,126,614.4,126
	C615,126,615,126,614.4,126L614.4,126z"/>
<path class="st0" d="M630.7,125.4c-2.2,0-3.9-0.6-5.6-2.2c-1.7-1.7-2.8-3.4-2.8-5.6V92.3c0-0.6,0-1.1,0-1.7c0-1.1-0.6-2.8-0.6-3.9
	c0-2.2,0.6-4.5,2.2-6.2l5.1-5.1c1.7-1.7,3.4-2.2,5.6-2.2c1.7,0,3.4,0.6,4.5,1.7l5.6,3.9c1.7,1.1,3.4,3.4,3.4,5.6
	c0,1.7-0.6,3.9-1.7,5.6c0,0.6,0,0.6,0,1.1V117c0,3.9-3.4,7.9-7.3,7.9l-7.9,0.6C631.3,125.4,631.3,125.4,630.7,125.4z"/>
<path class="st0" d="M659.4,126c-3.4,0-6.7-0.6-9.6-2.2c-3.4-1.7-6.2-3.9-8.4-7.3c-2.2-3.4-3.4-6.7-3.4-11.2v-0.6
	c0-3.4,1.1-7.3,2.8-10.1c1.7-3.4,4.5-6.2,7.9-7.9c3.4-2.2,6.7-3.4,10.7-3.4h0.6c3.9,0,7.9,1.1,10.7,2.8c3.4,1.7,6.2,4.5,8.4,7.9
	c1.7,3.4,2.8,7.3,2.8,11.2c0,3.9-1.1,7.3-2.8,10.7c-1.7,3.4-4.5,5.6-7.3,7.9c-2.8,1.7-6.2,2.8-10.1,3.4
	C660.5,126,659.9,126,659.4,126z"/>
<path class="st0" d="M677.4,126c-2.2,0-3.9-0.6-5.6-2.2c-1.7-1.7-2.8-3.4-2.8-5.6V92.3c0-3.9,2.8-7.3,6.7-7.9l7.3-1.1
	c0.6,0,0.6,0,1.1,0c0.6,0,1.7,0,2.2,0.6c1.1,0,2.2-0.6,3.4-0.6c0,0,0.6,0,1.1,0c4.5,0,7.9,1.7,11.2,4.5c2.8,3.4,4.5,7.3,4.5,11.8v18
	c0,3.9-3.4,7.3-7.3,7.9l-7.9,0.6h-0.6c-1.1,0-2.8-0.6-3.9-1.1c-0.6,0-1.1,0-1.7,0.6L677.4,126C677.9,126,677.9,126,677.4,126z"/>
<path class="st0" d="M657.7,97.9c-2.2,0-4.5-1.1-5.6-2.8c-2.8-2.8-2.8-7.3-0.6-10.1l7.3-9c1.7-1.7,3.9-2.8,6.2-2.8
	c0.6,0,1.1,0,1.7,0l5.6,1.1c3.4,0.6,5.6,2.8,6.2,6.2s-0.6,6.7-3.4,8.4l-12.9,8.4C661.1,97.3,659.4,97.9,657.7,97.9z"/>
<path class="st0" d="M644.2,79.9c-1.7,0-3.4-0.6-4.5-1.1c-1.7,0.6-3.4,1.1-5.1,1.1c-6.7,0-11.8-5.6-11.8-12.9c0-9,6.2-25.3,18-25.3
	l0.6-2.2c1.7-3.9,5.1-6.2,8.4-6.2c2.8,0,5.6,1.7,7.3,3.9c1.7,2.2,2.2,5.6,1.1,8.4c0,0-2.2,6.7-2.8,7.9h0.6c0.6,0,0.6,0,1.1,0.6
	c3.4,1.7,5.1,4.5,5.1,7.9c0,1.1,0,2.2-0.6,2.8c0,0,0,0.6-0.6,0.6C659.4,69.8,654.9,79.9,644.2,79.9z"/>
<path class="st0" d="M657.7,79.9c-3.9,0-7.9-1.7-10.1-3.9c-2.8-2.8-3.9-6.7-3.9-10.7c0.6-9,7.3-24.2,19.1-24.2
	c6.7,0,11.8,5.1,11.8,11.8c0,0.6,0,1.1,0,1.7c1.7,1.7,3.4,3.9,3.4,6.7c0,1.1,0,2.2-0.6,2.8v0.6C672.3,74.8,666.1,79.9,657.7,79.9z"
	/>
<path class="st0" d="M434,163.6c-3.9,0-7.9-1.7-10.1-3.9c-2.8-2.8-3.9-6.7-3.9-10.7c0.6-8.4,7.3-24.2,19.1-24.2
	c6.7,0,11.8,5.1,11.8,11.8c0,0.6,0,1.1,0,1.7c1.7,1.7,3.4,3.9,3.4,6.7c0,1.1,0,2.2-0.6,2.8c0,0,0,0.6-0.6,0.6
	C448.7,158.6,442.5,163.6,434,163.6z"/>
<path class="st0" d="M456,163.6c-3.4,0-5.6-1.1-7.9-2.8c-1.7,1.7-3.9,2.8-6.7,2.8c-0.6,0-1.7,0-2.2-0.6h-0.6
	c-4.5-1.7-6.7-6.7-5.6-11.2c1.1-3.4,6.7-18.5,7.3-20.8c1.1-3.4,4.5-6.2,8.4-6.2c0.6,0,1.7,0,2.2,0c1.1,0,1.7-0.6,2.8-0.6
	c7.3,0,12.4,4.5,12.4,11.8h0.6c0.6,0,0.6,0,1.1,0.6c3.4,1.7,5.1,4.5,5.1,7.9c0,0.6,0,2.2-0.6,2.8c0,0.6,0,0.6-0.6,1.1
	C470,154.6,465.5,163.6,456,163.6z"/>
<path class="st0" d="M416.1,88.3c-9.6,0-16.3-6.7-21.4-11.8c-2.2,1.1-5.1,1.1-7.3,1.1c-11.2,0-18-8.4-18-20.8
	c0-3.4,0.6-6.7,1.1-10.7c-7.9-1.7-12.4-7.9-12.4-15.7c0-6.7,3.4-10.7,5.6-12.9c1.7-1.7,3.9-2.8,6.7-2.8c2.2,0,5.1,1.1,6.7,2.8
	c1.7,1.7,2.8,3.9,2.8,6.7c0,0.6,0,1.1,0,2.2c3.9-5.1,7.3-7.3,11.2-9c1.7-2.2,4.5-5.1,11.2-5.1c8.4,0,17.4,5.6,17.4,20.2
	c0,10.1-4.5,22.5-10.1,31.5c2.2,2.8,5.6,5.6,7.3,5.6h0.6c1.7-2.8,4.5-3.9,7.9-3.9c5.1,0,9,3.9,9,9c0,1.7-0.6,2.8-0.6,3.4
	c0,0,0,0.6-0.6,0.6C430.1,84.4,423.4,88.3,416.1,88.3z M389.7,52.9c1.7,0,2.8,0,4.5,0.6c2.2-3.9,4.5-8.4,5.6-12.9
	c-3.4,1.7-6.7,3.4-9.6,4.5c-1.1,2.8-1.7,5.1-2.2,7.9C388.5,52.9,389.1,52.9,389.7,52.9L389.7,52.9z"/>
<path class="st0" d="M426.7,75.4c-2.2,0-3.9-0.6-5.6-1.1c-2.2,1.1-3.9,1.1-6.2,1.1c-8.4,0-14-5.6-14-14.6c0-4.5,1.1-7.9,6.7-22.5
	l1.1-2.8c1.1-3.4,5.1-6.2,8.4-6.2c2.8,0,5.1,1.1,6.7,2.8c1.7-1.7,3.9-2.8,6.7-2.8c3.4,0,6.2,1.7,7.9,3.9c1.7,2.2,2.2,5.6,1.1,8.4
	c-0.6,0.6-0.6,1.7-0.6,2.2c0.6,0,1.1,0,1.1,0.6c0.6,0,1.1,0.6,1.7,0.6c2.8,1.7,4.5,5.1,4.5,7.9c0,0.6,0,2.2-0.6,2.8
	c0,0,0,0.6-0.6,0.6C441.9,65.8,436.9,75.4,426.7,75.4z"/>
<path class="st0" d="M438.5,75.4c-3.4,0-6.7-1.1-9-3.9c-2.2-2.8-3.9-6.2-3.4-9.6c0-5.6,3.4-15.2,7.9-25.3c0.6-1.1,0.6-1.7,1.1-2.2
	c0-0.6,0-0.6,0-1.1c0-5.6,4.5-10.1,10.1-10.1s10.1,4.5,10.1,10.1c0,2.8-1.1,5.6-3.4,7.9c0,0.6,0,1.1-0.6,2.2l-1.1,1.1
	c0.6,0,1.1,0,1.1,0.6c3.9,1.7,6.2,5.1,6.2,9c0,0.6,0,2.2-0.6,2.8c0,0,0,0.6-0.6,0.6C454.3,64.2,449.2,75.4,438.5,75.4z"/>
<path class="st0" d="M463.3,75.4c-4.5,0-8.4-2.2-10.7-5.6c-1.1,3.4-5.1,5.6-8.4,5.6c-0.6,0-1.7,0-2.2-0.6h-0.6
	c-4.5-1.7-7.3-6.7-5.6-11.8c1.7-4.5,3.4-9.6,5.1-14c1.7-5.1,3.4-9.6,4.5-12.9c1.1-3.4,4.5-6.2,9-6.2c1.1,0,1.7,0,2.8,0.6
	c1.1-0.6,2.2-0.6,3.9-0.6c8.4,0,14,5.6,14,14v0.6c1.1,0,1.7,0.6,2.2,0.6c0.6,0,0.6,0,1.1,0.6c3.4,1.7,5.1,5.1,5.1,8.4
	c0,1.7-0.6,2.8-0.6,3.4c0,0,0,0.6-0.6,0.6C478.4,64.7,473.9,75.4,463.3,75.4z"/>
<path class="st0" d="M474.5,75.4c-7.3,0-12.4-5.6-12.4-12.9c0-5.1,3.4-13.5,3.9-15.7v-0.6c-1.7-1.7-2.8-3.9-2.8-6.7
	c0-5.1,3.9-9,8.4-9c0.6-1.7,1.1-3.4,1.1-3.9c1.1-3.9,5.1-6.7,9-6.7c2.8,0,6.2,1.7,7.9,3.9c1.1,1.1,1.7,2.8,1.7,4.5
	c0,0.6,0,0.6,0,1.1c0,1.1,0,2.2-0.6,3.4c1.7,1.1,3.4,3.9,3.4,6.2c0,2.8-1.1,5.1-2.8,6.7c2.8,1.7,4.5,4.5,4.5,7.9
	c0,1.7-0.6,2.8-0.6,3.4c0,0,0,0.6-0.6,0.6C491.9,63.6,486.3,75.4,474.5,75.4z"/>
<path class="st0" d="M489.1,75.4c-7.9,0-13.5-5.6-13.5-14c0-6.7,2.2-13.5,6.2-20.8c5.6-9,11.8-10.1,15.7-10.1c8.4,0,14,6.2,14,14.6
	c2.8,0.6,5.1,1.7,6.2,3.9c1.7,2.8,2.2,5.6,0.6,9c-1.7,3.4-6.2,14-16.9,14c-1.1,0-1.7,0-2.8,0C496.4,73.7,493,75.4,489.1,75.4z"/>
<g>
	<g>
		<path class="st1" d="M520,67.5V32.7h19.1l2.2,7.3H529v7.3h9v7.9h-9V67L520,67.5z"/>
		<path class="st1" d="M558.8,40L558.8,40c2.8,0,5.6,0.6,7.3,1.7c2.2,1.1,3.9,2.8,5.1,5.1c1.1,2.2,1.7,4.5,1.7,6.7l0,0
			c0,2.2-0.6,4.5-1.7,6.7s-2.8,3.4-4.5,5.1c-2.2,1.1-3.9,1.7-6.2,2.2c-0.6,0-0.6,0-1.1,0c-2.2,0-4.5-0.6-6.2-1.7
			c-2.2-1.1-3.9-2.8-5.6-4.5c-1.7-2.2-2.2-4.5-2.2-6.7V54c0-2.2,0.6-4.5,1.7-6.2c1.1-2.2,2.8-3.9,5.1-5.1
			C554.3,40.6,556.5,40,558.8,40z M559.4,47.3c-1.1,0-2.2,0.6-2.8,1.1c-1.1,0.6-1.7,1.1-2.2,2.2c-0.6,1.1-0.6,1.7-0.6,2.8
			c0,1.7,0.6,2.8,1.7,4.5c1.1,1.1,2.8,1.7,4.5,1.7s3.4-0.6,4.5-1.7c1.1-1.1,1.7-2.8,1.7-4.5s-0.6-3.4-1.7-4.5
			C562.2,47.9,561,47.3,559.4,47.3L559.4,47.3z"/>
		<path class="st1" d="M586.3,55.7v10.7l-8.4,0.6V41.7l7.9-1.1v3.9c0.6-1.1,1.7-2.2,2.8-2.8c1.1-0.6,2.8-1.1,3.9-1.1
			c0.6,0,1.1,0,1.1,0c0.6,0,0.6,0,0.6,0l-2.8,7.9c0,0,0,0-0.6,0c0,0-0.6,0-1.1,0c-0.6,0-1.1,0-1.7,0c-1.1,0.6-1.7,1.1-2.2,1.7
			c-0.6,1.1-0.6,2.2-0.6,3.9C586.3,54.6,586.3,55.2,586.3,55.7z"/>
		<path class="st1" d="M611.6,40L611.6,40c2.8,0,5.6,0.6,7.3,1.7c2.2,1.1,3.9,2.8,5.1,5.1c1.1,2.2,1.7,4.5,1.7,6.7l0,0
			c0,2.2-0.6,4.5-1.7,6.7c-1.1,2.2-2.8,3.4-4.5,5.1c-2.2,1.1-3.9,1.7-6.2,2.2c-0.6,0-0.6,0-1.1,0c-2.2,0-4.5-0.6-6.2-1.7
			c-2.2-1.1-3.9-2.8-5.6-4.5c-1.7-2.2-2.2-4.5-2.2-6.7V54c0-2.2,0.6-4.5,1.7-6.2c1.1-2.2,2.8-3.9,5.1-5.1
			C607.1,40.6,609.4,40,611.6,40z M612.2,47.3c-1.1,0-2.2,0.6-2.8,1.1c-1.1,0.6-1.7,1.1-2.2,2.2c-0.6,1.1-0.6,1.7-0.6,2.8
			c0,1.7,0.6,2.8,1.7,4.5c1.1,1.1,2.8,1.7,4.5,1.7s3.4-0.6,4.5-1.7c1.1-1.1,1.7-2.8,1.7-4.5s-0.6-3.4-1.7-4.5
			C615,47.9,613.9,47.3,612.2,47.3L612.2,47.3z"/>
		<path class="st2" d="M474.5,168.7v-34.8l8.4-1.1v34.8L474.5,168.7z"/>
		<path class="st2" d="M501.5,168.7L501.5,168.7c-2.8,0-4.5-0.6-6.7-1.7s-3.9-2.8-5.1-5.1c-1.1-2.2-1.7-4.5-1.7-6.7l0,0
			c0-2.2,0.6-4.5,1.7-6.7c1.1-2.2,2.8-3.9,4.5-5.1c1.7-1.1,3.9-1.7,6.7-1.7c2.8,0,5.6,1.1,7.3,2.8v-10.7l7.9-1.1v35.4l-7.9,0.6v-2.2
			c-0.6,0.6-1.1,1.1-2.2,1.7C504.8,168.7,503.2,168.7,501.5,168.7z M495.9,154.6L495.9,154.6c0,2.2,0.6,3.4,1.7,4.5
			c1.1,1.1,2.2,2.2,3.9,2.2h0.6c1.7,0,2.8-0.6,3.9-1.7c1.1-1.1,2.2-2.2,2.2-3.9v-0.6c0-1.1,0-1.7-0.6-2.8c-0.6-1.1-1.1-2.2-2.2-2.8
			c-1.1-0.6-2.2-1.1-3.4-1.1l0,0c-1.7,0-2.8,0.6-4.5,1.7C497,151.8,496.4,152.9,495.9,154.6z"/>
		<path class="st2" d="M529,141.1l-5.6-4.5l5.1-5.1l5.6,3.9L529,141.1z M524.5,142.8l7.9-1.1v25.8l-7.9,0.6
			C524.5,168.1,524.5,142.8,524.5,142.8z"/>
		<path class="st2" d="M553.2,141.1L553.2,141.1c2.8,0,5.6,0.6,7.3,1.7c2.2,1.1,3.9,2.8,5.1,5.1c1.1,2.2,1.7,4.5,1.7,6.7l0,0
			c0,2.2-0.6,4.5-1.7,6.7c-1.1,2.2-2.8,3.4-4.5,5.1c-2.2,1.1-3.9,1.7-6.2,2.2c-0.6,0-0.6,0-1.1,0c-2.2,0-4.5-0.6-6.2-1.7
			c-2.2-1.1-3.9-2.8-5.6-4.5c-1.7-2.2-2.2-4.5-2.2-6.7v-0.6c0-2.2,0.6-4.5,1.7-6.2c1.1-2.2,2.8-3.9,5.1-5.1
			C548.1,142.3,550.4,141.1,553.2,141.1z M553.2,149c-1.1,0-2.2,0.6-2.8,1.1c-1.1,0.6-1.7,1.1-2.2,2.2s-0.6,1.7-0.6,2.8
			c0,1.7,0.6,2.8,1.7,4.5c1.1,1.1,2.8,1.7,4.5,1.7c1.7,0,3.4-0.6,4.5-1.7c1.1-1.1,1.7-2.8,1.7-4.5c0-1.7-0.6-3.4-1.7-4.5
			C556.5,149.6,555.4,149,553.2,149L553.2,149z"/>
		<path class="st2" d="M606,167.5l-7.9,0.6v-15.7c0-1.1,0-2.2-0.6-2.8c-0.6-0.6-1.1-1.1-1.7-1.1h-0.6c-1.1,0-1.7,0.6-2.2,1.1
			s-0.6,1.7-0.6,2.8c0,0.6,0,0.6,0,1.1V167l-7.9,1.1v-15.2c0-2.8-0.6-4.5-2.2-4.5h-0.6c-1.1,0-1.7,0.6-2.2,1.1
			c-0.6,0.6-0.6,2.2-0.6,3.9v14l-7.9,0.6v-25.8l7.3-1.1v2.8c0,0,0-0.6,0.6-0.6c0.6-0.6,1.1-0.6,1.7-1.1c0.6-0.6,1.7-0.6,2.8-0.6h0.6
			c0.6,0,1.1,0,2.2,0.6c0.6,0.6,1.7,0.6,1.7,1.1c0.6,0.6,0.6,0.6,1.1,1.1c0.6,0.6,0.6,0.6,0.6,0.6c1.1-1.1,1.7-1.7,2.8-2.2
			c1.1-0.6,2.2-0.6,3.9-0.6l0,0c1.7,0,2.8,0.6,4.5,1.1c1.1,0.6,2.2,1.7,3.4,2.8c0.6,1.1,1.1,2.8,1.1,4.5v16.9H606z"/>
		<path class="st2" d="M633,150.1v17.4l-7.3,1.1v-2.2c0,0,0,0.6-0.6,0.6c-0.6,0.6-1.1,0.6-2.2,1.1c-1.1,0.6-1.7,0.6-2.8,0.6l0,0
			c-1.7,0-3.4-0.6-4.5-1.1c-1.7-0.6-2.8-1.7-3.4-3.4c-1.1-1.1-1.1-2.8-1.1-4.5c0-1.7,0.6-3.4,1.1-4.5c1.1-1.1,2.2-2.2,3.4-3.4
			c0.6-0.6,2.2-0.6,3.9-0.6h0.6c1.1,0,1.7,0,2.8,0.6c0.6,0.6,1.7,0.6,1.7,1.1l0.6,0.6c0-1.1,0-1.7,0-2.2c0-1.1-0.6-1.7-1.7-2.2
			c-0.6-0.6-1.7-0.6-3.4-0.6l0,0c-1.1,0-2.8,0.6-4.5,1.1c-1.7,0.6-2.8,1.1-2.8,1.1l1.7-7.3c0,0,0.6,0,1.7-0.6c1.1,0,2.2-0.6,3.4-0.6
			c1.1,0,2.2,0,2.8-0.6h0.6c1.7,0,3.4,0,4.5,0.6c1.7,0.6,2.8,1.7,3.9,2.8C632.4,146.8,633,147.9,633,150.1z M625.1,159.7
			c0-1.1-0.6-1.7-1.1-2.2c-0.6-0.6-1.7-1.1-2.8-1.1l0,0c-1.1,0-1.7,0.6-2.8,1.1c-0.6,0.6-1.1,1.1-1.1,2.2l0,0c0,1.1,0.6,1.7,1.1,2.2
			c0.6,0.6,1.7,1.1,2.8,1.1c1.1,0,1.7,0,2.8-0.6C625.1,161.9,625.1,160.8,625.1,159.7z"/>
		<path class="st2" d="M657.7,145.6l-5.1,4.5c0,0,0,0-0.6-0.6l-0.6-0.6c0,0-0.6-0.6-1.1-0.6s-1.1-0.6-1.7-0.6s-1.7,0-2.2,0.6
			c-0.6,0.6-1.1,0.6-1.1,1.7l0,0c0,0.6,0.6,0.6,1.1,1.1c0.6,0.6,1.1,0.6,2.2,0.6c1.1,0,1.7,0.6,2.8,0.6c1.7,0.6,3.4,1.1,4.5,2.2
			c1.1,1.1,2.2,3.4,2.2,5.6l0,0c0,1.7-0.6,2.8-1.7,4.5c-1.1,1.1-2.2,2.2-3.9,2.8c-1.7,0.6-3.4,1.1-5.1,1.1H647
			c-2.2,0-4.5-0.6-6.7-1.7s-3.4-1.7-3.4-2.2l3.9-5.6c0.6,0.6,1.1,1.1,2.2,1.7c1.1,0.6,2.2,1.1,3.4,1.1l0,0c1.1,0,1.7,0,2.2-0.6
			c0.6-0.6,1.1-0.6,1.1-1.1l0,0c0-0.6-0.6-1.1-1.1-1.1s-1.7-0.6-2.8-0.6c-1.7-0.6-2.8-0.6-3.9-1.1c-3.4-1.7-4.5-3.9-4.5-7.3
			c0-1.7,0.6-2.8,1.1-4.5c1.1-1.1,2.2-2.2,3.4-2.8c1.7-0.6,2.8-1.1,4.5-1.1h0.6c2.2,0,3.9,0.6,6.2,1.7
			C656.6,144.5,657.7,145.1,657.7,145.6z"/>
		<g>
			<path class="st3" d="M379.5,117.5V82.7l8.4-1.1v34.8L379.5,117.5z"/>
			<path class="st3" d="M408.2,117.5v-15.2c0-3.4-1.1-4.5-2.8-4.5c-2.2,0-2.8,1.7-2.8,4.5V117l-7.9,0.6V91.7l7.3-1.1v2.8
				c0,0,0-0.6,0.6-0.6c0.6-0.6,1.1-1.1,2.2-1.1c1.1-0.6,2.2-0.6,3.4-0.6h0.6c2.2,0,3.9,0.6,5.6,2.2c1.7,1.7,2.2,3.4,2.2,6.2v18
				H408.2z"/>
			<path class="st3" d="M431.8,119.8l-12.9-27l7.9-1.7l5.1,11.8l5.1-11.8l7.9,1.7L431.8,119.8z"/>
			<path class="st3" d="M473.9,99l-16.3,10.1c0,0.6,0.6,0.6,1.7,1.1c0.6,0.6,1.7,0.6,2.8,0.6h0.6c1.1,0,1.7-0.6,2.8-0.6
				c1.1-0.6,1.7-0.6,2.2-1.1c0.6-0.6,1.1-0.6,1.1-0.6l3.9,6.2c-0.6,0.6-1.1,0.6-1.7,1.1c-1.1,0.6-2.2,1.1-3.9,1.7
				c-1.7,0.6-3.4,1.1-5.1,1.1l0,0c-2.2,0-5.1-0.6-6.7-1.7c-2.2-1.1-3.9-2.8-5.1-5.1c-1.1-2.2-1.7-4.5-1.7-6.7l0,0
				c0-2.2,0.6-4.5,1.7-6.2c1.1-2.2,2.2-3.4,4.5-5.1c1.7-1.1,3.9-2.2,6.2-2.2c0.6,0,1.1,0,1.7,0c1.7,0,2.8,0,4.5,0.6
				c1.7,0.6,3.4,1.7,4.5,2.8c1.1,1.1,1.7,2.2,2.2,2.8C473.4,97.9,473.9,98.4,473.9,99z M455.4,104.6l9-5.6c0,0-0.6-0.6-1.1-0.6
				c-0.6,0-1.1-0.6-2.2-0.6c-1.7,0-3.4,0.6-4.5,2.2C456,101.2,455.4,102.9,455.4,104.6z"/>
			<path class="st3" d="M498.7,95.1l-5.1,4.5c0,0,0,0-0.6-0.6l-0.6-0.6c0,0-0.6-0.6-1.1-0.6c-0.6,0-1.1-0.6-1.7-0.6
				c-0.6,0-1.7,0-2.2,0.6c-0.6,0.6-0.6,1.1-0.6,1.7l0,0c0,0.6,0.6,0.6,1.1,1.1c0.6,0.6,1.1,0.6,2.2,0.6s1.7,0.6,2.8,0.6
				c1.7,0.6,3.4,1.1,4.5,2.2c1.1,1.1,2.2,3.4,2.2,5.6l0,0c0,1.7-0.6,2.8-1.7,4.5c-1.1,1.1-2.2,2.2-3.9,2.8c-1.7,0.6-3.4,1.1-5.1,1.1
				h-0.6c-2.2,0-4.5-0.6-6.7-1.7c-2.2-1.1-3.4-1.7-3.4-2.2l3.9-5.6c0.6,0.6,1.1,1.1,2.2,1.7c1.1,0.6,2.2,1.1,3.4,1.1l0,0
				c1.1,0,1.7,0,2.2-0.6c0.6-0.6,1.1-0.6,1.1-1.1l0,0c0-0.6-0.6-1.1-1.1-1.1c-0.6,0-1.7-0.6-2.8-0.6c-1.7-0.6-2.8-0.6-3.9-1.1
				c-3.4-1.7-4.5-3.9-4.5-7.3c0-1.7,0.6-2.8,1.1-4.5c1.1-1.1,2.2-2.2,3.4-2.8c1.7-0.6,2.8-1.1,4.5-1.1h0.6c2.2,0,3.9,0.6,6.2,1.7
				C497,93.9,498.1,94.5,498.7,95.1z"/>
			<path class="st3" d="M515.5,99.6v6.7c0,1.1,0,1.7,0.6,2.2c0,0.6,0.6,1.1,1.1,1.1c0.6,0,1.1,0.6,2.2,0.6c0.6,0,1.1,0,1.7,0
				s1.1,0,1.1,0l-1.7,7.9H520c-0.6,0-0.6,0-1.1,0c-2.8,0-5.1-0.6-6.7-1.7c-2.8-1.7-4.5-4.5-4.5-7.9v-9h-4.5l2.2-7.3h2.2v-5.1
				l7.9-3.4v7.9h5.1V99L515.5,99.6L515.5,99.6z"/>
			<path class="st3" d="M532.9,90l-5.6-4.5l5.1-5.1l5.6,3.9L532.9,90z M529,92.3l7.9-1.1V117l-7.9,0.6C529,117.5,529,92.3,529,92.3z
				"/>
			<path class="st3" d="M570,90l-1.7,6.2h-2.8c0.6,0.6,0.6,1.1,1.1,2.2c0.6,1.1,0.6,2.2,0.6,2.8c0,0,0,0,0,0.6
				c0,1.7-0.6,2.8-1.1,3.9c-0.6,1.1-1.1,1.7-2.2,2.2c-0.6,0.6-1.1,0.6-1.1,1.1c0,0,0.6,0.6,1.1,1.1c0.6,0.6,1.7,1.1,2.2,2.2
				c0.6,1.1,1.1,2.2,1.1,3.9c0,2.8-1.1,5.6-3.9,7.3c-2.8,1.7-5.6,2.8-9,2.8c-3.9,0-6.7-0.6-8.4-1.7c-1.7-1.1-2.8-2.2-3.4-2.8
				l4.5-5.1c0,0,0.6,0.6,1.1,1.1c0.6,0.6,1.7,1.1,2.2,1.7c1.1,0.6,1.7,0.6,2.8,0.6l0,0c3.9,0,5.6-1.7,5.6-3.9c0-1.7-0.6-2.2-1.7-3.4
				c0-1.1-1.1-1.1-2.8-1.1h-0.6c-1.1,0-1.7,0-2.2,0c-1.1,0-1.7,0.6-2.2,0.6l-1.1,0.6l1.1-2.2c-1.1-0.6-2.2-1.1-3.4-2.8
				c-1.1-1.1-2.2-3.4-2.2-6.2l0,0c0-2.2,0.6-3.9,1.7-5.6c1.1-1.7,2.2-2.8,3.9-3.9c1.7-1.1,3.4-1.1,5.6-1.1h0.6c1.1,0,2.2,0,3.4,0
				c1.1,0,2.2,0,2.8,0.6C565,91.1,567.2,90.6,570,90z M555.4,97.3c-1.1,0-2.2,0.6-2.8,1.1c-0.6,0.6-1.1,1.7-1.1,2.8c0,0,0,0,0,0.6
				c0,1.1,0.6,2.2,1.1,2.8c0.6,1.1,1.7,1.7,2.8,1.7c1.1,0,1.7,0,2.8-0.6c0.6-0.6,1.1-1.1,1.7-1.7c0.6-0.6,0.6-1.7,0.6-2.2l0,0
				c0-1.1-0.6-2.2-1.7-3.4C557.7,97.9,556.5,97.3,555.4,97.3z"/>
			<path class="st3" d="M596.4,99.6V117l-7.3,1.1v-2.2c0,0,0,0.6-0.6,0.6c-0.6,0.6-1.1,0.6-2.2,1.1c-1.1,0.6-1.7,0.6-2.8,0.6l0,0
				c-1.7,0-3.4-0.6-4.5-1.1c-1.7-0.6-2.8-1.7-3.4-3.4c-1.1-1.1-1.1-2.8-1.1-4.5c0-1.7,0.6-3.4,1.1-4.5c1.1-1.1,2.2-2.2,3.4-3.4
				c1.1-0.6,2.8-1.1,4.5-1.1h0.6c1.1,0,1.7,0,2.8,0.6c0.6,0.6,1.7,0.6,1.7,1.1l0.6,0.6c0-1.1,0-1.7,0-2.2c0-1.1-0.6-1.7-1.7-2.2
				c-0.6-0.6-1.7-0.6-3.4-0.6l0,0c-1.1,0-2.8,0.6-4.5,1.1c-1.7,0.6-2.8,1.1-2.8,1.1l1.7-7.3c0,0,0.6,0,1.7-0.6
				c1.1,0,2.2-0.6,3.4-0.6c1.1,0,2.2,0,2.8-0.6h0.6c1.7,0,3.4,0,4.5,0.6c1.7,0.6,2.8,1.7,3.9,2.8C595.9,95.6,596.4,97.3,596.4,99.6z
				 M588.6,109.1c0-1.1-0.6-1.7-1.1-2.2c-0.6-0.6-1.7-1.1-2.8-1.1l0,0c-1.1,0-1.7,0.6-2.8,1.1c-0.6,0.6-1.1,1.1-1.1,2.2l0,0
				c0,1.1,0.6,1.7,1.1,2.2c0.6,0.6,1.7,1.1,2.8,1.1c1.1,0,1.7,0,2.8-0.6C588,110.8,588.6,110.2,588.6,109.1z"/>
			<path class="st3" d="M624,93.9l-4.5,5.6c0,0,0,0-0.6-0.6c0,0-0.6-0.6-1.1-0.6s-1.1-0.6-1.7-0.6s-1.1,0-1.7,0l0,0
				c-1.7,0-3.4,0.6-4.5,2.2c-1.1,1.1-1.7,2.8-1.7,4.5v0.6c0,1.7,0.6,3.4,1.7,4.5c1.1,1.1,2.2,1.7,3.9,1.7c1.1,0,1.7,0,2.8-0.6
				c0.6,0,1.1-0.6,1.7-1.1c0.6-0.6,0.6-0.6,0.6-0.6l4.5,5.6c-0.6,0.6-1.7,1.1-3.4,2.2c-1.7,0.6-3.4,1.1-5.6,1.1l0,0
				c-2.8,0-5.1-0.6-7.3-1.7c-2.2-1.1-3.9-2.8-5.1-5.1c-1.1-2.2-1.7-4.5-1.7-6.7c0-2.2,0.6-4.5,1.7-6.7c1.1-2.2,2.8-3.9,5.1-5.1
				c2.2-1.1,4.5-1.7,7.3-1.7c2.8,0,5.1,0.6,6.2,1.1C622.3,92.8,623.4,93.4,624,93.9z"/>
			<path class="st3" d="M635.2,90l-5.6-4.5l5.1-5.1l5.6,3.9L635.2,90z M630.7,92.3l7.9-1.1V117l-7.9,0.6V92.3z"/>
			<path class="st3" d="M659.4,90.6L659.4,90.6c2.8,0,5.6,0.6,7.3,1.7c2.2,1.1,3.9,2.8,5.1,5.1c1.1,2.2,1.7,4.5,1.7,6.7l0,0
				c0,2.2-0.6,4.5-1.7,6.7c-1.1,2.2-2.8,3.4-4.5,5.1c-2.2,1.1-3.9,1.7-6.2,2.2c-0.6,0-0.6,0-1.1,0c-2.2,0-4.5-0.6-6.2-1.7
				c-2.2-1.1-3.9-2.8-5.6-4.5c-1.7-2.2-2.2-4.5-2.2-6.7v-0.6c0-2.2,0.6-4.5,1.7-6.2c1.1-2.2,2.8-3.9,5.1-5.1
				C654.3,91.7,656.6,90.6,659.4,90.6z M659.4,97.9c-1.1,0-2.2,0.6-2.8,1.1c-1.1,0.6-1.7,1.1-2.2,2.2c-0.6,1.1-0.6,1.7-0.6,2.8
				c0,1.7,0.6,2.8,1.7,4.5c1.1,1.1,2.8,1.7,4.5,1.7s3.4-0.6,4.5-1.7c1.1-1.1,1.7-2.8,1.7-4.5c0-1.7-0.6-3.4-1.7-4.5
				C662.7,98.4,661.1,97.9,659.4,97.9L659.4,97.9z"/>
			<path class="st3" d="M691.4,117.5v-15.2c0-3.4-1.1-4.5-2.8-4.5c-2.2,0-2.8,1.7-2.8,4.5V117l-7.9,0.6V91.7l7.3-1.1v2.8
				c0,0,0-0.6,0.6-0.6c0.6-0.6,1.1-1.1,2.2-1.1c1.1-0.6,2.2-0.6,3.4-0.6h0.6c2.2,0,3.9,0.6,5.6,2.2c1.7,1.7,2.2,3.4,2.2,6.2v18
				C699.8,117.5,691.4,117.5,691.4,117.5z"/>
			<polygon class="st3" points="657.7,90 665,80.5 670.6,81.6 			"/>
		</g>
	</g>
</g>
<g>
	<g>
		<g>
			<path class="st1" d="M520,67.5V32.7h19.1l2.2,7.3H529v7.3h9v7.9h-9V67L520,67.5z"/>
			<path class="st1" d="M558.8,40L558.8,40c2.8,0,5.6,0.6,7.3,1.7c2.2,1.1,3.9,2.8,5.1,5.1c1.1,2.2,1.7,4.5,1.7,6.7l0,0
				c0,2.2-0.6,4.5-1.7,6.7s-2.8,3.4-4.5,5.1c-2.2,1.1-3.9,1.7-6.2,2.2c-0.6,0-0.6,0-1.1,0c-2.2,0-4.5-0.6-6.2-1.7
				c-2.2-1.1-3.9-2.8-5.6-4.5c-1.7-2.2-2.2-4.5-2.2-6.7V54c0-2.2,0.6-4.5,1.7-6.2c1.1-2.2,2.8-3.9,5.1-5.1
				C554.3,40.6,556.5,40,558.8,40z M559.4,47.3c-1.1,0-2.2,0.6-2.8,1.1c-1.1,0.6-1.7,1.1-2.2,2.2c-0.6,1.1-0.6,1.7-0.6,2.8
				c0,1.7,0.6,2.8,1.7,4.5c1.1,1.1,2.8,1.7,4.5,1.7s3.4-0.6,4.5-1.7c1.1-1.1,1.7-2.8,1.7-4.5s-0.6-3.4-1.7-4.5
				C562.2,47.9,561,47.3,559.4,47.3L559.4,47.3z"/>
			<path class="st1" d="M586.3,55.7v10.7l-8.4,0.6V41.7l7.9-1.1v3.9c0.6-1.1,1.7-2.2,2.8-2.8c1.1-0.6,2.8-1.1,3.9-1.1
				c0.6,0,1.1,0,1.1,0c0.6,0,0.6,0,0.6,0l-2.8,7.9c0,0,0,0-0.6,0c0,0-0.6,0-1.1,0c-0.6,0-1.1,0-1.7,0c-1.1,0.6-1.7,1.1-2.2,1.7
				c-0.6,1.1-0.6,2.2-0.6,3.9C586.3,54.6,586.3,55.2,586.3,55.7z"/>
			<path class="st1" d="M611.6,40L611.6,40c2.8,0,5.6,0.6,7.3,1.7c2.2,1.1,3.9,2.8,5.1,5.1c1.1,2.2,1.7,4.5,1.7,6.7l0,0
				c0,2.2-0.6,4.5-1.7,6.7c-1.1,2.2-2.8,3.4-4.5,5.1c-2.2,1.1-3.9,1.7-6.2,2.2c-0.6,0-0.6,0-1.1,0c-2.2,0-4.5-0.6-6.2-1.7
				c-2.2-1.1-3.9-2.8-5.6-4.5c-1.7-2.2-2.2-4.5-2.2-6.7V54c0-2.2,0.6-4.5,1.7-6.2c1.1-2.2,2.8-3.9,5.1-5.1
				C607.1,40.6,609.4,40,611.6,40z M612.2,47.3c-1.1,0-2.2,0.6-2.8,1.1c-1.1,0.6-1.7,1.1-2.2,2.2c-0.6,1.1-0.6,1.7-0.6,2.8
				c0,1.7,0.6,2.8,1.7,4.5c1.1,1.1,2.8,1.7,4.5,1.7s3.4-0.6,4.5-1.7c1.1-1.1,1.7-2.8,1.7-4.5s-0.6-3.4-1.7-4.5
				C615,47.9,613.9,47.3,612.2,47.3L612.2,47.3z"/>
			<path class="st2" d="M474.5,168.7v-34.8l8.4-1.1v34.8L474.5,168.7z"/>
			<path class="st2" d="M501.5,168.7L501.5,168.7c-2.8,0-4.5-0.6-6.7-1.7s-3.9-2.8-5.1-5.1c-1.1-2.2-1.7-4.5-1.7-6.7l0,0
				c0-2.2,0.6-4.5,1.7-6.7c1.1-2.2,2.8-3.9,4.5-5.1c1.7-1.1,3.9-1.7,6.7-1.7c2.8,0,5.6,1.1,7.3,2.8v-10.7l7.9-1.1v35.4l-7.9,0.6
				v-2.2c-0.6,0.6-1.1,1.1-2.2,1.7C504.8,168.7,503.2,168.7,501.5,168.7z M495.9,154.6L495.9,154.6c0,2.2,0.6,3.4,1.7,4.5
				c1.1,1.1,2.2,2.2,3.9,2.2h0.6c1.7,0,2.8-0.6,3.9-1.7c1.1-1.1,2.2-2.2,2.2-3.9v-0.6c0-1.1,0-1.7-0.6-2.8c-0.6-1.1-1.1-2.2-2.2-2.8
				c-1.1-0.6-2.2-1.1-3.4-1.1l0,0c-1.7,0-2.8,0.6-4.5,1.7C497,151.8,496.4,152.9,495.9,154.6z"/>
			<path class="st2" d="M529,141.1l-5.6-4.5l5.1-5.1l5.6,3.9L529,141.1z M524.5,142.8l7.9-1.1v25.8l-7.9,0.6
				C524.5,168.1,524.5,142.8,524.5,142.8z"/>
			<path class="st2" d="M553.2,141.1L553.2,141.1c2.8,0,5.6,0.6,7.3,1.7c2.2,1.1,3.9,2.8,5.1,5.1c1.1,2.2,1.7,4.5,1.7,6.7l0,0
				c0,2.2-0.6,4.5-1.7,6.7c-1.1,2.2-2.8,3.4-4.5,5.1c-2.2,1.1-3.9,1.7-6.2,2.2c-0.6,0-0.6,0-1.1,0c-2.2,0-4.5-0.6-6.2-1.7
				c-2.2-1.1-3.9-2.8-5.6-4.5c-1.7-2.2-2.2-4.5-2.2-6.7v-0.6c0-2.2,0.6-4.5,1.7-6.2c1.1-2.2,2.8-3.9,5.1-5.1
				C548.1,142.3,550.4,141.1,553.2,141.1z M553.2,149c-1.1,0-2.2,0.6-2.8,1.1c-1.1,0.6-1.7,1.1-2.2,2.2s-0.6,1.7-0.6,2.8
				c0,1.7,0.6,2.8,1.7,4.5c1.1,1.1,2.8,1.7,4.5,1.7c1.7,0,3.4-0.6,4.5-1.7c1.1-1.1,1.7-2.8,1.7-4.5c0-1.7-0.6-3.4-1.7-4.5
				C556.5,149.6,555.4,149,553.2,149L553.2,149z"/>
			<path class="st2" d="M606,167.5l-7.9,0.6v-15.7c0-1.1,0-2.2-0.6-2.8c-0.6-0.6-1.1-1.1-1.7-1.1h-0.6c-1.1,0-1.7,0.6-2.2,1.1
				s-0.6,1.7-0.6,2.8c0,0.6,0,0.6,0,1.1V167l-7.9,1.1v-15.2c0-2.8-0.6-4.5-2.2-4.5h-0.6c-1.1,0-1.7,0.6-2.2,1.1
				c-0.6,0.6-0.6,2.2-0.6,3.9v14l-7.9,0.6v-25.8l7.3-1.1v2.8c0,0,0-0.6,0.6-0.6c0.6-0.6,1.1-0.6,1.7-1.1c0.6-0.6,1.7-0.6,2.8-0.6
				h0.6c0.6,0,1.1,0,2.2,0.6c0.6,0.6,1.7,0.6,1.7,1.1c0.6,0.6,0.6,0.6,1.1,1.1c0.6,0.6,0.6,0.6,0.6,0.6c1.1-1.1,1.7-1.7,2.8-2.2
				c1.1-0.6,2.2-0.6,3.9-0.6l0,0c1.7,0,2.8,0.6,4.5,1.1c1.1,0.6,2.2,1.7,3.4,2.8c0.6,1.1,1.1,2.8,1.1,4.5v16.9H606z"/>
			<path class="st2" d="M633,150.1v17.4l-7.3,1.1v-2.2c0,0,0,0.6-0.6,0.6c-0.6,0.6-1.1,0.6-2.2,1.1c-1.1,0.6-1.7,0.6-2.8,0.6l0,0
				c-1.7,0-3.4-0.6-4.5-1.1c-1.7-0.6-2.8-1.7-3.4-3.4c-1.1-1.1-1.1-2.8-1.1-4.5c0-1.7,0.6-3.4,1.1-4.5c1.1-1.1,2.2-2.2,3.4-3.4
				c0.6-0.6,2.2-0.6,3.9-0.6h0.6c1.1,0,1.7,0,2.8,0.6c0.6,0.6,1.7,0.6,1.7,1.1l0.6,0.6c0-1.1,0-1.7,0-2.2c0-1.1-0.6-1.7-1.7-2.2
				c-0.6-0.6-1.7-0.6-3.4-0.6l0,0c-1.1,0-2.8,0.6-4.5,1.1c-1.7,0.6-2.8,1.1-2.8,1.1l1.7-7.3c0,0,0.6,0,1.7-0.6
				c1.1,0,2.2-0.6,3.4-0.6c1.1,0,2.2,0,2.8-0.6h0.6c1.7,0,3.4,0,4.5,0.6c1.7,0.6,2.8,1.7,3.9,2.8C632.4,146.8,633,147.9,633,150.1z
				 M625.1,159.7c0-1.1-0.6-1.7-1.1-2.2c-0.6-0.6-1.7-1.1-2.8-1.1l0,0c-1.1,0-1.7,0.6-2.8,1.1c-0.6,0.6-1.1,1.1-1.1,2.2l0,0
				c0,1.1,0.6,1.7,1.1,2.2c0.6,0.6,1.7,1.1,2.8,1.1c1.1,0,1.7,0,2.8-0.6C625.1,161.9,625.1,160.8,625.1,159.7z"/>
			<path class="st2" d="M657.7,145.6l-5.1,4.5c0,0,0,0-0.6-0.6l-0.6-0.6c0,0-0.6-0.6-1.1-0.6s-1.1-0.6-1.7-0.6s-1.7,0-2.2,0.6
				c-0.6,0.6-1.1,0.6-1.1,1.7l0,0c0,0.6,0.6,0.6,1.1,1.1c0.6,0.6,1.1,0.6,2.2,0.6c1.1,0,1.7,0.6,2.8,0.6c1.7,0.6,3.4,1.1,4.5,2.2
				c1.1,1.1,2.2,3.4,2.2,5.6l0,0c0,1.7-0.6,2.8-1.7,4.5c-1.1,1.1-2.2,2.2-3.9,2.8c-1.7,0.6-3.4,1.1-5.1,1.1H647
				c-2.2,0-4.5-0.6-6.7-1.7s-3.4-1.7-3.4-2.2l3.9-5.6c0.6,0.6,1.1,1.1,2.2,1.7c1.1,0.6,2.2,1.1,3.4,1.1l0,0c1.1,0,1.7,0,2.2-0.6
				c0.6-0.6,1.1-0.6,1.1-1.1l0,0c0-0.6-0.6-1.1-1.1-1.1s-1.7-0.6-2.8-0.6c-1.7-0.6-2.8-0.6-3.9-1.1c-3.4-1.7-4.5-3.9-4.5-7.3
				c0-1.7,0.6-2.8,1.1-4.5c1.1-1.1,2.2-2.2,3.4-2.8c1.7-0.6,2.8-1.1,4.5-1.1h0.6c2.2,0,3.9,0.6,6.2,1.7
				C656.6,144.5,657.7,145.1,657.7,145.6z"/>
			<g>
				<path class="st3" d="M379.5,117.5V82.7l8.4-1.1v34.8L379.5,117.5z"/>
				<path class="st3" d="M408.2,117.5v-15.2c0-3.4-1.1-4.5-2.8-4.5c-2.2,0-2.8,1.7-2.8,4.5V117l-7.9,0.6V91.7l7.3-1.1v2.8
					c0,0,0-0.6,0.6-0.6c0.6-0.6,1.1-1.1,2.2-1.1c1.1-0.6,2.2-0.6,3.4-0.6h0.6c2.2,0,3.9,0.6,5.6,2.2c1.7,1.7,2.2,3.4,2.2,6.2v18
					H408.2z"/>
				<path class="st3" d="M431.8,119.8l-12.9-27l7.9-1.7l5.1,11.8l5.1-11.8l7.9,1.7L431.8,119.8z"/>
				<path class="st3" d="M473.9,99l-16.3,10.1c0,0.6,0.6,0.6,1.7,1.1c0.6,0.6,1.7,0.6,2.8,0.6h0.6c1.1,0,1.7-0.6,2.8-0.6
					c1.1-0.6,1.7-0.6,2.2-1.1c0.6-0.6,1.1-0.6,1.1-0.6l3.9,6.2c-0.6,0.6-1.1,0.6-1.7,1.1c-1.1,0.6-2.2,1.1-3.9,1.7
					c-1.7,0.6-3.4,1.1-5.1,1.1l0,0c-2.2,0-5.1-0.6-6.7-1.7c-2.2-1.1-3.9-2.8-5.1-5.1c-1.1-2.2-1.7-4.5-1.7-6.7l0,0
					c0-2.2,0.6-4.5,1.7-6.2c1.1-2.2,2.2-3.4,4.5-5.1c1.7-1.1,3.9-2.2,6.2-2.2c0.6,0,1.1,0,1.7,0c1.7,0,2.8,0,4.5,0.6
					c1.7,0.6,3.4,1.7,4.5,2.8c1.1,1.1,1.7,2.2,2.2,2.8C473.4,97.9,473.9,98.4,473.9,99z M455.4,104.6l9-5.6c0,0-0.6-0.6-1.1-0.6
					c-0.6,0-1.1-0.6-2.2-0.6c-1.7,0-3.4,0.6-4.5,2.2C456,101.2,455.4,102.9,455.4,104.6z"/>
				<path class="st3" d="M498.7,95.1l-5.1,4.5c0,0,0,0-0.6-0.6l-0.6-0.6c0,0-0.6-0.6-1.1-0.6c-0.6,0-1.1-0.6-1.7-0.6
					c-0.6,0-1.7,0-2.2,0.6c-0.6,0.6-0.6,1.1-0.6,1.7l0,0c0,0.6,0.6,0.6,1.1,1.1c0.6,0.6,1.1,0.6,2.2,0.6s1.7,0.6,2.8,0.6
					c1.7,0.6,3.4,1.1,4.5,2.2c1.1,1.1,2.2,3.4,2.2,5.6l0,0c0,1.7-0.6,2.8-1.7,4.5c-1.1,1.1-2.2,2.2-3.9,2.8
					c-1.7,0.6-3.4,1.1-5.1,1.1h-0.6c-2.2,0-4.5-0.6-6.7-1.7c-2.2-1.1-3.4-1.7-3.4-2.2l3.9-5.6c0.6,0.6,1.1,1.1,2.2,1.7
					c1.1,0.6,2.2,1.1,3.4,1.1l0,0c1.1,0,1.7,0,2.2-0.6c0.6-0.6,1.1-0.6,1.1-1.1l0,0c0-0.6-0.6-1.1-1.1-1.1c-0.6,0-1.7-0.6-2.8-0.6
					c-1.7-0.6-2.8-0.6-3.9-1.1c-3.4-1.7-4.5-3.9-4.5-7.3c0-1.7,0.6-2.8,1.1-4.5c1.1-1.1,2.2-2.2,3.4-2.8c1.7-0.6,2.8-1.1,4.5-1.1
					h0.6c2.2,0,3.9,0.6,6.2,1.7C497,93.9,498.1,94.5,498.7,95.1z"/>
				<path class="st3" d="M515.5,99.6v6.7c0,1.1,0,1.7,0.6,2.2c0,0.6,0.6,1.1,1.1,1.1c0.6,0,1.1,0.6,2.2,0.6c0.6,0,1.1,0,1.7,0
					s1.1,0,1.1,0l-1.7,7.9H520c-0.6,0-0.6,0-1.1,0c-2.8,0-5.1-0.6-6.7-1.7c-2.8-1.7-4.5-4.5-4.5-7.9v-9h-4.5l2.2-7.3h2.2v-5.1
					l7.9-3.4v7.9h5.1V99L515.5,99.6L515.5,99.6z"/>
				<path class="st3" d="M532.9,90l-5.6-4.5l5.1-5.1l5.6,3.9L532.9,90z M529,92.3l7.9-1.1V117l-7.9,0.6C529,117.5,529,92.3,529,92.3
					z"/>
				<path class="st3" d="M570,90l-1.7,6.2h-2.8c0.6,0.6,0.6,1.1,1.1,2.2c0.6,1.1,0.6,2.2,0.6,2.8c0,0,0,0,0,0.6
					c0,1.7-0.6,2.8-1.1,3.9c-0.6,1.1-1.1,1.7-2.2,2.2c-0.6,0.6-1.1,0.6-1.1,1.1c0,0,0.6,0.6,1.1,1.1c0.6,0.6,1.7,1.1,2.2,2.2
					c0.6,1.1,1.1,2.2,1.1,3.9c0,2.8-1.1,5.6-3.9,7.3c-2.8,1.7-5.6,2.8-9,2.8c-3.9,0-6.7-0.6-8.4-1.7c-1.7-1.1-2.8-2.2-3.4-2.8
					l4.5-5.1c0,0,0.6,0.6,1.1,1.1c0.6,0.6,1.7,1.1,2.2,1.7c1.1,0.6,1.7,0.6,2.8,0.6l0,0c3.9,0,5.6-1.7,5.6-3.9
					c0-1.7-0.6-2.2-1.7-3.4c0-1.1-1.1-1.1-2.8-1.1h-0.6c-1.1,0-1.7,0-2.2,0c-1.1,0-1.7,0.6-2.2,0.6l-1.1,0.6l1.1-2.2
					c-1.1-0.6-2.2-1.1-3.4-2.8c-1.1-1.1-2.2-3.4-2.2-6.2l0,0c0-2.2,0.6-3.9,1.7-5.6c1.1-1.7,2.2-2.8,3.9-3.9
					c1.7-1.1,3.4-1.1,5.6-1.1h0.6c1.1,0,2.2,0,3.4,0c1.1,0,2.2,0,2.8,0.6C565,91.1,567.2,90.6,570,90z M555.4,97.3
					c-1.1,0-2.2,0.6-2.8,1.1c-0.6,0.6-1.1,1.7-1.1,2.8c0,0,0,0,0,0.6c0,1.1,0.6,2.2,1.1,2.8c0.6,1.1,1.7,1.7,2.8,1.7
					c1.1,0,1.7,0,2.8-0.6c0.6-0.6,1.1-1.1,1.7-1.7c0.6-0.6,0.6-1.7,0.6-2.2l0,0c0-1.1-0.6-2.2-1.7-3.4
					C557.7,97.9,556.5,97.3,555.4,97.3z"/>
				<path class="st3" d="M596.4,99.6V117l-7.3,1.1v-2.2c0,0,0,0.6-0.6,0.6c-0.6,0.6-1.1,0.6-2.2,1.1c-1.1,0.6-1.7,0.6-2.8,0.6l0,0
					c-1.7,0-3.4-0.6-4.5-1.1c-1.7-0.6-2.8-1.7-3.4-3.4c-1.1-1.1-1.1-2.8-1.1-4.5c0-1.7,0.6-3.4,1.1-4.5c1.1-1.1,2.2-2.2,3.4-3.4
					c1.1-0.6,2.8-1.1,4.5-1.1h0.6c1.1,0,1.7,0,2.8,0.6c0.6,0.6,1.7,0.6,1.7,1.1l0.6,0.6c0-1.1,0-1.7,0-2.2c0-1.1-0.6-1.7-1.7-2.2
					c-0.6-0.6-1.7-0.6-3.4-0.6l0,0c-1.1,0-2.8,0.6-4.5,1.1c-1.7,0.6-2.8,1.1-2.8,1.1l1.7-7.3c0,0,0.6,0,1.7-0.6
					c1.1,0,2.2-0.6,3.4-0.6c1.1,0,2.2,0,2.8-0.6h0.6c1.7,0,3.4,0,4.5,0.6c1.7,0.6,2.8,1.7,3.9,2.8C595.9,95.6,596.4,97.3,596.4,99.6
					z M588.6,109.1c0-1.1-0.6-1.7-1.1-2.2c-0.6-0.6-1.7-1.1-2.8-1.1l0,0c-1.1,0-1.7,0.6-2.8,1.1c-0.6,0.6-1.1,1.1-1.1,2.2l0,0
					c0,1.1,0.6,1.7,1.1,2.2c0.6,0.6,1.7,1.1,2.8,1.1c1.1,0,1.7,0,2.8-0.6C588,110.8,588.6,110.2,588.6,109.1z"/>
				<path class="st3" d="M624,93.9l-4.5,5.6c0,0,0,0-0.6-0.6c0,0-0.6-0.6-1.1-0.6s-1.1-0.6-1.7-0.6s-1.1,0-1.7,0l0,0
					c-1.7,0-3.4,0.6-4.5,2.2c-1.1,1.1-1.7,2.8-1.7,4.5v0.6c0,1.7,0.6,3.4,1.7,4.5c1.1,1.1,2.2,1.7,3.9,1.7c1.1,0,1.7,0,2.8-0.6
					c0.6,0,1.1-0.6,1.7-1.1c0.6-0.6,0.6-0.6,0.6-0.6l4.5,5.6c-0.6,0.6-1.7,1.1-3.4,2.2c-1.7,0.6-3.4,1.1-5.6,1.1l0,0
					c-2.8,0-5.1-0.6-7.3-1.7c-2.2-1.1-3.9-2.8-5.1-5.1c-1.1-2.2-1.7-4.5-1.7-6.7c0-2.2,0.6-4.5,1.7-6.7c1.1-2.2,2.8-3.9,5.1-5.1
					c2.2-1.1,4.5-1.7,7.3-1.7c2.8,0,5.1,0.6,6.2,1.1C622.3,92.8,623.4,93.4,624,93.9z"/>
				<path class="st3" d="M635.2,90l-5.6-4.5l5.1-5.1l5.6,3.9L635.2,90z M630.7,92.3l7.9-1.1V117l-7.9,0.6V92.3z"/>
				<path class="st3" d="M659.4,90.6L659.4,90.6c2.8,0,5.6,0.6,7.3,1.7c2.2,1.1,3.9,2.8,5.1,5.1c1.1,2.2,1.7,4.5,1.7,6.7l0,0
					c0,2.2-0.6,4.5-1.7,6.7c-1.1,2.2-2.8,3.4-4.5,5.1c-2.2,1.1-3.9,1.7-6.2,2.2c-0.6,0-0.6,0-1.1,0c-2.2,0-4.5-0.6-6.2-1.7
					c-2.2-1.1-3.9-2.8-5.6-4.5c-1.7-2.2-2.2-4.5-2.2-6.7v-0.6c0-2.2,0.6-4.5,1.7-6.2c1.1-2.2,2.8-3.9,5.1-5.1
					C654.3,91.7,656.6,90.6,659.4,90.6z M659.4,97.9c-1.1,0-2.2,0.6-2.8,1.1c-1.1,0.6-1.7,1.1-2.2,2.2c-0.6,1.1-0.6,1.7-0.6,2.8
					c0,1.7,0.6,2.8,1.7,4.5c1.1,1.1,2.8,1.7,4.5,1.7s3.4-0.6,4.5-1.7c1.1-1.1,1.7-2.8,1.7-4.5c0-1.7-0.6-3.4-1.7-4.5
					C662.7,98.4,661.1,97.9,659.4,97.9L659.4,97.9z"/>
				<path class="st3" d="M691.4,117.5v-15.2c0-3.4-1.1-4.5-2.8-4.5c-2.2,0-2.8,1.7-2.8,4.5V117l-7.9,0.6V91.7l7.3-1.1v2.8
					c0,0,0-0.6,0.6-0.6c0.6-0.6,1.1-1.1,2.2-1.1c1.1-0.6,2.2-0.6,3.4-0.6h0.6c2.2,0,3.9,0.6,5.6,2.2c1.7,1.7,2.2,3.4,2.2,6.2v18
					C699.8,117.5,691.4,117.5,691.4,117.5z"/>
				<polygon class="st3" points="657.7,90 665,80.5 670.6,81.6 				"/>
			</g>
		</g>
		<g>
			<path class="st4" d="M425.6,75.4c-1.7,3.4-5.6,5.1-9.6,5.1c-6.2,0-11.2-5.1-15.7-9.6c-1.7-1.7-2.8-2.8-3.9-3.9
				c-2.8,2.2-5.6,3.4-9,3.4c-7.3,0-10.1-5.1-10.1-12.9c0-5.6,1.7-12.4,3.9-17.4c-1.1,0-1.7,0-3.4,0c-6.7,0-11.2-3.4-11.2-9
				c0-3.4,1.1-5.1,3.4-7.3c0,0,0.6-0.6,1.1-0.6c0.6,0,0.6,0,1.1,0.6c0,0,0.6,0.6,0.6,1.1s0,0.6-0.6,1.1c-1.7,1.7-2.8,3.4-2.8,5.6
				c0,4.5,3.9,6.2,9,6.2c2.2,0,3.4,0,5.1-0.6c2.2-7.3,6.7-12.9,12.9-12.9c1.7,0,2.8,1.1,2.8,2.8c0,5.1-9,10.1-15.2,11.8
				c-2.8,5.6-3.9,12.4-3.9,18c0,6.2,1.7,10.1,7.3,10.1c2.2,0,4.5-1.1,6.7-2.2c-1.7-1.1-3.4-1.7-4.5-1.7s-2.2,0.6-2.8,1.1
				c0,0-0.6,0.6-1.1,0.6c-0.6,0-1.1-0.6-1.1-1.1s0-0.6,0.6-1.1c1.1-1.1,2.8-1.7,4.5-1.7c2.2,0,4.5,1.1,6.7,2.2l0.6-0.6
				c6.7-6.7,11.8-20.2,11.8-29.8c0-5.6-1.7-9.6-6.7-9.6c-1.1,0-2.8,0.6-3.9,0.6c-0.6,0-1.1-1.1-1.1-1.1c0-1.7,2.2-2.2,5.1-2.2
				c6.7,0,9.6,5.1,9.6,12.4c0,10.1-5.6,24.7-12.4,31.5l-0.6,0.6c1.1,1.1,2.8,2.8,3.9,3.9c3.9,4.5,8.4,9,13.5,9
				c2.8,0,6.2-1.1,6.7-3.4c0-0.6,0.6-0.6,1.1-0.6C425.1,73.7,425.6,74.3,425.6,75.4C425.6,74.8,425.6,75.4,425.6,75.4z M397,27.6
				c0-0.6-0.6-0.6-1.1-0.6c-3.9,0-7.3,4.5-10.1,8.4C390.8,33.8,397,29.9,397,27.6z"/>
			<path class="st4" d="M438.5,53.5C438.5,54,438.5,54,438.5,53.5C434.6,63,431.2,67,427.3,67c-2.8,0-3.9-1.7-4.5-4.5
				c-1.7,2.8-4.5,4.5-7.3,4.5l0,0c-3.9,0-6.2-2.2-6.2-6.7c0-3.4,1.7-6.7,7.3-22.5c0-0.6,0.6-0.6,1.1-0.6c1.1,0,1.7,1.1,1.1,1.7
				c-6.7,17.4-7.3,19.1-7.3,21.4c0,2.8,1.1,3.9,3.4,3.9c2.8,0,5.1-2.2,7.3-6.2c2.2-4.5,4.5-10.7,7.9-19.7c0-0.6,0.6-0.6,1.1-0.6
				c1.1,0,1.7,1.1,1.1,1.7c-1.1,3.4-2.8,6.7-3.4,9.6c-2.2,6.2-3.9,11.2-3.9,12.9s0.6,2.8,1.7,2.8c2.8,0,5.6-3.4,9-11.2
				c0-0.6,0.6-0.6,1.1-0.6h0.6C438,52.9,438.5,53.5,438.5,53.5z"/>
			<path class="st4" d="M449.8,53.5C449.8,54,449.8,54,449.8,53.5C446.4,60.8,443.6,67,438,67c-2.8,0-4.5-2.2-4.5-5.1
				c0-5.1,4.5-16.3,7.3-23c0-0.6,0.6-1.1,1.1-1.1c0.6,0,1.7,0.6,1.1,1.7c-6.2,16.9-7.3,19.7-7.3,22.5c0,1.7,0.6,2.8,1.7,2.8
				c3.9,0,6.7-6.2,9-11.2c0-0.6,0.6-0.6,1.1-0.6h0.6C449.8,52.9,449.8,53.5,449.8,53.5z M443,32.7c0-1.1,1.1-2.2,2.2-2.2
				c1.1,0,2.2,1.1,2.2,2.2c0,1.1-1.1,2.2-2.2,2.2C444.2,34.9,443,33.8,443,32.7z"/>
			<path class="st4" d="M474.5,53.5C474.5,54,474.5,54,474.5,53.5C470,63.6,467.2,67,463.3,67c-2.8,0-4.5-2.2-4.5-5.1
				c0-5.6,5.1-12.9,5.1-18.5c0-1.7-0.6-3.4-3.4-3.4c-3.9,0-8.4,8.4-10.7,13.5l-4.5,12.4c0,0.6-1.1,1.1-1.7,1.1
				c-0.6,0-1.1-1.1-0.6-1.7c3.4-9,7.3-20.2,9.6-27c0-0.6,0.6-1.1,1.1-1.1c1.1,0,1.7,1.1,1.1,1.7l-0.6,1.1c1.7-1.7,3.9-2.8,5.6-2.8
				c4.5,0,5.6,2.8,5.6,5.6c0,5.6-5.1,13.5-5.1,18.5c0,1.7,0.6,2.8,1.7,2.8c2.8,0,5.1-3.4,9-11.2c0-0.6,0.6-0.6,1.1-0.6h0.6
				C474.5,52.9,474.5,53.5,474.5,53.5z"/>
			<path class="st4" d="M487.4,53.5C487.4,54,487.4,54,487.4,53.5c-3.9,8.4-7.3,13.5-12.9,13.5c-2.8,0-4.5-2.2-4.5-5.1
				c0-2.2,1.7-7.9,3.4-12.9l3.4-9h-3.9c-0.6,0-1.1-0.6-1.1-1.1c0-0.6,0.6-1.1,1.1-1.1h5.1l3.4-9c0-0.6,0.6-1.1,1.1-1.1
				c1.1,0,1.7,1.1,1.1,1.7c0-0.6-2.2,7.3-2.8,8.4h3.9c0.6,0,1.1,0.6,1.1,1.1c0,0.6-0.6,1.1-1.1,1.1h-5.1c-0.6,1.7-1.7,4.5-3.4,10.1
				c-2.8,7.3-3.4,10.1-3.4,11.8c0,1.7,0.6,2.8,2.2,2.8c4.5,0,7.3-5.1,10.1-11.8c0-0.6,0.6-0.6,1.1-0.6h0.6
				C487.4,52.9,487.4,53.5,487.4,53.5z"/>
			<path class="st4" d="M502.6,63.6c-1.7,0-3.4-0.6-4.5-1.7c-2.2,3.4-5.6,5.6-8.4,5.6c-3.9,0-5.6-2.8-5.6-6.2
				c0-7.3,3.4-13.5,5.1-16.9c2.8-4.5,5.6-6.7,9-6.7c3.9,0,6.2,2.8,6.2,6.7s-2.2,10.1-5.1,14.6c0.6,1.1,1.7,1.1,3.4,1.1
				c2.8,0,5.1-2.2,6.7-7.3c0-0.6,0.6-0.6,1.1-0.6c1.1,0,1.7,1.1,1.1,1.7C509.3,60.8,506,63.6,502.6,63.6z M498.7,54
				c0,0.6,0,1.1,0,1.7c1.7-3.9,3.4-7.9,3.4-11.2c0-2.8-1.7-3.9-3.9-3.9s-4.5,2.2-6.2,5.1c-1.7,2.8-5.1,8.4-5.1,15.2
				c0,2.2,0.6,3.9,2.8,3.9c2.2,0,5.1-2.2,6.7-5.6c-0.6-1.7-0.6-4.5,0-6.2c0-0.6,0.6-1.1,1.1-1.1C498.1,52.4,498.7,53.5,498.7,54z"/>
		</g>
	</g>
	<g>
		<path class="st4" d="M654.3,61.3C654.3,61.3,654.3,61.9,654.3,61.3c-2.8,6.2-5.6,10.7-10.1,10.7c-2.2,0-3.4-1.7-3.4-4.5
			c-1.7,2.2-3.9,4.5-6.2,4.5c-2.8,0-3.9-2.2-3.9-5.1c0-6.2,5.1-17.4,10.7-17.4c2.2,0,3.4,1.1,4.5,2.2l1.1-2.2l2.8-7.3
			c0-0.6,0.6-0.6,1.1-0.6c0.6,0,1.1,0.6,1.1,1.1c-0.6,1.1-6.2,18-6.7,19.1c-0.6,2.2-1.7,5.1-1.7,6.2c0,1.1,0.6,2.2,1.7,2.2
			c3.4,0,5.6-3.9,7.9-9c0-0.6,0.6-0.6,1.1-0.6c0,0,0,0,0.6,0C654.3,60.8,654.3,61.3,654.3,61.3z M643.1,58c0.6-1.1,0.6-2.2,1.1-2.8
			c0,0,0,0,0-0.6c0-2.2-1.1-3.4-2.8-3.4c-4.5,0-8.4,10.7-8.4,15.2c0,2.2,0.6,3.4,1.7,3.4C638.6,69.8,641.4,63,643.1,58z"/>
		<path class="st4" d="M669.5,61.3C669.5,61.9,669.5,61.9,669.5,61.3c-3.4,7.3-6.7,10.7-11.8,10.7c-3.9,0-6.2-2.8-6.2-6.7
			c0.6-6.2,5.1-16.3,11.2-16.3c2.2,0,3.9,1.1,3.9,3.4c0,5.1-7.3,8.4-12.4,9.6c-0.6,1.1-0.6,2.2-0.6,3.4c0,2.8,1.7,4.5,4.5,4.5
			c3.9,0,7.3-2.8,9.6-9c0-0.6,0.6-0.6,1.1-0.6C669.5,60.8,669.5,61.3,669.5,61.3z M664.4,52.9c0-1.1-1.1-1.7-2.2-1.7
			c-3.4,0-6.2,5.1-7.9,9C658.8,58.5,664.4,56.3,664.4,52.9z"/>
	</g>
	<g>
		<path class="st4" d="M445.8,145.1C445.8,145.6,445.8,145.6,445.8,145.1c-3.4,7.3-6.7,10.7-11.8,10.7c-3.9,0-6.2-2.8-6.2-6.7
			c0.6-6.2,5.1-16.3,11.2-16.3c2.2,0,3.9,1.1,3.9,3.4c0,5.1-7.3,8.4-12.4,9.6c-0.6,1.1-0.6,2.2-0.6,3.4c0,2.8,1.7,4.5,4.5,4.5
			c3.9,0,7.3-2.8,9.6-9c0-0.6,0.6-0.6,1.1-0.6C445.8,144.5,445.8,145.1,445.8,145.1z M440.8,136.6c0-1.1-1.1-1.7-2.2-1.7
			c-3.4,0-6.2,5.1-7.9,9C435.2,142.3,440.8,140,440.8,136.6z"/>
		<path class="st4" d="M465,145.1C465,145.1,465,145.6,465,145.1c-3.4,7.9-5.6,10.7-9,10.7c-2.2,0-3.4-1.7-3.4-3.9
			c0-4.5,3.9-10.1,3.9-14c0-1.1-0.6-2.2-2.2-2.2c-2.8,0-6.7,6.7-7.9,10.7l-3.4,9.6c0,0.6-0.6,0.6-1.1,0.6c-0.6,0-0.6-0.6-0.6-1.1
			c2.2-6.7,5.6-15.7,7.3-20.8c0-0.6,0.6-0.6,1.1-0.6c0.6,0,1.1,0.6,1.1,1.1l-0.6,1.1c1.1-1.7,2.8-2.2,4.5-2.2c3.4,0,4.5,2.2,4.5,4.5
			c0,4.5-3.9,10.7-3.9,14c0,1.1,0.6,2.2,1.7,2.2c2.2,0,3.9-2.8,6.7-9C463.8,145.1,464.4,145.1,465,145.1L465,145.1
			C465,144.5,465,145.1,465,145.1z"/>
	</g>
</g>
<g>
	<g class="st5">
		<g>
			<path class="st3" d="M50.7,86.8H40.5v10.7h-6.4V61.7c5.3,0,11.2,0,16.5,0C68.2,61.7,68.2,86.8,50.7,86.8z M40.5,80.9h10.1
				c8.5,0,8.5-12.8,0-12.8H40.5V80.9z"/>
		</g>
		<g>
			<path class="st3" d="M100.2,97.4h-8L82.1,85.7h-6.9v11.7h-6.9V61.7c5.9,0,11.2,0,17.1,0c8.5,0,12.8,5.9,12.8,11.7
				c0,4.8-2.1,9.6-9.1,11.2L100.2,97.4L100.2,97.4z M75.2,68.1v11.2h10.1c4.3,0,5.9-2.7,5.9-5.9s-2.1-5.9-5.9-5.9H75.2V68.1z"/>
		</g>
		<g>
			<path class="st3" d="M137.5,79.8c0,9.1-5.9,18.7-18.1,18.7s-18.1-9.1-18.1-18.1s5.9-18.7,18.1-18.7
				C131.7,61.2,137.5,70.8,137.5,79.8z M107.7,79.8c0,5.9,3.2,12.3,11.7,12.3s11.7-6.4,11.7-12.3s-3.2-12.8-11.7-12.8
				S107.7,74,107.7,79.8z"/>
		</g>
		<g>
			<path class="st3" d="M169,70.8c-2.1-2.1-5.9-3.7-9.1-3.7c-7.5,0-12.3,5.9-12.3,13.3c0,5.9,3.2,11.7,12.3,11.7
				c2.7,0,5.3-0.5,8-2.7V83h-9.1v-6.4h15.5v14.9c-3.7,4.3-8,6.4-14.4,6.4c-13.3,0-18.7-8.5-18.7-18.1c0-10.1,6.4-19.2,18.7-19.2
				c4.8,0,9.6,1.6,13.3,5.3L169,70.8z"/>
		</g>
		<g>
			<path class="st3" d="M210.5,97.4h-8l-10.1-11.7H186v11.7h-6.9V61.7c5.9,0,11.2,0,17.1,0c8.5,0,12.8,5.9,12.8,11.7
				c0,4.8-2.1,9.6-9.1,11.2L210.5,97.4L210.5,97.4z M186,68.1v11.2h10.1c4.3,0,5.9-2.7,5.9-5.9s-2.1-5.9-5.9-5.9H186V68.1z"/>
		</g>
		<g>
			<path class="st3" d="M238.8,90.5h-18.7l-3.2,6.9h-7.5l16-35.7h7.5l16,35.7h-7.5L238.8,90.5z M229.2,69.2l-6.4,15.5h13.3
				L229.2,69.2z"/>
		</g>
		<g>
			<path class="st3" d="M282.5,71.8l-11.7,15.5h-1.1l-11.2-15.5V98h-6.9V61.7h7.5l11.2,15.5l11.2-15.5h7.5v35.7H282V71.8H282.5z"/>
		</g>
		<g>
			<path class="st3" d="M320.9,90.5h-18.7l-3.2,6.9h-7.5l16-35.7h7.5l16,35.7h-7.5L320.9,90.5z M311.3,69.2l-6.4,15.5h13.3
				L311.3,69.2z"/>
		</g>
	</g>
	<g>
		<g class="st5">
			<g>
				<path class="st1" d="M45.3,102.2h-16V57.5h21.3c11.7,0,17.6,8.5,17.6,17.1c0,4.3-1.6,8.5-4.3,11.7c-2.1,2.7-6.4,5.3-13.3,5.3
					h-5.3C45.3,91.6,45.3,102.2,45.3,102.2z M45.3,76.1h5.3c0.5,0,1.1,0,1.6-0.5c0-0.5,0.5-0.5,0.5-1.1c0-1.6-1.1-1.6-1.6-1.6h-5.3
					v3.2H45.3z"/>
			</g>
			<g>
				<path class="st1" d="M100.2,102.2H90.1L80,90.5v11.7H64V56.9h21.3c11.7,0,17.6,8.5,17.6,16.5c0,5.3-2.1,10.1-5.9,12.8l8,8.5v6.4
					L100.2,102.2z M80,75h5.3c1.6,0,1.6-0.5,1.6-1.1s0-1.1-1.6-1.1H80V75z"/>
			</g>
			<g>
				<path class="st1" d="M119.4,102.8c-16,0-22.9-11.7-22.9-22.9c0-11.7,8-23.4,22.9-23.4c6.4,0,12.3,2.1,16.5,6.4
					s6.9,10.7,6.4,17.1l0,0C142.3,91,134.9,102.8,119.4,102.8z M119.4,71.8c-2.1,0-3.7,0.5-4.8,1.6c-1.6,1.6-2.1,4.3-2.1,6.4l0,0
					c0,3.2,1.6,7.5,6.9,7.5c5.9,0,6.9-4.3,6.9-7.5c0-2.7-0.5-4.8-2.1-6.4C123.1,72.4,121.5,71.8,119.4,71.8z"/>
			</g>
			<g>
				<path class="st1" d="M159.9,102.8c-17.6,0-23.4-12.3-23.4-22.9c0-11.7,7.5-24,23.4-24c6.4,0,12.3,2.7,16.5,6.9l3.2,3.2l-5.9,5.9
					h4.8v21.3l-1.1,1.1C172.7,100.1,167.4,102.8,159.9,102.8z M154,74c-1.1,1.6-1.6,3.7-1.6,5.9c0,1.6,0.5,3.7,1.6,5.3V74z
					 M156.7,72.4h5.9C161,71.3,158.3,71.8,156.7,72.4z"/>
			</g>
			<g>
				<path class="st1" d="M210.5,102.2h-10.1l-10.1-11.7v11.7h-16V56.9h21.9c11.7,0,17.6,8.5,17.6,16.5c0,5.3-2.1,10.1-5.9,12.8
					l8,8.5v6.4L210.5,102.2z M190.3,75h5.3c2.1,0,2.1-0.5,2.1-1.1c0-0.5,0-1.1-1.6-1.1h-5.3V75H190.3z"/>
			</g>
			<g>
				<polygon class="st1" points="256.4,102.2 238.8,102.2 235.6,95.3 222.8,95.3 220.1,102.2 202.5,102.2 222.8,57.5 236.1,57.5 
									"/>
			</g>
			<g>
				<polygon class="st1" points="293.7,102.2 277.7,102.2 277.7,85.7 273.4,91.6 267,91.6 262.8,85.7 262.8,102.2 246.8,102.2 
					246.8,57.5 261.7,57.5 270.2,69.2 279.3,57.5 293.7,57.5 				"/>
			</g>
			<g>
				<polygon class="st1" points="338.4,102.2 320.9,102.2 317.7,95.3 304.9,95.3 302.2,102.2 284.6,102.2 304.9,57.5 318.2,57.5 
									"/>
			</g>
		</g>
	</g>
	<g>
		<g class="st5">
			<g>
				<path class="st2" d="M43.2,100.1H31.5v-41h19.2c10.1,0,16,7.5,16,15.5c0,3.7-1.6,7.5-3.7,10.7C60.8,87.3,57,90,51.2,90h-8V100.1
					z M36.8,94.8h1.1V84.1h12.8c3.2,0,5.9-1.1,8-3.2c1.6-1.6,2.7-3.7,2.7-6.4c0-4.8-3.2-10.1-10.7-10.1H36.8
					C36.8,64.4,36.8,94.8,36.8,94.8z M50.7,83.6H37.9V65.5h12.8c5.9,0,9.1,4.3,9.1,9.1c0,2.1-1.1,4.3-2.1,5.9
					C56.5,82,54.4,83.6,50.7,83.6z M43.2,78.2h7.5c1.1,0,2.1-0.5,2.7-1.1c0.5-0.5,1.1-1.6,1.1-2.7c0-1.6-1.1-3.7-3.7-3.7h-7.5V78.2z
					"/>
			</g>
			<g>
				<path class="st2" d="M100.2,100.1h-9.1L80.5,88.4h-2.7v11.7H65.6v-41h19.7c10.7,0,15.5,7.5,15.5,14.4c0,5.9-2.7,10.1-6.9,12.3
					l9.1,10.1v3.7L100.2,100.1z M93.3,94.8h1.1L84.2,83L89,82c4.8-1.1,6.9-3.7,6.9-8.5c0-4.3-3.2-9.1-10.1-9.1H71.4v30.4H73V83h10.1
					L93.3,94.8z M85.3,82H72.5V65.5h12.8c5.9,0,8.5,4.3,8.5,8.5S91.2,82,85.3,82z M77.8,76.6h7.5c3.2,0,3.2-2.1,3.2-3.2
					s-0.5-3.2-3.2-3.2h-7.5V76.6z"/>
			</g>
			<g>
				<path class="st2" d="M119.4,101.2c-14.4,0-20.8-10.7-20.8-20.8s6.4-21.3,20.8-21.3c5.9,0,11.2,2.1,14.9,5.9
					c3.7,3.7,5.9,9.6,5.9,15.5l0,0C140.2,90.5,133.8,101.2,119.4,101.2z M119.4,63.9c-10.7,0-15.5,8-15.5,16
					c0,7.5,4.3,15.5,15.5,15.5s15.5-8.5,15.5-16l0,0c0-4.8-1.6-9.1-4.3-11.7C127.9,65.5,123.7,63.9,119.4,63.9z M119.4,94.8
					c-10.1,0-14.4-8-14.4-14.9c0-4.3,1.6-8.5,4.3-11.7c2.7-2.7,5.9-4.3,10.1-4.3s7.5,1.6,10.1,3.7c2.7,3.7,4.3,8,4.3,12.3
					C133.8,86.8,129.5,94.8,119.4,94.8z M119.4,69.7c-2.7,0-4.8,1.1-6.4,2.7c-1.6,1.6-2.7,4.8-2.7,7.5l0,0c0,2.7,1.1,9.6,9.1,9.6
					s9.1-7.5,9.1-9.6c0-3.2-1.1-5.9-2.7-7.5S122.1,69.7,119.4,69.7z"/>
			</g>
			<g>
				<path class="st2" d="M159.9,101.2c-16,0-21.3-11.2-21.3-20.8c0-10.7,6.9-21.9,21.3-21.9c5.9-0.5,11.2,2.1,14.9,5.9L177,66l-8,8
					h7.5v18.7l-0.5,0.5C171.6,98.5,166.3,101.2,159.9,101.2z M159.9,63.3c-11.7,0-16,9.1-16,16.5c0,3.7,1.1,15.5,16,15.5
					c4.8,0,8.5-1.6,11.7-4.8V79.3h-10.1v0.5h9.1V90l-1.1,0.5c-3.2,2.7-5.9,3.2-9.6,3.2c-10.1,0-14.9-7.5-14.9-14.4
					C145,70.2,151.4,63.3,159.9,63.3c3.2,0,6.4,1.1,9.1,2.7l0.5-0.5C166.3,64.4,163.1,63.3,159.9,63.3z M159.9,69.7
					c-6.4,0-9.6,5.3-9.6,10.7c0,2.1,0.5,9.1,9.6,9.1c1.6,0,3.2-0.5,5.3-1.6v-2.1h-9.1V74H169l-1.6-1.6
					C165.2,70.8,162.6,69.7,159.9,69.7z"/>
			</g>
			<g>
				<path class="st2" d="M210.5,100.1h-9.1l-10.1-11.7h-2.7v11.7h-12.3v-41h19.7c10.7,0,15.5,7.5,15.5,14.4c0,5.9-2.7,10.1-6.9,12.3
					l9.1,10.1v3.7L210.5,100.1z M204.1,94.8h1.1L195.1,83l4.8-1.1c4.8-1.1,6.9-3.7,6.9-8.5c0-4.3-3.2-9.1-10.1-9.1h-14.4v30.4h1.6
					V83H194L204.1,94.8z M196.1,82h-12.8V65.5h12.8c5.9,0,8.5,4.3,8.5,8.5S202,82,196.1,82z M188.7,76.6h7.5c3.2,0,3.2-2.1,3.2-3.2
					s-0.5-3.2-3.2-3.2h-7.5V76.6z"/>
			</g>
			<g>
				<path class="st2" d="M253.2,100.1h-13.3l-3.2-6.9h-14.9l-3.2,6.9h-13.3l18.1-41H234L253.2,100.1z M243.6,94.8h1.6l-13.3-30.4
					h-1.1l10.1,22.4h-21.3l10.1-22.4h-1.1l-14.9,30.4h1.6l3.2-6.9h21.9L243.6,94.8z M227.1,82h5.3l-2.7-5.9L227.1,82z"/>
			</g>
			<g>
				<path class="st2" d="M292.1,100.1h-12.3V79.8L272.4,90h-4.3l-7.5-10.1v20.3h-12.3v-41h11.7l9.6,13.3l9.6-13.3H291v41H292.1z
					 M285.2,94.8h1.6V64.4h-1.6V94.8z M254.2,94.8h1.6V64.4h-1.6V94.8z M256.4,64.4l13.9,19.2l14.4-19.2H283l-12.3,17.1l-12.3-17.1
					H256.4z"/>
			</g>
			<g>
				<path class="st2" d="M335.3,100.1h-13.3l-3.2-6.9h-14.9l-3.2,6.9h-13.3l18.1-41h10.7L335.3,100.1z M325.7,94.8h1.6l-13.3-30.4
					h-1.1L323,86.8h-21.3l10.1-22.4h-2.1l-13.3,30.4h1.6l3.2-6.9H323L325.7,94.8z M308.6,82h5.3l-2.7-5.9L308.6,82z"/>
			</g>
		</g>
	</g>
	<g class="st5">
		<g>
			<path class="st0" d="M50.7,86.8H40.5v10.7h-6.4V61.7c5.3,0,11.2,0,16.5,0C68.2,61.7,68.2,86.8,50.7,86.8z M40.5,80.9h10.1
				c8.5,0,8.5-12.8,0-12.8H40.5V80.9z"/>
		</g>
		<g>
			<path class="st0" d="M100.2,97.4h-8L82.1,85.7h-6.9v11.7h-6.9V61.7c5.9,0,11.2,0,17.1,0c8.5,0,12.8,5.9,12.8,11.7
				c0,4.8-2.1,9.6-9.1,11.2L100.2,97.4L100.2,97.4z M75.2,68.1v11.2h10.1c4.3,0,5.9-2.7,5.9-5.9s-2.1-5.9-5.9-5.9H75.2V68.1z"/>
		</g>
		<g>
			<path class="st0" d="M137.5,79.8c0,9.1-5.9,18.7-18.1,18.7s-18.1-9.1-18.1-18.1s5.9-18.7,18.1-18.7
				C131.7,61.2,137.5,70.8,137.5,79.8z M107.7,79.8c0,5.9,3.2,12.3,11.7,12.3s11.7-6.4,11.7-12.3s-3.2-12.8-11.7-12.8
				S107.7,74,107.7,79.8z"/>
		</g>
		<g>
			<path class="st0" d="M169,70.8c-2.1-2.1-5.9-3.7-9.1-3.7c-7.5,0-12.3,5.9-12.3,13.3c0,5.9,3.2,11.7,12.3,11.7
				c2.7,0,5.3-0.5,8-2.7V83h-9.1v-6.4h15.5v14.9c-3.7,4.3-8,6.4-14.4,6.4c-13.3,0-18.7-8.5-18.7-18.1c0-10.1,6.4-19.2,18.7-19.2
				c4.8,0,9.6,1.6,13.3,5.3L169,70.8z"/>
		</g>
		<g>
			<path class="st0" d="M210.5,97.4h-8l-10.1-11.7H186v11.7h-6.9V61.7c5.9,0,11.2,0,17.1,0c8.5,0,12.8,5.9,12.8,11.7
				c0,4.8-2.1,9.6-9.1,11.2L210.5,97.4L210.5,97.4z M186,68.1v11.2h10.1c4.3,0,5.9-2.7,5.9-5.9s-2.1-5.9-5.9-5.9H186V68.1z"/>
		</g>
		<g>
			<path class="st0" d="M238.8,90.5h-18.7l-3.2,6.9h-7.5l16-35.7h7.5l16,35.7h-7.5L238.8,90.5z M229.2,69.2l-6.4,15.5h13.3
				L229.2,69.2z"/>
		</g>
		<g>
			<path class="st0" d="M282.5,71.8l-11.7,15.5h-1.1l-11.2-15.5V98h-6.9V61.7h7.5l11.2,15.5l11.2-15.5h7.5v35.7H282V71.8H282.5z"/>
		</g>
		<g>
			<path class="st0" d="M320.9,90.5h-18.7l-3.2,6.9h-7.5l16-35.7h7.5l16,35.7h-7.5L320.9,90.5z M311.3,69.2l-6.4,15.5h13.3
				L311.3,69.2z"/>
		</g>
	</g>
</g>
</svg>
